<svg xmlns="http://www.w3.org/2000/svg" viewBox="0 0 800 400" role="img" aria-labelledby="chart-title">
  <title id="chart-title">Weather — Ordinal Axis</title>
  <desc>Chart: Weather — Ordinal Axis</desc>
  <style>
    .tooltip { display: none; pointer-events: none; }
    .data-point:hover .tooltip { display: block; }
    .point { transition: r 0.15s; }
    .data-point:hover .point { r: 5; }
    .line { transition: stroke-width 0.2s; }
  </style>
  <rect x="0.00" y="0.00" width="800.00" height="400.00" fill="#ffffff"/>
  <g class="grid">
  <line x1="60.00" y1="282.11" x2="780.00" y2="282.11" stroke="#e0e0e0" stroke-width="0.5"/>
  <line x1="60.00" y1="213.84" x2="780.00" y2="213.84" stroke="#e0e0e0" stroke-width="0.5"/>
  <line x1="60.00" y1="145.58" x2="780.00" y2="145.58" stroke="#e0e0e0" stroke-width="0.5"/>
  <line x1="60.00" y1="77.31" x2="780.00" y2="77.31" stroke="#e0e0e0" stroke-width="0.5"/>
  </g>
  <g class="y-axis">
  <line x1="60.00" y1="50.00" x2="60.00" y2="320.00" stroke="#666666" stroke-width="1"/>
  <line x1="56.00" y1="282.11" x2="60.00" y2="282.11" stroke="#666666" stroke-width="1"/>
  <text x="52.00" y="286.11" text-anchor="end" fill="#333333" font-size="12" font-family="system-ui, -apple-system, sans-serif">20.0</text>
  <line x1="56.00" y1="213.84" x2="60.00" y2="213.84" stroke="#666666" stroke-width="1"/>
  <text x="52.00" y="217.84" text-anchor="end" fill="#333333" font-size="12" font-family="system-ui, -apple-system, sans-serif">40.0</text>
  <line x1="56.00" y1="145.58" x2="60.00" y2="145.58" stroke="#666666" stroke-width="1"/>
  <text x="52.00" y="149.58" text-anchor="end" fill="#333333" font-size="12" font-family="system-ui, -apple-system, sans-serif">60.0</text>
  <line x1="56.00" y1="77.31" x2="60.00" y2="77.31" stroke="#666666" stroke-width="1"/>
  <text x="52.00" y="81.31" text-anchor="end" fill="#333333" font-size="12" font-family="system-ui, -apple-system, sans-serif">80.0</text>
  </g>
  <g class="x-axis">
  <line x1="60.00" y1="320.00" x2="780.00" y2="320.00" stroke="#666666" stroke-width="1"/>
  <line x1="77.14" y1="320.00" x2="77.14" y2="324.00" stroke="#666666" stroke-width="1"/>
  <text x="77.14" y="336.00" text-anchor="middle" fill="#333333" font-size="12" font-family="system-ui, -apple-system, sans-serif">2024-06-15</text>
  <line x1="111.43" y1="320.00" x2="111.43" y2="324.00" stroke="#666666" stroke-width="1"/>
  <text x="111.43" y="336.00" text-anchor="middle" fill="#333333" font-size="12" font-family="system-ui, -apple-system, sans-serif">2024-06-15</text>
  <line x1="145.71" y1="320.00" x2="145.71" y2="324.00" stroke="#666666" stroke-width="1"/>
  <text x="145.71" y="336.00" text-anchor="middle" fill="#333333" font-size="12" font-family="system-ui, -apple-system, sans-serif">2024-06-15</text>
  <line x1="180.00" y1="320.00" x2="180.00" y2="324.00" stroke="#666666" stroke-width="1"/>
  <text x="180.00" y="336.00" text-anchor="middle" fill="#333333" font-size="12" font-family="system-ui, -apple-system, sans-serif">2024-06-15</text>
  <line x1="214.29" y1="320.00" x2="214.29" y2="324.00" stroke="#666666" stroke-width="1"/>
  <text x="214.29" y="336.00" text-anchor="middle" fill="#333333" font-size="12" font-family="system-ui, -apple-system, sans-serif">2024-06-15</text>
  <line x1="248.57" y1="320.00" x2="248.57" y2="324.00" stroke="#666666" stroke-width="1"/>
  <text x="248.57" y="336.00" text-anchor="middle" fill="#333333" font-size="12" font-family="system-ui, -apple-system, sans-serif">2024-06-15</text>
  <line x1="282.86" y1="320.00" x2="282.86" y2="324.00" stroke="#666666" stroke-width="1"/>
  <text x="282.86" y="336.00" text-anchor="middle" fill="#333333" font-size="12" font-family="system-ui, -apple-system, sans-serif">2024-06-15</text>
  <line x1="317.14" y1="320.00" x2="317.14" y2="324.00" stroke="#666666" stroke-width="1"/>
  <text x="317.14" y="336.00" text-anchor="middle" fill="#333333" font-size="12" font-family="system-ui, -apple-system, sans-serif">2024-06-15</text>
  <line x1="351.43" y1="320.00" x2="351.43" y2="324.00" stroke="#666666" stroke-width="1"/>
  <text x="351.43" y="336.00" text-anchor="middle" fill="#333333" font-size="12" font-family="system-ui, -apple-system, sans-serif">2024-06-15</text>
  <line x1="385.71" y1="320.00" x2="385.71" y2="324.00" stroke="#666666" stroke-width="1"/>
  <text x="385.71" y="336.00" text-anchor="middle" fill="#333333" font-size="12" font-family="system-ui, -apple-system, sans-serif">2024-06-15</text>
  <line x1="420.00" y1="320.00" x2="420.00" y2="324.00" stroke="#666666" stroke-width="1"/>
  <text x="420.00" y="336.00" text-anchor="middle" fill="#333333" font-size="12" font-family="system-ui, -apple-system, sans-serif">2024-06-15</text>
  <line x1="454.29" y1="320.00" x2="454.29" y2="324.00" stroke="#666666" stroke-width="1"/>
  <text x="454.29" y="336.00" text-anchor="middle" fill="#333333" font-size="12" font-family="system-ui, -apple-system, sans-serif">2024-06-15</text>
  <line x1="488.57" y1="320.00" x2="488.57" y2="324.00" stroke="#666666" stroke-width="1"/>
  <text x="488.57" y="336.00" text-anchor="middle" fill="#333333" font-size="12" font-family="system-ui, -apple-system, sans-serif">2024-06-15</text>
  <line x1="522.86" y1="320.00" x2="522.86" y2="324.00" stroke="#666666" stroke-width="1"/>
  <text x="522.86" y="336.00" text-anchor="middle" fill="#333333" font-size="12" font-family="system-ui, -apple-system, sans-serif">2024-06-15</text>
  <line x1="557.14" y1="320.00" x2="557.14" y2="324.00" stroke="#666666" stroke-width="1"/>
  <text x="557.14" y="336.00" text-anchor="middle" fill="#333333" font-size="12" font-family="system-ui, -apple-system, sans-serif">2024-06-15</text>
  <line x1="591.43" y1="320.00" x2="591.43" y2="324.00" stroke="#666666" stroke-width="1"/>
  <text x="591.43" y="336.00" text-anchor="middle" fill="#333333" font-size="12" font-family="system-ui, -apple-system, sans-serif">2024-06-15</text>
  <line x1="625.71" y1="320.00" x2="625.71" y2="324.00" stroke="#666666" stroke-width="1"/>
  <text x="625.71" y="336.00" text-anchor="middle" fill="#333333" font-size="12" font-family="system-ui, -apple-system, sans-serif">2024-06-15</text>
  <line x1="660.00" y1="320.00" x2="660.00" y2="324.00" stroke="#666666" stroke-width="1"/>
  <text x="660.00" y="336.00" text-anchor="middle" fill="#333333" font-size="12" font-family="system-ui, -apple-system, sans-serif">2024-06-15</text>
  <line x1="694.29" y1="320.00" x2="694.29" y2="324.00" stroke="#666666" stroke-width="1"/>
  <text x="694.29" y="336.00" text-anchor="middle" fill="#333333" font-size="12" font-family="system-ui, -apple-system, sans-serif">2024-06-15</text>
  <line x1="728.57" y1="320.00" x2="728.57" y2="324.00" stroke="#666666" stroke-width="1"/>
  <text x="728.57" y="336.00" text-anchor="middle" fill="#333333" font-size="12" font-family="system-ui, -apple-system, sans-serif">2024-06-15</text>
  <line x1="762.86" y1="320.00" x2="762.86" y2="324.00" stroke="#666666" stroke-width="1"/>
  <text x="762.86" y="336.00" text-anchor="middle" fill="#333333" font-size="12" font-family="system-ui, -apple-system, sans-serif">2024-06-15</text>
  </g>
  <text x="400.00" y="30.00" text-anchor="middle" fill="#333333" font-size="16" font-weight="bold" font-family="system-ui, -apple-system, sans-serif">Weather — Ordinal Axis</text>
  <g class="series-0">
  <path d="M77.14,312.15 C82.86,312.60 100.00,314.03 111.43,314.88 C122.86,315.73 134.29,316.42 145.71,317.27 C157.14,318.12 168.57,319.66 180.00,320.00 C191.43,320.34 202.86,320.40 214.29,319.32 C225.71,318.24 237.14,315.45 248.57,313.51 C260.00,311.58 271.43,309.99 282.86,307.71 C294.29,305.44 305.71,302.53 317.14,299.86 C328.57,297.19 340.00,294.06 351.43,291.67 C362.86,289.28 374.29,287.46 385.71,285.52 C397.14,283.59 408.57,281.83 420.00,280.06 C431.43,278.30 442.86,276.31 454.29,274.94 C465.71,273.58 477.14,272.10 488.57,271.87 C500.00,271.64 511.43,272.61 522.86,273.58 C534.29,274.54 545.71,276.08 557.14,277.67 C568.57,279.27 580.00,280.92 591.43,283.14 C602.86,285.35 614.29,288.65 625.71,290.99 C637.14,293.32 648.57,295.20 660.00,297.13 C671.43,299.06 682.86,300.71 694.29,302.59 C705.71,304.47 717.14,306.97 728.57,308.39 C740.00,309.82 757.14,310.67 762.86,311.13" fill="none" stroke="#4e79a7" stroke-width="2" class="line"/>
  <g class="data-point" aria-label="11.2°C">
  <circle cx="77.14" cy="312.15" r="3.0" fill="#4e79a7" class="point"/>
  <g class="tooltip">
  <rect x="85.14" y="292.15" width="60.00" height="18.00" fill="white" stroke="#ccc" rx="3"/>
  <text x="89.14" y="305.15" fill="#333333" font-size="10" font-family="system-ui, -apple-system, sans-serif">11.2°C</text>
  </g>
  </g>
  <g class="data-point" aria-label="10.4°C">
  <circle cx="111.43" cy="314.88" r="3.0" fill="#4e79a7" class="point"/>
  <g class="tooltip">
  <rect x="119.43" y="294.88" width="60.00" height="18.00" fill="white" stroke="#ccc" rx="3"/>
  <text x="123.43" y="307.88" fill="#333333" font-size="10" font-family="system-ui, -apple-system, sans-serif">10.4°C</text>
  </g>
  </g>
  <g class="data-point" aria-label="9.7°C">
  <circle cx="145.71" cy="317.27" r="3.0" fill="#4e79a7" class="point"/>
  <g class="tooltip">
  <rect x="153.71" y="297.27" width="60.00" height="18.00" fill="white" stroke="#ccc" rx="3"/>
  <text x="157.71" y="310.27" fill="#333333" font-size="10" font-family="system-ui, -apple-system, sans-serif">9.7°C</text>
  </g>
  </g>
  <g class="data-point" aria-label="8.9°C">
  <circle cx="180.00" cy="320.00" r="3.0" fill="#4e79a7" class="point"/>
  <g class="tooltip">
  <rect x="188.00" y="300.00" width="60.00" height="18.00" fill="white" stroke="#ccc" rx="3"/>
  <text x="192.00" y="313.00" fill="#333333" font-size="10" font-family="system-ui, -apple-system, sans-serif">8.9°C</text>
  </g>
  </g>
  <g class="data-point" aria-label="9.1°C">
  <circle cx="214.29" cy="319.32" r="3.0" fill="#4e79a7" class="point"/>
  <g class="tooltip">
  <rect x="222.29" y="299.32" width="60.00" height="18.00" fill="white" stroke="#ccc" rx="3"/>
  <text x="226.29" y="312.32" fill="#333333" font-size="10" font-family="system-ui, -apple-system, sans-serif">9.1°C</text>
  </g>
  </g>
  <g class="data-point" aria-label="10.8°C">
  <circle cx="248.57" cy="313.51" r="3.0" fill="#4e79a7" class="point"/>
  <g class="tooltip">
  <rect x="256.57" y="293.51" width="60.00" height="18.00" fill="white" stroke="#ccc" rx="3"/>
  <text x="260.57" y="306.51" fill="#333333" font-size="10" font-family="system-ui, -apple-system, sans-serif">10.8°C</text>
  </g>
  </g>
  <g class="data-point" aria-label="12.5°C">
  <circle cx="282.86" cy="307.71" r="3.0" fill="#4e79a7" class="point"/>
  <g class="tooltip">
  <rect x="290.86" y="287.71" width="60.00" height="18.00" fill="white" stroke="#ccc" rx="3"/>
  <text x="294.86" y="300.71" fill="#333333" font-size="10" font-family="system-ui, -apple-system, sans-serif">12.5°C</text>
  </g>
  </g>
  <g class="data-point" aria-label="14.8°C">
  <circle cx="317.14" cy="299.86" r="3.0" fill="#4e79a7" class="point"/>
  <g class="tooltip">
  <rect x="325.14" y="279.86" width="60.00" height="18.00" fill="white" stroke="#ccc" rx="3"/>
  <text x="329.14" y="292.86" fill="#333333" font-size="10" font-family="system-ui, -apple-system, sans-serif">14.8°C</text>
  </g>
  </g>
  <g class="data-point" aria-label="17.2°C">
  <circle cx="351.43" cy="291.67" r="3.0" fill="#4e79a7" class="point"/>
  <g class="tooltip">
  <rect x="359.43" y="271.67" width="60.00" height="18.00" fill="white" stroke="#ccc" rx="3"/>
  <text x="363.43" y="284.67" fill="#333333" font-size="10" font-family="system-ui, -apple-system, sans-serif">17.2°C</text>
  </g>
  </g>
  <g class="data-point" aria-label="19.0°C">
  <circle cx="385.71" cy="285.52" r="3.0" fill="#4e79a7" class="point"/>
  <g class="tooltip">
  <rect x="393.71" y="265.52" width="60.00" height="18.00" fill="white" stroke="#ccc" rx="3"/>
  <text x="397.71" y="278.52" fill="#333333" font-size="10" font-family="system-ui, -apple-system, sans-serif">19.0°C</text>
  </g>
  </g>
  <g class="data-point" aria-label="20.6°C">
  <circle cx="420.00" cy="280.06" r="3.0" fill="#4e79a7" class="point"/>
  <g class="tooltip">
  <rect x="428.00" y="260.06" width="60.00" height="18.00" fill="white" stroke="#ccc" rx="3"/>
  <text x="432.00" y="273.06" fill="#333333" font-size="10" font-family="system-ui, -apple-system, sans-serif">20.6°C</text>
  </g>
  </g>
  <g class="data-point" aria-label="22.1°C">
  <circle cx="454.29" cy="274.94" r="3.0" fill="#4e79a7" class="point"/>
  <g class="tooltip">
  <rect x="462.29" y="254.94" width="60.00" height="18.00" fill="white" stroke="#ccc" rx="3"/>
  <text x="466.29" y="267.94" fill="#333333" font-size="10" font-family="system-ui, -apple-system, sans-serif">22.1°C</text>
  </g>
  </g>
  <g class="data-point" aria-label="23.0°C">
  <circle cx="488.57" cy="271.87" r="3.0" fill="#4e79a7" class="point"/>
  <g class="tooltip">
  <rect x="496.57" y="251.87" width="60.00" height="18.00" fill="white" stroke="#ccc" rx="3"/>
  <text x="500.57" y="264.87" fill="#333333" font-size="10" font-family="system-ui, -apple-system, sans-serif">23.0°C</text>
  </g>
  </g>
  <g class="data-point" aria-label="22.5°C">
  <circle cx="522.86" cy="273.58" r="3.0" fill="#4e79a7" class="point"/>
  <g class="tooltip">
  <rect x="530.86" y="253.58" width="60.00" height="18.00" fill="white" stroke="#ccc" rx="3"/>
  <text x="534.86" y="266.58" fill="#333333" font-size="10" font-family="system-ui, -apple-system, sans-serif">22.5°C</text>
  </g>
  </g>
  <g class="data-point" aria-label="21.3°C">
  <circle cx="557.14" cy="277.67" r="3.0" fill="#4e79a7" class="point"/>
  <g class="tooltip">
  <rect x="565.14" y="257.67" width="60.00" height="18.00" fill="white" stroke="#ccc" rx="3"/>
  <text x="569.14" y="270.67" fill="#333333" font-size="10" font-family="system-ui, -apple-system, sans-serif">21.3°C</text>
  </g>
  </g>
  <g class="data-point" aria-label="19.7°C">
  <circle cx="591.43" cy="283.14" r="3.0" fill="#4e79a7" class="point"/>
  <g class="tooltip">
  <rect x="599.43" y="263.14" width="60.00" height="18.00" fill="white" stroke="#ccc" rx="3"/>
  <text x="603.43" y="276.14" fill="#333333" font-size="10" font-family="system-ui, -apple-system, sans-serif">19.7°C</text>
  </g>
  </g>
  <g class="data-point" aria-label="17.4°C">
  <circle cx="625.71" cy="290.99" r="3.0" fill="#4e79a7" class="point"/>
  <g class="tooltip">
  <rect x="633.71" y="270.99" width="60.00" height="18.00" fill="white" stroke="#ccc" rx="3"/>
  <text x="637.71" y="283.99" fill="#333333" font-size="10" font-family="system-ui, -apple-system, sans-serif">17.4°C</text>
  </g>
  </g>
  <g class="data-point" aria-label="15.6°C">
  <circle cx="660.00" cy="297.13" r="3.0" fill="#4e79a7" class="point"/>
  <g class="tooltip">
  <rect x="668.00" y="277.13" width="60.00" height="18.00" fill="white" stroke="#ccc" rx="3"/>
  <text x="672.00" y="290.13" fill="#333333" font-size="10" font-family="system-ui, -apple-system, sans-serif">15.6°C</text>
  </g>
  </g>
  <g class="data-point" aria-label="14.0°C">
  <circle cx="694.29" cy="302.59" r="3.0" fill="#4e79a7" class="point"/>
  <g class="tooltip">
  <rect x="702.29" y="282.59" width="60.00" height="18.00" fill="white" stroke="#ccc" rx="3"/>
  <text x="706.29" y="295.59" fill="#333333" font-size="10" font-family="system-ui, -apple-system, sans-serif">14.0°C</text>
  </g>
  </g>
  <g class="data-point" aria-label="12.3°C">
  <circle cx="728.57" cy="308.39" r="3.0" fill="#4e79a7" class="point"/>
  <g class="tooltip">
  <rect x="736.57" y="288.39" width="60.00" height="18.00" fill="white" stroke="#ccc" rx="3"/>
  <text x="740.57" y="301.39" fill="#333333" font-size="10" font-family="system-ui, -apple-system, sans-serif">12.3°C</text>
  </g>
  </g>
  <g class="data-point" aria-label="11.5°C">
  <circle cx="762.86" cy="311.13" r="3.0" fill="#4e79a7" class="point"/>
  <g class="tooltip">
  <rect x="770.86" y="291.13" width="60.00" height="18.00" fill="white" stroke="#ccc" rx="3"/>
  <text x="774.86" y="304.13" fill="#333333" font-size="10" font-family="system-ui, -apple-system, sans-serif">11.5°C</text>
  </g>
  </g>
  </g>
  <g class="series-1">
  <path d="M77.14,70.48 C82.86,68.77 100.00,63.65 111.43,60.24 C122.86,56.83 134.29,49.43 145.71,50.00 C157.14,50.57 168.57,54.55 180.00,63.65 C191.43,72.76 202.86,89.82 214.29,104.61 C225.71,119.41 237.14,139.89 248.57,152.40 C260.00,164.92 271.43,172.31 282.86,179.71 C294.29,187.10 305.71,195.64 317.14,196.78 C328.57,197.91 340.00,192.23 351.43,186.54 C362.86,180.85 374.29,172.31 385.71,162.64 C397.14,152.97 408.57,140.46 420.00,128.51 C431.43,116.56 442.86,99.49 454.29,90.96 C465.71,82.43 482.86,79.58 488.57,77.31" fill="none" stroke="#f28e2b" stroke-width="2" class="line"/>
  <g class="data-point" aria-label="82%">
  <circle cx="77.14" cy="70.48" r="3.0" fill="#f28e2b" class="point"/>
  <g class="tooltip">
  <rect x="85.14" y="50.48" width="60.00" height="18.00" fill="white" stroke="#ccc" rx="3"/>
  <text x="89.14" y="63.48" fill="#333333" font-size="10" font-family="system-ui, -apple-system, sans-serif">82%</text>
  </g>
  </g>
  <g class="data-point" aria-label="85%">
  <circle cx="111.43" cy="60.24" r="3.0" fill="#f28e2b" class="point"/>
  <g class="tooltip">
  <rect x="119.43" y="40.24" width="60.00" height="18.00" fill="white" stroke="#ccc" rx="3"/>
  <text x="123.43" y="53.24" fill="#333333" font-size="10" font-family="system-ui, -apple-system, sans-serif">85%</text>
  </g>
  </g>
  <g class="data-point" aria-label="88%">
  <circle cx="145.71" cy="50.00" r="3.0" fill="#f28e2b" class="point"/>
  <g class="tooltip">
  <rect x="153.71" y="30.00" width="60.00" height="18.00" fill="white" stroke="#ccc" rx="3"/>
  <text x="157.71" y="43.00" fill="#333333" font-size="10" font-family="system-ui, -apple-system, sans-serif">88%</text>
  </g>
  </g>
  <g class="data-point" aria-label="84%">
  <circle cx="180.00" cy="63.65" r="3.0" fill="#f28e2b" class="point"/>
  <g class="tooltip">
  <rect x="188.00" y="43.65" width="60.00" height="18.00" fill="white" stroke="#ccc" rx="3"/>
  <text x="192.00" y="56.65" fill="#333333" font-size="10" font-family="system-ui, -apple-system, sans-serif">84%</text>
  </g>
  </g>
  <g class="data-point" aria-label="72%">
  <circle cx="214.29" cy="104.61" r="3.0" fill="#f28e2b" class="point"/>
  <g class="tooltip">
  <rect x="222.29" y="84.61" width="60.00" height="18.00" fill="white" stroke="#ccc" rx="3"/>
  <text x="226.29" y="97.61" fill="#333333" font-size="10" font-family="system-ui, -apple-system, sans-serif">72%</text>
  </g>
  </g>
  <g class="data-point" aria-label="58%">
  <circle cx="248.57" cy="152.40" r="3.0" fill="#f28e2b" class="point"/>
  <g class="tooltip">
  <rect x="256.57" y="132.40" width="60.00" height="18.00" fill="white" stroke="#ccc" rx="3"/>
  <text x="260.57" y="145.40" fill="#333333" font-size="10" font-family="system-ui, -apple-system, sans-serif">58%</text>
  </g>
  </g>
  <g class="data-point" aria-label="50%">
  <circle cx="282.86" cy="179.71" r="3.0" fill="#f28e2b" class="point"/>
  <g class="tooltip">
  <rect x="290.86" y="159.71" width="60.00" height="18.00" fill="white" stroke="#ccc" rx="3"/>
  <text x="294.86" y="172.71" fill="#333333" font-size="10" font-family="system-ui, -apple-system, sans-serif">50%</text>
  </g>
  </g>
  <g class="data-point" aria-label="45%">
  <circle cx="317.14" cy="196.78" r="3.0" fill="#f28e2b" class="point"/>
  <g class="tooltip">
  <rect x="325.14" y="176.78" width="60.00" height="18.00" fill="white" stroke="#ccc" rx="3"/>
  <text x="329.14" y="189.78" fill="#333333" font-size="10" font-family="system-ui, -apple-system, sans-serif">45%</text>
  </g>
  </g>
  <g class="data-point" aria-label="48%">
  <circle cx="351.43" cy="186.54" r="3.0" fill="#f28e2b" class="point"/>
  <g class="tooltip">
  <rect x="359.43" y="166.54" width="60.00" height="18.00" fill="white" stroke="#ccc" rx="3"/>
  <text x="363.43" y="179.54" fill="#333333" font-size="10" font-family="system-ui, -apple-system, sans-serif">48%</text>
  </g>
  </g>
  <g class="data-point" aria-label="55%">
  <circle cx="385.71" cy="162.64" r="3.0" fill="#f28e2b" class="point"/>
  <g class="tooltip">
  <rect x="393.71" y="142.64" width="60.00" height="18.00" fill="white" stroke="#ccc" rx="3"/>
  <text x="397.71" y="155.64" fill="#333333" font-size="10" font-family="system-ui, -apple-system, sans-serif">55%</text>
  </g>
  </g>
  <g class="data-point" aria-label="65%">
  <circle cx="420.00" cy="128.51" r="3.0" fill="#f28e2b" class="point"/>
  <g class="tooltip">
  <rect x="428.00" y="108.51" width="60.00" height="18.00" fill="white" stroke="#ccc" rx="3"/>
  <text x="432.00" y="121.51" fill="#333333" font-size="10" font-family="system-ui, -apple-system, sans-serif">65%</text>
  </g>
  </g>
  <g class="data-point" aria-label="76%">
  <circle cx="454.29" cy="90.96" r="3.0" fill="#f28e2b" class="point"/>
  <g class="tooltip">
  <rect x="462.29" y="70.96" width="60.00" height="18.00" fill="white" stroke="#ccc" rx="3"/>
  <text x="466.29" y="83.96" fill="#333333" font-size="10" font-family="system-ui, -apple-system, sans-serif">76%</text>
  </g>
  </g>
  <g class="data-point" aria-label="80%">
  <circle cx="488.57" cy="77.31" r="3.0" fill="#f28e2b" class="point"/>
  <g class="tooltip">
  <rect x="496.57" y="57.31" width="60.00" height="18.00" fill="white" stroke="#ccc" rx="3"/>
  <text x="500.57" y="70.31" fill="#333333" font-size="10" font-family="system-ui, -apple-system, sans-serif">80%</text>
  </g>
  </g>
  </g>
  <g class="legend">
  <rect x="60.00" y="375.00" width="12.00" height="12.00" fill="#4e79a7"/>
  <text x="76.00" y="386.00" fill="#333333" font-size="12" font-family="system-ui, -apple-system, sans-serif">Temperature (°C)</text>
  <rect x="226.00" y="375.00" width="12.00" height="12.00" fill="#f28e2b"/>
  <text x="242.00" y="386.00" fill="#333333" font-size="12" font-family="system-ui, -apple-system, sans-serif">Humidity (%)</text>
  </g>
</svg>
