<svg xmlns="http://www.w3.org/2000/svg" viewBox="0 0 800 400" role="img" aria-labelledby="chart-title">
  <title id="chart-title">Weather — Ordinal Axis</title>
  <desc>Chart: Weather — Ordinal Axis</desc>
  <style>
    .tooltip { display: none; pointer-events: none; }
    .data-point:hover .tooltip { display: block; }
    .point { transition: r 0.15s; }
    .data-point:hover .point { r: 5; }
    .line { transition: stroke-width 0.2s; }
  </style>
  <rect x="0.00" y="0.00" width="800.00" height="400.00" fill="#ffffff"/>
  <g class="grid">
  <line x1="60.00" y1="282.11" x2="780.00" y2="282.11" stroke="#e0e0e0" stroke-width="0.5"/>
  <line x1="60.00" y1="213.84" x2="780.00" y2="213.84" stroke="#e0e0e0" stroke-width="0.5"/>
  <line x1="60.00" y1="145.58" x2="780.00" y2="145.58" stroke="#e0e0e0" stroke-width="0.5"/>
  <line x1="60.00" y1="77.31" x2="780.00" y2="77.31" stroke="#e0e0e0" stroke-width="0.5"/>
  </g>
  <g class="y-axis">
  <line x1="60.00" y1="50.00" x2="60.00" y2="320.00" stroke="#666666" stroke-width="1"/>
  <line x1="56.00" y1="282.11" x2="60.00" y2="282.11" stroke="#666666" stroke-width="1"/>
  <text x="52.00" y="286.11" text-anchor="end" fill="#333333" font-size="12" font-family="system-ui, -apple-system, sans-serif">20</text>
  <line x1="56.00" y1="213.84" x2="60.00" y2="213.84" stroke="#666666" stroke-width="1"/>
  <text x="52.00" y="217.84" text-anchor="end" fill="#333333" font-size="12" font-family="system-ui, -apple-system, sans-serif">40</text>
  <line x1="56.00" y1="145.58" x2="60.00" y2="145.58" stroke="#666666" stroke-width="1"/>
  <text x="52.00" y="149.58" text-anchor="end" fill="#333333" font-size="12" font-family="system-ui, -apple-system, sans-serif">60</text>
  <line x1="56.00" y1="77.31" x2="60.00" y2="77.31" stroke="#666666" stroke-width="1"/>
  <text x="52.00" y="81.31" text-anchor="end" fill="#333333" font-size="12" font-family="system-ui, -apple-system, sans-serif">80</text>
  </g>
  <g class="x-axis">
  <line x1="60.00" y1="320.00" x2="780.00" y2="320.00" stroke="#666666" stroke-width="1"/>
  <line x1="70.59" y1="320.00" x2="70.59" y2="324.00" stroke="#666666" stroke-width="1"/>
  <text x="70.59" y="336.00" text-anchor="middle" fill="#333333" font-size="12" font-family="system-ui, -apple-system, sans-serif">11.2°C</text>
  <line x1="91.76" y1="320.00" x2="91.76" y2="324.00" stroke="#666666" stroke-width="1"/>
  <text x="91.76" y="336.00" text-anchor="middle" fill="#333333" font-size="12" font-family="system-ui, -apple-system, sans-serif">10.4°C</text>
  <line x1="112.94" y1="320.00" x2="112.94" y2="324.00" stroke="#666666" stroke-width="1"/>
  <text x="112.94" y="336.00" text-anchor="middle" fill="#333333" font-size="12" font-family="system-ui, -apple-system, sans-serif">9.7°C</text>
  <line x1="134.12" y1="320.00" x2="134.12" y2="324.00" stroke="#666666" stroke-width="1"/>
  <text x="134.12" y="336.00" text-anchor="middle" fill="#333333" font-size="12" font-family="system-ui, -apple-system, sans-serif">8.9°C</text>
  <line x1="155.29" y1="320.00" x2="155.29" y2="324.00" stroke="#666666" stroke-width="1"/>
  <text x="155.29" y="336.00" text-anchor="middle" fill="#333333" font-size="12" font-family="system-ui, -apple-system, sans-serif">9.1°C</text>
  <line x1="176.47" y1="320.00" x2="176.47" y2="324.00" stroke="#666666" stroke-width="1"/>
  <text x="176.47" y="336.00" text-anchor="middle" fill="#333333" font-size="12" font-family="system-ui, -apple-system, sans-serif">10.8°C</text>
  <line x1="197.65" y1="320.00" x2="197.65" y2="324.00" stroke="#666666" stroke-width="1"/>
  <text x="197.65" y="336.00" text-anchor="middle" fill="#333333" font-size="12" font-family="system-ui, -apple-system, sans-serif">12.5°C</text>
  <line x1="218.82" y1="320.00" x2="218.82" y2="324.00" stroke="#666666" stroke-width="1"/>
  <text x="218.82" y="336.00" text-anchor="middle" fill="#333333" font-size="12" font-family="system-ui, -apple-system, sans-serif">14.8°C</text>
  <line x1="240.00" y1="320.00" x2="240.00" y2="324.00" stroke="#666666" stroke-width="1"/>
  <text x="240.00" y="336.00" text-anchor="middle" fill="#333333" font-size="12" font-family="system-ui, -apple-system, sans-serif">17.2°C</text>
  <line x1="261.18" y1="320.00" x2="261.18" y2="324.00" stroke="#666666" stroke-width="1"/>
  <text x="261.18" y="336.00" text-anchor="middle" fill="#333333" font-size="12" font-family="system-ui, -apple-system, sans-serif">19.0°C</text>
  <line x1="282.35" y1="320.00" x2="282.35" y2="324.00" stroke="#666666" stroke-width="1"/>
  <text x="282.35" y="336.00" text-anchor="middle" fill="#333333" font-size="12" font-family="system-ui, -apple-system, sans-serif">20.6°C</text>
  <line x1="303.53" y1="320.00" x2="303.53" y2="324.00" stroke="#666666" stroke-width="1"/>
  <text x="303.53" y="336.00" text-anchor="middle" fill="#333333" font-size="12" font-family="system-ui, -apple-system, sans-serif">22.1°C</text>
  <line x1="324.71" y1="320.00" x2="324.71" y2="324.00" stroke="#666666" stroke-width="1"/>
  <text x="324.71" y="336.00" text-anchor="middle" fill="#333333" font-size="12" font-family="system-ui, -apple-system, sans-serif">23.0°C</text>
  <line x1="345.88" y1="320.00" x2="345.88" y2="324.00" stroke="#666666" stroke-width="1"/>
  <text x="345.88" y="336.00" text-anchor="middle" fill="#333333" font-size="12" font-family="system-ui, -apple-system, sans-serif">22.5°C</text>
  <line x1="367.06" y1="320.00" x2="367.06" y2="324.00" stroke="#666666" stroke-width="1"/>
  <text x="367.06" y="336.00" text-anchor="middle" fill="#333333" font-size="12" font-family="system-ui, -apple-system, sans-serif">21.3°C</text>
  <line x1="388.24" y1="320.00" x2="388.24" y2="324.00" stroke="#666666" stroke-width="1"/>
  <text x="388.24" y="336.00" text-anchor="middle" fill="#333333" font-size="12" font-family="system-ui, -apple-system, sans-serif">19.7°C</text>
  <line x1="409.41" y1="320.00" x2="409.41" y2="324.00" stroke="#666666" stroke-width="1"/>
  <text x="409.41" y="336.00" text-anchor="middle" fill="#333333" font-size="12" font-family="system-ui, -apple-system, sans-serif">17.4°C</text>
  <line x1="430.59" y1="320.00" x2="430.59" y2="324.00" stroke="#666666" stroke-width="1"/>
  <text x="430.59" y="336.00" text-anchor="middle" fill="#333333" font-size="12" font-family="system-ui, -apple-system, sans-serif">15.6°C</text>
  <line x1="451.76" y1="320.00" x2="451.76" y2="324.00" stroke="#666666" stroke-width="1"/>
  <text x="451.76" y="336.00" text-anchor="middle" fill="#333333" font-size="12" font-family="system-ui, -apple-system, sans-serif">14.0°C</text>
  <line x1="472.94" y1="320.00" x2="472.94" y2="324.00" stroke="#666666" stroke-width="1"/>
  <text x="472.94" y="336.00" text-anchor="middle" fill="#333333" font-size="12" font-family="system-ui, -apple-system, sans-serif">12.3°C</text>
  <line x1="494.12" y1="320.00" x2="494.12" y2="324.00" stroke="#666666" stroke-width="1"/>
  <text x="494.12" y="336.00" text-anchor="middle" fill="#333333" font-size="12" font-family="system-ui, -apple-system, sans-serif">11.5°C</text>
  <line x1="515.29" y1="320.00" x2="515.29" y2="324.00" stroke="#666666" stroke-width="1"/>
  <text x="515.29" y="336.00" text-anchor="middle" fill="#333333" font-size="12" font-family="system-ui, -apple-system, sans-serif">82%</text>
  <line x1="536.47" y1="320.00" x2="536.47" y2="324.00" stroke="#666666" stroke-width="1"/>
  <text x="536.47" y="336.00" text-anchor="middle" fill="#333333" font-size="12" font-family="system-ui, -apple-system, sans-serif">85%</text>
  <line x1="557.65" y1="320.00" x2="557.65" y2="324.00" stroke="#666666" stroke-width="1"/>
  <text x="557.65" y="336.00" text-anchor="middle" fill="#333333" font-size="12" font-family="system-ui, -apple-system, sans-serif">88%</text>
  <line x1="578.82" y1="320.00" x2="578.82" y2="324.00" stroke="#666666" stroke-width="1"/>
  <text x="578.82" y="336.00" text-anchor="middle" fill="#333333" font-size="12" font-family="system-ui, -apple-system, sans-serif">84%</text>
  <line x1="600.00" y1="320.00" x2="600.00" y2="324.00" stroke="#666666" stroke-width="1"/>
  <text x="600.00" y="336.00" text-anchor="middle" fill="#333333" font-size="12" font-family="system-ui, -apple-system, sans-serif">72%</text>
  <line x1="621.18" y1="320.00" x2="621.18" y2="324.00" stroke="#666666" stroke-width="1"/>
  <text x="621.18" y="336.00" text-anchor="middle" fill="#333333" font-size="12" font-family="system-ui, -apple-system, sans-serif">58%</text>
  <line x1="642.35" y1="320.00" x2="642.35" y2="324.00" stroke="#666666" stroke-width="1"/>
  <text x="642.35" y="336.00" text-anchor="middle" fill="#333333" font-size="12" font-family="system-ui, -apple-system, sans-serif">50%</text>
  <line x1="663.53" y1="320.00" x2="663.53" y2="324.00" stroke="#666666" stroke-width="1"/>
  <text x="663.53" y="336.00" text-anchor="middle" fill="#333333" font-size="12" font-family="system-ui, -apple-system, sans-serif">45%</text>
  <line x1="684.71" y1="320.00" x2="684.71" y2="324.00" stroke="#666666" stroke-width="1"/>
  <text x="684.71" y="336.00" text-anchor="middle" fill="#333333" font-size="12" font-family="system-ui, -apple-system, sans-serif">48%</text>
  <line x1="705.88" y1="320.00" x2="705.88" y2="324.00" stroke="#666666" stroke-width="1"/>
  <text x="705.88" y="336.00" text-anchor="middle" fill="#333333" font-size="12" font-family="system-ui, -apple-system, sans-serif">55%</text>
  <line x1="727.06" y1="320.00" x2="727.06" y2="324.00" stroke="#666666" stroke-width="1"/>
  <text x="727.06" y="336.00" text-anchor="middle" fill="#333333" font-size="12" font-family="system-ui, -apple-system, sans-serif">65%</text>
  <line x1="748.24" y1="320.00" x2="748.24" y2="324.00" stroke="#666666" stroke-width="1"/>
  <text x="748.24" y="336.00" text-anchor="middle" fill="#333333" font-size="12" font-family="system-ui, -apple-system, sans-serif">76%</text>
  <line x1="769.41" y1="320.00" x2="769.41" y2="324.00" stroke="#666666" stroke-width="1"/>
  <text x="769.41" y="336.00" text-anchor="middle" fill="#333333" font-size="12" font-family="system-ui, -apple-system, sans-serif">80%</text>
  </g>
  <text x="400.00" y="30.00" text-anchor="middle" fill="#333333" font-size="16" font-weight="bold" font-family="system-ui, -apple-system, sans-serif">Weather — Ordinal Axis</text>
  <g class="series-0">
  <path d="M36389850423.53,312.15 C36389867364.71,312.60 36389916070.59,314.03 36389952070.59,314.88 C36389988070.59,315.73 36390030423.53,316.42 36390066423.53,317.27 C36390102423.53,318.12 36390134188.24,319.66 36390168070.59,320.00 C36390201952.94,320.34 36390236894.12,320.40 36390269717.65,319.32 C36390302541.18,318.24 36390342776.47,315.45 36390365011.76,313.51 C36390387247.06,311.58 36390378776.47,309.99 36390403129.41,307.71 C36390427482.35,305.44 36390478305.88,302.53 36390511129.41,299.86 C36390543952.94,297.19 36390576776.47,294.06 36390600070.59,291.67 C36390623364.71,289.28 36390633952.94,287.46 36390650894.12,285.52 C36390667835.29,283.59 36390677364.71,281.83 36390701717.65,280.06 C36390726070.59,278.30 36390765247.06,276.31 36390797011.76,274.94 C36390828776.47,273.58 36390869011.76,272.10 36390892305.88,271.87 C36390915600.00,271.64 36390913482.35,272.61 36390936776.47,273.58 C36390960070.59,274.54 36390999247.06,276.08 36391032070.59,277.67 C36391064894.12,279.27 36391101952.94,280.92 36391133717.65,283.14 C36391165482.35,285.35 36391190894.12,288.65 36391222658.82,290.99 C36391254423.53,293.32 36391290423.53,295.20 36391324305.88,297.13 C36391358188.24,299.06 36391392070.59,300.71 36391425952.94,302.59 C36391459835.29,304.47 36391491600.00,306.97 36391527600.00,308.39 C36391563600.00,309.82 36391622894.12,310.67 36391641952.94,311.13" fill="none" stroke="#4e79a7" stroke-width="2" class="line"/>
  <g class="data-point" aria-label="11.2°C">
  <circle cx="36389850423.53" cy="312.15" r="3.0" fill="#4e79a7" class="point"/>
  <g class="tooltip">
  <rect x="36389850431.53" y="292.15" width="60.00" height="18.00" fill="white" stroke="#ccc" rx="3"/>
  <text x="36389850435.53" y="305.15" fill="#333333" font-size="10" font-family="system-ui, -apple-system, sans-serif">11.2°C</text>
  </g>
  </g>
  <g class="data-point" aria-label="10.4°C">
  <circle cx="36389952070.59" cy="314.88" r="3.0" fill="#4e79a7" class="point"/>
  <g class="tooltip">
  <rect x="36389952078.59" y="294.88" width="60.00" height="18.00" fill="white" stroke="#ccc" rx="3"/>
  <text x="36389952082.59" y="307.88" fill="#333333" font-size="10" font-family="system-ui, -apple-system, sans-serif">10.4°C</text>
  </g>
  </g>
  <g class="data-point" aria-label="9.7°C">
  <circle cx="36390066423.53" cy="317.27" r="3.0" fill="#4e79a7" class="point"/>
  <g class="tooltip">
  <rect x="36390066431.53" y="297.27" width="60.00" height="18.00" fill="white" stroke="#ccc" rx="3"/>
  <text x="36390066435.53" y="310.27" fill="#333333" font-size="10" font-family="system-ui, -apple-system, sans-serif">9.7°C</text>
  </g>
  </g>
  <g class="data-point" aria-label="8.9°C">
  <circle cx="36390168070.59" cy="320.00" r="3.0" fill="#4e79a7" class="point"/>
  <g class="tooltip">
  <rect x="36390168078.59" y="300.00" width="60.00" height="18.00" fill="white" stroke="#ccc" rx="3"/>
  <text x="36390168082.59" y="313.00" fill="#333333" font-size="10" font-family="system-ui, -apple-system, sans-serif">8.9°C</text>
  </g>
  </g>
  <g class="data-point" aria-label="9.1°C">
  <circle cx="36390269717.65" cy="319.32" r="3.0" fill="#4e79a7" class="point"/>
  <g class="tooltip">
  <rect x="36390269725.65" y="299.32" width="60.00" height="18.00" fill="white" stroke="#ccc" rx="3"/>
  <text x="36390269729.65" y="312.32" fill="#333333" font-size="10" font-family="system-ui, -apple-system, sans-serif">9.1°C</text>
  </g>
  </g>
  <g class="data-point" aria-label="10.8°C">
  <circle cx="36390365011.76" cy="313.51" r="3.0" fill="#4e79a7" class="point"/>
  <g class="tooltip">
  <rect x="36390365019.76" y="293.51" width="60.00" height="18.00" fill="white" stroke="#ccc" rx="3"/>
  <text x="36390365023.76" y="306.51" fill="#333333" font-size="10" font-family="system-ui, -apple-system, sans-serif">10.8°C</text>
  </g>
  </g>
  <g class="data-point" aria-label="12.5°C">
  <circle cx="36390403129.41" cy="307.71" r="3.0" fill="#4e79a7" class="point"/>
  <g class="tooltip">
  <rect x="36390403137.41" y="287.71" width="60.00" height="18.00" fill="white" stroke="#ccc" rx="3"/>
  <text x="36390403141.41" y="300.71" fill="#333333" font-size="10" font-family="system-ui, -apple-system, sans-serif">12.5°C</text>
  </g>
  </g>
  <g class="data-point" aria-label="14.8°C">
  <circle cx="36390511129.41" cy="299.86" r="3.0" fill="#4e79a7" class="point"/>
  <g class="tooltip">
  <rect x="36390511137.41" y="279.86" width="60.00" height="18.00" fill="white" stroke="#ccc" rx="3"/>
  <text x="36390511141.41" y="292.86" fill="#333333" font-size="10" font-family="system-ui, -apple-system, sans-serif">14.8°C</text>
  </g>
  </g>
  <g class="data-point" aria-label="17.2°C">
  <circle cx="36390600070.59" cy="291.67" r="3.0" fill="#4e79a7" class="point"/>
  <g class="tooltip">
  <rect x="36390600078.59" y="271.67" width="60.00" height="18.00" fill="white" stroke="#ccc" rx="3"/>
  <text x="36390600082.59" y="284.67" fill="#333333" font-size="10" font-family="system-ui, -apple-system, sans-serif">17.2°C</text>
  </g>
  </g>
  <g class="data-point" aria-label="19.0°C">
  <circle cx="36390650894.12" cy="285.52" r="3.0" fill="#4e79a7" class="point"/>
  <g class="tooltip">
  <rect x="36390650902.12" y="265.52" width="60.00" height="18.00" fill="white" stroke="#ccc" rx="3"/>
  <text x="36390650906.12" y="278.52" fill="#333333" font-size="10" font-family="system-ui, -apple-system, sans-serif">19.0°C</text>
  </g>
  </g>
  <g class="data-point" aria-label="20.6°C">
  <circle cx="36390701717.65" cy="280.06" r="3.0" fill="#4e79a7" class="point"/>
  <g class="tooltip">
  <rect x="36390701725.65" y="260.06" width="60.00" height="18.00" fill="white" stroke="#ccc" rx="3"/>
  <text x="36390701729.65" y="273.06" fill="#333333" font-size="10" font-family="system-ui, -apple-system, sans-serif">20.6°C</text>
  </g>
  </g>
  <g class="data-point" aria-label="22.1°C">
  <circle cx="36390797011.76" cy="274.94" r="3.0" fill="#4e79a7" class="point"/>
  <g class="tooltip">
  <rect x="36390797019.76" y="254.94" width="60.00" height="18.00" fill="white" stroke="#ccc" rx="3"/>
  <text x="36390797023.76" y="267.94" fill="#333333" font-size="10" font-family="system-ui, -apple-system, sans-serif">22.1°C</text>
  </g>
  </g>
  <g class="data-point" aria-label="23.0°C">
  <circle cx="36390892305.88" cy="271.87" r="3.0" fill="#4e79a7" class="point"/>
  <g class="tooltip">
  <rect x="36390892313.88" y="251.87" width="60.00" height="18.00" fill="white" stroke="#ccc" rx="3"/>
  <text x="36390892317.88" y="264.87" fill="#333333" font-size="10" font-family="system-ui, -apple-system, sans-serif">23.0°C</text>
  </g>
  </g>
  <g class="data-point" aria-label="22.5°C">
  <circle cx="36390936776.47" cy="273.58" r="3.0" fill="#4e79a7" class="point"/>
  <g class="tooltip">
  <rect x="36390936784.47" y="253.58" width="60.00" height="18.00" fill="white" stroke="#ccc" rx="3"/>
  <text x="36390936788.47" y="266.58" fill="#333333" font-size="10" font-family="system-ui, -apple-system, sans-serif">22.5°C</text>
  </g>
  </g>
  <g class="data-point" aria-label="21.3°C">
  <circle cx="36391032070.59" cy="277.67" r="3.0" fill="#4e79a7" class="point"/>
  <g class="tooltip">
  <rect x="36391032078.59" y="257.67" width="60.00" height="18.00" fill="white" stroke="#ccc" rx="3"/>
  <text x="36391032082.59" y="270.67" fill="#333333" font-size="10" font-family="system-ui, -apple-system, sans-serif">21.3°C</text>
  </g>
  </g>
  <g class="data-point" aria-label="19.7°C">
  <circle cx="36391133717.65" cy="283.14" r="3.0" fill="#4e79a7" class="point"/>
  <g class="tooltip">
  <rect x="36391133725.65" y="263.14" width="60.00" height="18.00" fill="white" stroke="#ccc" rx="3"/>
  <text x="36391133729.65" y="276.14" fill="#333333" font-size="10" font-family="system-ui, -apple-system, sans-serif">19.7°C</text>
  </g>
  </g>
  <g class="data-point" aria-label="17.4°C">
  <circle cx="36391222658.82" cy="290.99" r="3.0" fill="#4e79a7" class="point"/>
  <g class="tooltip">
  <rect x="36391222666.82" y="270.99" width="60.00" height="18.00" fill="white" stroke="#ccc" rx="3"/>
  <text x="36391222670.82" y="283.99" fill="#333333" font-size="10" font-family="system-ui, -apple-system, sans-serif">17.4°C</text>
  </g>
  </g>
  <g class="data-point" aria-label="15.6°C">
  <circle cx="36391324305.88" cy="297.13" r="3.0" fill="#4e79a7" class="point"/>
  <g class="tooltip">
  <rect x="36391324313.88" y="277.13" width="60.00" height="18.00" fill="white" stroke="#ccc" rx="3"/>
  <text x="36391324317.88" y="290.13" fill="#333333" font-size="10" font-family="system-ui, -apple-system, sans-serif">15.6°C</text>
  </g>
  </g>
  <g class="data-point" aria-label="14.0°C">
  <circle cx="36391425952.94" cy="302.59" r="3.0" fill="#4e79a7" class="point"/>
  <g class="tooltip">
  <rect x="36391425960.94" y="282.59" width="60.00" height="18.00" fill="white" stroke="#ccc" rx="3"/>
  <text x="36391425964.94" y="295.59" fill="#333333" font-size="10" font-family="system-ui, -apple-system, sans-serif">14.0°C</text>
  </g>
  </g>
  <g class="data-point" aria-label="12.3°C">
  <circle cx="36391527600.00" cy="308.39" r="3.0" fill="#4e79a7" class="point"/>
  <g class="tooltip">
  <rect x="36391527608.00" y="288.39" width="60.00" height="18.00" fill="white" stroke="#ccc" rx="3"/>
  <text x="36391527612.00" y="301.39" fill="#333333" font-size="10" font-family="system-ui, -apple-system, sans-serif">12.3°C</text>
  </g>
  </g>
  <g class="data-point" aria-label="11.5°C">
  <circle cx="36391641952.94" cy="311.13" r="3.0" fill="#4e79a7" class="point"/>
  <g class="tooltip">
  <rect x="36391641960.94" y="291.13" width="60.00" height="18.00" fill="white" stroke="#ccc" rx="3"/>
  <text x="36391641964.94" y="304.13" fill="#333333" font-size="10" font-family="system-ui, -apple-system, sans-serif">11.5°C</text>
  </g>
  </g>
  </g>
  <g class="series-1">
  <path d="M36389850423.53,70.48 C36389882188.24,68.77 36389980658.82,63.65 36390041011.76,60.24 C36390101364.71,56.83 36390161717.65,49.43 36390212541.18,50.00 C36390263364.71,50.57 36390301482.35,54.55 36390345952.94,63.65 C36390390423.53,72.76 36390434894.12,89.82 36390479364.71,104.61 C36390523835.29,119.41 36390571482.35,139.89 36390612776.47,152.40 C36390654070.59,164.92 36390689011.76,172.31 36390727129.41,179.71 C36390765247.06,187.10 36390797011.76,195.64 36390841482.35,196.78 C36390885952.94,197.91 36390943129.41,192.23 36390993952.94,186.54 C36391044776.47,180.85 36391095600.00,172.31 36391146423.53,162.64 C36391197247.06,152.97 36391241717.65,140.46 36391298894.12,128.51 C36391356070.59,116.56 36391438658.82,99.49 36391489482.35,90.96 C36391540305.88,82.43 36391584776.47,79.58 36391603835.29,77.31" fill="none" stroke="#f28e2b" stroke-width="2" class="line"/>
  <g class="data-point" aria-label="82%">
  <circle cx="36389850423.53" cy="70.48" r="3.0" fill="#f28e2b" class="point"/>
  <g class="tooltip">
  <rect x="36389850431.53" y="50.48" width="60.00" height="18.00" fill="white" stroke="#ccc" rx="3"/>
  <text x="36389850435.53" y="63.48" fill="#333333" font-size="10" font-family="system-ui, -apple-system, sans-serif">82%</text>
  </g>
  </g>
  <g class="data-point" aria-label="85%">
  <circle cx="36390041011.76" cy="60.24" r="3.0" fill="#f28e2b" class="point"/>
  <g class="tooltip">
  <rect x="36390041019.76" y="40.24" width="60.00" height="18.00" fill="white" stroke="#ccc" rx="3"/>
  <text x="36390041023.76" y="53.24" fill="#333333" font-size="10" font-family="system-ui, -apple-system, sans-serif">85%</text>
  </g>
  </g>
  <g class="data-point" aria-label="88%">
  <circle cx="36390212541.18" cy="50.00" r="3.0" fill="#f28e2b" class="point"/>
  <g class="tooltip">
  <rect x="36390212549.18" y="30.00" width="60.00" height="18.00" fill="white" stroke="#ccc" rx="3"/>
  <text x="36390212553.18" y="43.00" fill="#333333" font-size="10" font-family="system-ui, -apple-system, sans-serif">88%</text>
  </g>
  </g>
  <g class="data-point" aria-label="84%">
  <circle cx="36390345952.94" cy="63.65" r="3.0" fill="#f28e2b" class="point"/>
  <g class="tooltip">
  <rect x="36390345960.94" y="43.65" width="60.00" height="18.00" fill="white" stroke="#ccc" rx="3"/>
  <text x="36390345964.94" y="56.65" fill="#333333" font-size="10" font-family="system-ui, -apple-system, sans-serif">84%</text>
  </g>
  </g>
  <g class="data-point" aria-label="72%">
  <circle cx="36390479364.71" cy="104.61" r="3.0" fill="#f28e2b" class="point"/>
  <g class="tooltip">
  <rect x="36390479372.71" y="84.61" width="60.00" height="18.00" fill="white" stroke="#ccc" rx="3"/>
  <text x="36390479376.71" y="97.61" fill="#333333" font-size="10" font-family="system-ui, -apple-system, sans-serif">72%</text>
  </g>
  </g>
  <g class="data-point" aria-label="58%">
  <circle cx="36390612776.47" cy="152.40" r="3.0" fill="#f28e2b" class="point"/>
  <g class="tooltip">
  <rect x="36390612784.47" y="132.40" width="60.00" height="18.00" fill="white" stroke="#ccc" rx="3"/>
  <text x="36390612788.47" y="145.40" fill="#333333" font-size="10" font-family="system-ui, -apple-system, sans-serif">58%</text>
  </g>
  </g>
  <g class="data-point" aria-label="50%">
  <circle cx="36390727129.41" cy="179.71" r="3.0" fill="#f28e2b" class="point"/>
  <g class="tooltip">
  <rect x="36390727137.41" y="159.71" width="60.00" height="18.00" fill="white" stroke="#ccc" rx="3"/>
  <text x="36390727141.41" y="172.71" fill="#333333" font-size="10" font-family="system-ui, -apple-system, sans-serif">50%</text>
  </g>
  </g>
  <g class="data-point" aria-label="45%">
  <circle cx="36390841482.35" cy="196.78" r="3.0" fill="#f28e2b" class="point"/>
  <g class="tooltip">
  <rect x="36390841490.35" y="176.78" width="60.00" height="18.00" fill="white" stroke="#ccc" rx="3"/>
  <text x="36390841494.35" y="189.78" fill="#333333" font-size="10" font-family="system-ui, -apple-system, sans-serif">45%</text>
  </g>
  </g>
  <g class="data-point" aria-label="48%">
  <circle cx="36390993952.94" cy="186.54" r="3.0" fill="#f28e2b" class="point"/>
  <g class="tooltip">
  <rect x="36390993960.94" y="166.54" width="60.00" height="18.00" fill="white" stroke="#ccc" rx="3"/>
  <text x="36390993964.94" y="179.54" fill="#333333" font-size="10" font-family="system-ui, -apple-system, sans-serif">48%</text>
  </g>
  </g>
  <g class="data-point" aria-label="55%">
  <circle cx="36391146423.53" cy="162.64" r="3.0" fill="#f28e2b" class="point"/>
  <g class="tooltip">
  <rect x="36391146431.53" y="142.64" width="60.00" height="18.00" fill="white" stroke="#ccc" rx="3"/>
  <text x="36391146435.53" y="155.64" fill="#333333" font-size="10" font-family="system-ui, -apple-system, sans-serif">55%</text>
  </g>
  </g>
  <g class="data-point" aria-label="65%">
  <circle cx="36391298894.12" cy="128.51" r="3.0" fill="#f28e2b" class="point"/>
  <g class="tooltip">
  <rect x="36391298902.12" y="108.51" width="60.00" height="18.00" fill="white" stroke="#ccc" rx="3"/>
  <text x="36391298906.12" y="121.51" fill="#333333" font-size="10" font-family="system-ui, -apple-system, sans-serif">65%</text>
  </g>
  </g>
  <g class="data-point" aria-label="76%">
  <circle cx="36391489482.35" cy="90.96" r="3.0" fill="#f28e2b" class="point"/>
  <g class="tooltip">
  <rect x="36391489490.35" y="70.96" width="60.00" height="18.00" fill="white" stroke="#ccc" rx="3"/>
  <text x="36391489494.35" y="83.96" fill="#333333" font-size="10" font-family="system-ui, -apple-system, sans-serif">76%</text>
  </g>
  </g>
  <g class="data-point" aria-label="80%">
  <circle cx="36391603835.29" cy="77.31" r="3.0" fill="#f28e2b" class="point"/>
  <g class="tooltip">
  <rect x="36391603843.29" y="57.31" width="60.00" height="18.00" fill="white" stroke="#ccc" rx="3"/>
  <text x="36391603847.29" y="70.31" fill="#333333" font-size="10" font-family="system-ui, -apple-system, sans-serif">80%</text>
  </g>
  </g>
  </g>
  <g class="legend">
  <rect x="60.00" y="375.00" width="12.00" height="12.00" fill="#4e79a7"/>
  <text x="76.00" y="386.00" fill="#333333" font-size="12" font-family="system-ui, -apple-system, sans-serif">Temperature (°C)</text>
  <rect x="226.00" y="375.00" width="12.00" height="12.00" fill="#f28e2b"/>
  <text x="242.00" y="386.00" fill="#333333" font-size="12" font-family="system-ui, -apple-system, sans-serif">Humidity (%)</text>
  </g>
</svg>
