<svg xmlns="http://www.w3.org/2000/svg" viewBox="0 0 800 400" role="img" aria-labelledby="chart-title">
  <title id="chart-title">Weather — Temporal Axis</title>
  <desc>Chart: Weather — Temporal Axis</desc>
  <style>
    .tooltip { display: none; pointer-events: none; }
    .data-point:hover .tooltip { display: block; }
    .point { transition: r 0.15s; }
    .data-point:hover .point { r: 5; }
    .line { transition: stroke-width 0.2s; }
  </style>
  <rect x="0.00" y="0.00" width="800.00" height="400.00" fill="#ffffff"/>
  <g class="grid">
  <line x1="60.00" y1="282.11" x2="780.00" y2="282.11" stroke="#e0e0e0" stroke-width="0.5"/>
  <line x1="60.00" y1="213.84" x2="780.00" y2="213.84" stroke="#e0e0e0" stroke-width="0.5"/>
  <line x1="60.00" y1="145.58" x2="780.00" y2="145.58" stroke="#e0e0e0" stroke-width="0.5"/>
  <line x1="60.00" y1="77.31" x2="780.00" y2="77.31" stroke="#e0e0e0" stroke-width="0.5"/>
  </g>
  <g class="y-axis">
  <line x1="60.00" y1="50.00" x2="60.00" y2="320.00" stroke="#666666" stroke-width="1"/>
  <line x1="56.00" y1="282.11" x2="60.00" y2="282.11" stroke="#666666" stroke-width="1"/>
  <text x="52.00" y="286.11" text-anchor="end" fill="#333333" font-size="12" font-family="system-ui, -apple-system, sans-serif">20.0</text>
  <line x1="56.00" y1="213.84" x2="60.00" y2="213.84" stroke="#666666" stroke-width="1"/>
  <text x="52.00" y="217.84" text-anchor="end" fill="#333333" font-size="12" font-family="system-ui, -apple-system, sans-serif">40.0</text>
  <line x1="56.00" y1="145.58" x2="60.00" y2="145.58" stroke="#666666" stroke-width="1"/>
  <text x="52.00" y="149.58" text-anchor="end" fill="#333333" font-size="12" font-family="system-ui, -apple-system, sans-serif">60.0</text>
  <line x1="56.00" y1="77.31" x2="60.00" y2="77.31" stroke="#666666" stroke-width="1"/>
  <text x="52.00" y="81.31" text-anchor="end" fill="#333333" font-size="12" font-family="system-ui, -apple-system, sans-serif">80.0</text>
  </g>
  <g class="x-axis">
  <line x1="60.00" y1="320.00" x2="780.00" y2="320.00" stroke="#666666" stroke-width="1"/>
  <line x1="148.51" y1="320.00" x2="148.51" y2="324.00" stroke="#666666" stroke-width="1"/>
  <text x="148.51" y="336.00" text-anchor="middle" fill="#333333" font-size="12" font-family="system-ui, -apple-system, sans-serif">02:53</text>
  <line x1="318.72" y1="320.00" x2="318.72" y2="324.00" stroke="#666666" stroke-width="1"/>
  <text x="318.72" y="336.00" text-anchor="middle" fill="#333333" font-size="12" font-family="system-ui, -apple-system, sans-serif">08:26</text>
  <line x1="488.94" y1="320.00" x2="488.94" y2="324.00" stroke="#666666" stroke-width="1"/>
  <text x="488.94" y="336.00" text-anchor="middle" fill="#333333" font-size="12" font-family="system-ui, -apple-system, sans-serif">14:00</text>
  <line x1="659.15" y1="320.00" x2="659.15" y2="324.00" stroke="#666666" stroke-width="1"/>
  <text x="659.15" y="336.00" text-anchor="middle" fill="#333333" font-size="12" font-family="system-ui, -apple-system, sans-serif">19:33</text>
  </g>
  <text x="400.00" y="30.00" text-anchor="middle" fill="#333333" font-size="16" font-weight="bold" font-family="system-ui, -apple-system, sans-serif">Weather — Temporal Axis</text>
  <g class="series-0">
  <path d="M60.00,312.15 C66.81,312.60 86.38,314.03 100.85,314.88 C115.32,315.73 132.34,316.42 146.81,317.27 C161.28,318.12 174.04,319.66 187.66,320.00 C201.28,320.34 215.32,320.40 228.51,319.32 C241.70,318.24 257.87,315.45 266.81,313.51 C275.74,311.58 272.34,309.99 282.13,307.71 C291.91,305.44 312.34,302.53 325.53,299.86 C338.72,297.19 351.91,294.06 361.28,291.67 C370.64,289.28 374.89,287.46 381.70,285.52 C388.51,283.59 392.34,281.83 402.13,280.06 C411.91,278.30 427.66,276.31 440.43,274.94 C453.19,273.58 469.36,272.10 478.72,271.87 C488.09,271.64 487.23,272.61 496.60,273.58 C505.96,274.54 521.70,276.08 534.89,277.67 C548.09,279.27 562.98,280.92 575.74,283.14 C588.51,285.35 598.72,288.65 611.49,290.99 C624.26,293.32 638.72,295.20 652.34,297.13 C665.96,299.06 679.57,300.71 693.19,302.59 C706.81,304.47 719.57,306.97 734.04,308.39 C748.51,309.82 772.34,310.67 780.00,311.13" fill="none" stroke="#4e79a7" stroke-width="2" class="line"/>
  <g class="data-point" aria-label="11.2°C">
  <circle cx="60.00" cy="312.15" r="3.0" fill="#4e79a7" class="point"/>
  <g class="tooltip">
  <rect x="68.00" y="292.15" width="60.00" height="18.00" fill="white" stroke="#ccc" rx="3"/>
  <text x="72.00" y="305.15" fill="#333333" font-size="10" font-family="system-ui, -apple-system, sans-serif">11.2°C</text>
  </g>
  </g>
  <g class="data-point" aria-label="10.4°C">
  <circle cx="100.85" cy="314.88" r="3.0" fill="#4e79a7" class="point"/>
  <g class="tooltip">
  <rect x="108.85" y="294.88" width="60.00" height="18.00" fill="white" stroke="#ccc" rx="3"/>
  <text x="112.85" y="307.88" fill="#333333" font-size="10" font-family="system-ui, -apple-system, sans-serif">10.4°C</text>
  </g>
  </g>
  <g class="data-point" aria-label="9.7°C">
  <circle cx="146.81" cy="317.27" r="3.0" fill="#4e79a7" class="point"/>
  <g class="tooltip">
  <rect x="154.81" y="297.27" width="60.00" height="18.00" fill="white" stroke="#ccc" rx="3"/>
  <text x="158.81" y="310.27" fill="#333333" font-size="10" font-family="system-ui, -apple-system, sans-serif">9.7°C</text>
  </g>
  </g>
  <g class="data-point" aria-label="8.9°C">
  <circle cx="187.66" cy="320.00" r="3.0" fill="#4e79a7" class="point"/>
  <g class="tooltip">
  <rect x="195.66" y="300.00" width="60.00" height="18.00" fill="white" stroke="#ccc" rx="3"/>
  <text x="199.66" y="313.00" fill="#333333" font-size="10" font-family="system-ui, -apple-system, sans-serif">8.9°C</text>
  </g>
  </g>
  <g class="data-point" aria-label="9.1°C">
  <circle cx="228.51" cy="319.32" r="3.0" fill="#4e79a7" class="point"/>
  <g class="tooltip">
  <rect x="236.51" y="299.32" width="60.00" height="18.00" fill="white" stroke="#ccc" rx="3"/>
  <text x="240.51" y="312.32" fill="#333333" font-size="10" font-family="system-ui, -apple-system, sans-serif">9.1°C</text>
  </g>
  </g>
  <g class="data-point" aria-label="10.8°C">
  <circle cx="266.81" cy="313.51" r="3.0" fill="#4e79a7" class="point"/>
  <g class="tooltip">
  <rect x="274.81" y="293.51" width="60.00" height="18.00" fill="white" stroke="#ccc" rx="3"/>
  <text x="278.81" y="306.51" fill="#333333" font-size="10" font-family="system-ui, -apple-system, sans-serif">10.8°C</text>
  </g>
  </g>
  <g class="data-point" aria-label="12.5°C">
  <circle cx="282.13" cy="307.71" r="3.0" fill="#4e79a7" class="point"/>
  <g class="tooltip">
  <rect x="290.13" y="287.71" width="60.00" height="18.00" fill="white" stroke="#ccc" rx="3"/>
  <text x="294.13" y="300.71" fill="#333333" font-size="10" font-family="system-ui, -apple-system, sans-serif">12.5°C</text>
  </g>
  </g>
  <g class="data-point" aria-label="14.8°C">
  <circle cx="325.53" cy="299.86" r="3.0" fill="#4e79a7" class="point"/>
  <g class="tooltip">
  <rect x="333.53" y="279.86" width="60.00" height="18.00" fill="white" stroke="#ccc" rx="3"/>
  <text x="337.53" y="292.86" fill="#333333" font-size="10" font-family="system-ui, -apple-system, sans-serif">14.8°C</text>
  </g>
  </g>
  <g class="data-point" aria-label="17.2°C">
  <circle cx="361.28" cy="291.67" r="3.0" fill="#4e79a7" class="point"/>
  <g class="tooltip">
  <rect x="369.28" y="271.67" width="60.00" height="18.00" fill="white" stroke="#ccc" rx="3"/>
  <text x="373.28" y="284.67" fill="#333333" font-size="10" font-family="system-ui, -apple-system, sans-serif">17.2°C</text>
  </g>
  </g>
  <g class="data-point" aria-label="19.0°C">
  <circle cx="381.70" cy="285.52" r="3.0" fill="#4e79a7" class="point"/>
  <g class="tooltip">
  <rect x="389.70" y="265.52" width="60.00" height="18.00" fill="white" stroke="#ccc" rx="3"/>
  <text x="393.70" y="278.52" fill="#333333" font-size="10" font-family="system-ui, -apple-system, sans-serif">19.0°C</text>
  </g>
  </g>
  <g class="data-point" aria-label="20.6°C">
  <circle cx="402.13" cy="280.06" r="3.0" fill="#4e79a7" class="point"/>
  <g class="tooltip">
  <rect x="410.13" y="260.06" width="60.00" height="18.00" fill="white" stroke="#ccc" rx="3"/>
  <text x="414.13" y="273.06" fill="#333333" font-size="10" font-family="system-ui, -apple-system, sans-serif">20.6°C</text>
  </g>
  </g>
  <g class="data-point" aria-label="22.1°C">
  <circle cx="440.43" cy="274.94" r="3.0" fill="#4e79a7" class="point"/>
  <g class="tooltip">
  <rect x="448.43" y="254.94" width="60.00" height="18.00" fill="white" stroke="#ccc" rx="3"/>
  <text x="452.43" y="267.94" fill="#333333" font-size="10" font-family="system-ui, -apple-system, sans-serif">22.1°C</text>
  </g>
  </g>
  <g class="data-point" aria-label="23.0°C">
  <circle cx="478.72" cy="271.87" r="3.0" fill="#4e79a7" class="point"/>
  <g class="tooltip">
  <rect x="486.72" y="251.87" width="60.00" height="18.00" fill="white" stroke="#ccc" rx="3"/>
  <text x="490.72" y="264.87" fill="#333333" font-size="10" font-family="system-ui, -apple-system, sans-serif">23.0°C</text>
  </g>
  </g>
  <g class="data-point" aria-label="22.5°C">
  <circle cx="496.60" cy="273.58" r="3.0" fill="#4e79a7" class="point"/>
  <g class="tooltip">
  <rect x="504.60" y="253.58" width="60.00" height="18.00" fill="white" stroke="#ccc" rx="3"/>
  <text x="508.60" y="266.58" fill="#333333" font-size="10" font-family="system-ui, -apple-system, sans-serif">22.5°C</text>
  </g>
  </g>
  <g class="data-point" aria-label="21.3°C">
  <circle cx="534.89" cy="277.67" r="3.0" fill="#4e79a7" class="point"/>
  <g class="tooltip">
  <rect x="542.89" y="257.67" width="60.00" height="18.00" fill="white" stroke="#ccc" rx="3"/>
  <text x="546.89" y="270.67" fill="#333333" font-size="10" font-family="system-ui, -apple-system, sans-serif">21.3°C</text>
  </g>
  </g>
  <g class="data-point" aria-label="19.7°C">
  <circle cx="575.74" cy="283.14" r="3.0" fill="#4e79a7" class="point"/>
  <g class="tooltip">
  <rect x="583.74" y="263.14" width="60.00" height="18.00" fill="white" stroke="#ccc" rx="3"/>
  <text x="587.74" y="276.14" fill="#333333" font-size="10" font-family="system-ui, -apple-system, sans-serif">19.7°C</text>
  </g>
  </g>
  <g class="data-point" aria-label="17.4°C">
  <circle cx="611.49" cy="290.99" r="3.0" fill="#4e79a7" class="point"/>
  <g class="tooltip">
  <rect x="619.49" y="270.99" width="60.00" height="18.00" fill="white" stroke="#ccc" rx="3"/>
  <text x="623.49" y="283.99" fill="#333333" font-size="10" font-family="system-ui, -apple-system, sans-serif">17.4°C</text>
  </g>
  </g>
  <g class="data-point" aria-label="15.6°C">
  <circle cx="652.34" cy="297.13" r="3.0" fill="#4e79a7" class="point"/>
  <g class="tooltip">
  <rect x="660.34" y="277.13" width="60.00" height="18.00" fill="white" stroke="#ccc" rx="3"/>
  <text x="664.34" y="290.13" fill="#333333" font-size="10" font-family="system-ui, -apple-system, sans-serif">15.6°C</text>
  </g>
  </g>
  <g class="data-point" aria-label="14.0°C">
  <circle cx="693.19" cy="302.59" r="3.0" fill="#4e79a7" class="point"/>
  <g class="tooltip">
  <rect x="701.19" y="282.59" width="60.00" height="18.00" fill="white" stroke="#ccc" rx="3"/>
  <text x="705.19" y="295.59" fill="#333333" font-size="10" font-family="system-ui, -apple-system, sans-serif">14.0°C</text>
  </g>
  </g>
  <g class="data-point" aria-label="12.3°C">
  <circle cx="734.04" cy="308.39" r="3.0" fill="#4e79a7" class="point"/>
  <g class="tooltip">
  <rect x="742.04" y="288.39" width="60.00" height="18.00" fill="white" stroke="#ccc" rx="3"/>
  <text x="746.04" y="301.39" fill="#333333" font-size="10" font-family="system-ui, -apple-system, sans-serif">12.3°C</text>
  </g>
  </g>
  <g class="data-point" aria-label="11.5°C">
  <circle cx="780.00" cy="311.13" r="3.0" fill="#4e79a7" class="point"/>
  <g class="tooltip">
  <rect x="788.00" y="291.13" width="60.00" height="18.00" fill="white" stroke="#ccc" rx="3"/>
  <text x="792.00" y="304.13" fill="#333333" font-size="10" font-family="system-ui, -apple-system, sans-serif">11.5°C</text>
  </g>
  </g>
  </g>
  <g class="series-1">
  <path d="M60.00,70.48 C72.77,68.77 112.34,63.65 136.60,60.24 C160.85,56.83 185.11,49.43 205.53,50.00 C225.96,50.57 241.28,54.55 259.15,63.65 C277.02,72.76 294.89,89.82 312.77,104.61 C330.64,119.41 349.79,139.89 366.38,152.40 C382.98,164.92 397.02,172.31 412.34,179.71 C427.66,187.10 440.43,195.64 458.30,196.78 C476.17,197.91 499.15,192.23 519.57,186.54 C540.00,180.85 560.43,172.31 580.85,162.64 C601.28,152.97 619.15,140.46 642.13,128.51 C665.11,116.56 698.30,99.49 718.72,90.96 C739.15,82.43 757.02,79.58 764.68,77.31" fill="none" stroke="#f28e2b" stroke-width="2" class="line"/>
  <g class="data-point" aria-label="82%">
  <circle cx="60.00" cy="70.48" r="3.0" fill="#f28e2b" class="point"/>
  <g class="tooltip">
  <rect x="68.00" y="50.48" width="60.00" height="18.00" fill="white" stroke="#ccc" rx="3"/>
  <text x="72.00" y="63.48" fill="#333333" font-size="10" font-family="system-ui, -apple-system, sans-serif">82%</text>
  </g>
  </g>
  <g class="data-point" aria-label="85%">
  <circle cx="136.60" cy="60.24" r="3.0" fill="#f28e2b" class="point"/>
  <g class="tooltip">
  <rect x="144.60" y="40.24" width="60.00" height="18.00" fill="white" stroke="#ccc" rx="3"/>
  <text x="148.60" y="53.24" fill="#333333" font-size="10" font-family="system-ui, -apple-system, sans-serif">85%</text>
  </g>
  </g>
  <g class="data-point" aria-label="88%">
  <circle cx="205.53" cy="50.00" r="3.0" fill="#f28e2b" class="point"/>
  <g class="tooltip">
  <rect x="213.53" y="30.00" width="60.00" height="18.00" fill="white" stroke="#ccc" rx="3"/>
  <text x="217.53" y="43.00" fill="#333333" font-size="10" font-family="system-ui, -apple-system, sans-serif">88%</text>
  </g>
  </g>
  <g class="data-point" aria-label="84%">
  <circle cx="259.15" cy="63.65" r="3.0" fill="#f28e2b" class="point"/>
  <g class="tooltip">
  <rect x="267.15" y="43.65" width="60.00" height="18.00" fill="white" stroke="#ccc" rx="3"/>
  <text x="271.15" y="56.65" fill="#333333" font-size="10" font-family="system-ui, -apple-system, sans-serif">84%</text>
  </g>
  </g>
  <g class="data-point" aria-label="72%">
  <circle cx="312.77" cy="104.61" r="3.0" fill="#f28e2b" class="point"/>
  <g class="tooltip">
  <rect x="320.77" y="84.61" width="60.00" height="18.00" fill="white" stroke="#ccc" rx="3"/>
  <text x="324.77" y="97.61" fill="#333333" font-size="10" font-family="system-ui, -apple-system, sans-serif">72%</text>
  </g>
  </g>
  <g class="data-point" aria-label="58%">
  <circle cx="366.38" cy="152.40" r="3.0" fill="#f28e2b" class="point"/>
  <g class="tooltip">
  <rect x="374.38" y="132.40" width="60.00" height="18.00" fill="white" stroke="#ccc" rx="3"/>
  <text x="378.38" y="145.40" fill="#333333" font-size="10" font-family="system-ui, -apple-system, sans-serif">58%</text>
  </g>
  </g>
  <g class="data-point" aria-label="50%">
  <circle cx="412.34" cy="179.71" r="3.0" fill="#f28e2b" class="point"/>
  <g class="tooltip">
  <rect x="420.34" y="159.71" width="60.00" height="18.00" fill="white" stroke="#ccc" rx="3"/>
  <text x="424.34" y="172.71" fill="#333333" font-size="10" font-family="system-ui, -apple-system, sans-serif">50%</text>
  </g>
  </g>
  <g class="data-point" aria-label="45%">
  <circle cx="458.30" cy="196.78" r="3.0" fill="#f28e2b" class="point"/>
  <g class="tooltip">
  <rect x="466.30" y="176.78" width="60.00" height="18.00" fill="white" stroke="#ccc" rx="3"/>
  <text x="470.30" y="189.78" fill="#333333" font-size="10" font-family="system-ui, -apple-system, sans-serif">45%</text>
  </g>
  </g>
  <g class="data-point" aria-label="48%">
  <circle cx="519.57" cy="186.54" r="3.0" fill="#f28e2b" class="point"/>
  <g class="tooltip">
  <rect x="527.57" y="166.54" width="60.00" height="18.00" fill="white" stroke="#ccc" rx="3"/>
  <text x="531.57" y="179.54" fill="#333333" font-size="10" font-family="system-ui, -apple-system, sans-serif">48%</text>
  </g>
  </g>
  <g class="data-point" aria-label="55%">
  <circle cx="580.85" cy="162.64" r="3.0" fill="#f28e2b" class="point"/>
  <g class="tooltip">
  <rect x="588.85" y="142.64" width="60.00" height="18.00" fill="white" stroke="#ccc" rx="3"/>
  <text x="592.85" y="155.64" fill="#333333" font-size="10" font-family="system-ui, -apple-system, sans-serif">55%</text>
  </g>
  </g>
  <g class="data-point" aria-label="65%">
  <circle cx="642.13" cy="128.51" r="3.0" fill="#f28e2b" class="point"/>
  <g class="tooltip">
  <rect x="650.13" y="108.51" width="60.00" height="18.00" fill="white" stroke="#ccc" rx="3"/>
  <text x="654.13" y="121.51" fill="#333333" font-size="10" font-family="system-ui, -apple-system, sans-serif">65%</text>
  </g>
  </g>
  <g class="data-point" aria-label="76%">
  <circle cx="718.72" cy="90.96" r="3.0" fill="#f28e2b" class="point"/>
  <g class="tooltip">
  <rect x="726.72" y="70.96" width="60.00" height="18.00" fill="white" stroke="#ccc" rx="3"/>
  <text x="730.72" y="83.96" fill="#333333" font-size="10" font-family="system-ui, -apple-system, sans-serif">76%</text>
  </g>
  </g>
  <g class="data-point" aria-label="80%">
  <circle cx="764.68" cy="77.31" r="3.0" fill="#f28e2b" class="point"/>
  <g class="tooltip">
  <rect x="772.68" y="57.31" width="60.00" height="18.00" fill="white" stroke="#ccc" rx="3"/>
  <text x="776.68" y="70.31" fill="#333333" font-size="10" font-family="system-ui, -apple-system, sans-serif">80%</text>
  </g>
  </g>
  </g>
  <g class="legend">
  <rect x="60.00" y="375.00" width="12.00" height="12.00" fill="#4e79a7"/>
  <text x="76.00" y="386.00" fill="#333333" font-size="12" font-family="system-ui, -apple-system, sans-serif">Temperature (°C)</text>
  <rect x="226.00" y="375.00" width="12.00" height="12.00" fill="#f28e2b"/>
  <text x="242.00" y="386.00" fill="#333333" font-size="12" font-family="system-ui, -apple-system, sans-serif">Humidity (%)</text>
  </g>
</svg>
