<svg xmlns="http://www.w3.org/2000/svg" viewBox="0 0 800 400" role="img" aria-labelledby="chart-title">
  <title id="chart-title">Live Sensor Data</title>
  <desc>Chart: Live Sensor Data</desc>
  <style>
    .tooltip { display: none; pointer-events: none; }
    .data-point:hover .tooltip { display: block; }
    .point { transition: r 0.15s; }
    .data-point:hover .point { r: 5; }
    .line { transition: stroke-width 0.2s; }
    .bar { transition: opacity 0.15s; }
    .bar:hover { opacity: 0.8; }
    .slice { transition: opacity 0.15s; }
    .slice:hover { opacity: 0.8; }
  </style>
  <rect x="0.00" y="0.00" width="800.00" height="400.00" fill="#ffffff"/>
  <g class="grid">
  <line x1="60.00" y1="328.62" x2="780.00" y2="328.62" stroke="#e0e0e0" stroke-width="0.5"/>
  <line x1="60.00" y1="263.59" x2="780.00" y2="263.59" stroke="#e0e0e0" stroke-width="0.5"/>
  <line x1="60.00" y1="198.56" x2="780.00" y2="198.56" stroke="#e0e0e0" stroke-width="0.5"/>
  <line x1="60.00" y1="133.53" x2="780.00" y2="133.53" stroke="#e0e0e0" stroke-width="0.5"/>
  <line x1="60.00" y1="68.50" x2="780.00" y2="68.50" stroke="#e0e0e0" stroke-width="0.5"/>
  </g>
  <g class="y-axis">
  <line x1="60.00" y1="50.00" x2="60.00" y2="350.00" stroke="#666666" stroke-width="1"/>
  <line x1="56.00" y1="328.62" x2="60.00" y2="328.62" stroke="#666666" stroke-width="1"/>
  <text x="52.00" y="332.62" text-anchor="end" fill="#333333" font-size="12" font-family="system-ui, -apple-system, sans-serif">30</text>
  <line x1="56.00" y1="263.59" x2="60.00" y2="263.59" stroke="#666666" stroke-width="1"/>
  <text x="52.00" y="267.59" text-anchor="end" fill="#333333" font-size="12" font-family="system-ui, -apple-system, sans-serif">40</text>
  <line x1="56.00" y1="198.56" x2="60.00" y2="198.56" stroke="#666666" stroke-width="1"/>
  <text x="52.00" y="202.56" text-anchor="end" fill="#333333" font-size="12" font-family="system-ui, -apple-system, sans-serif">50</text>
  <line x1="56.00" y1="133.53" x2="60.00" y2="133.53" stroke="#666666" stroke-width="1"/>
  <text x="52.00" y="137.53" text-anchor="end" fill="#333333" font-size="12" font-family="system-ui, -apple-system, sans-serif">60</text>
  <line x1="56.00" y1="68.50" x2="60.00" y2="68.50" stroke="#666666" stroke-width="1"/>
  <text x="52.00" y="72.50" text-anchor="end" fill="#333333" font-size="12" font-family="system-ui, -apple-system, sans-serif">70</text>
  </g>
  <g class="x-axis">
  <line x1="60.00" y1="350.00" x2="780.00" y2="350.00" stroke="#666666" stroke-width="1"/>
  <line x1="60.00" y1="350.00" x2="60.00" y2="354.00" stroke="#666666" stroke-width="1"/>
  <text x="60.00" y="366.00" text-anchor="middle" fill="#333333" font-size="12" font-family="system-ui, -apple-system, sans-serif">14:30:00</text>
  <line x1="246.21" y1="350.00" x2="246.21" y2="354.00" stroke="#666666" stroke-width="1"/>
  <text x="246.21" y="366.00" text-anchor="middle" fill="#333333" font-size="12" font-family="system-ui, -apple-system, sans-serif">14:30:15</text>
  <line x1="432.41" y1="350.00" x2="432.41" y2="354.00" stroke="#666666" stroke-width="1"/>
  <text x="432.41" y="366.00" text-anchor="middle" fill="#333333" font-size="12" font-family="system-ui, -apple-system, sans-serif">14:30:30</text>
  <line x1="618.62" y1="350.00" x2="618.62" y2="354.00" stroke="#666666" stroke-width="1"/>
  <text x="618.62" y="366.00" text-anchor="middle" fill="#333333" font-size="12" font-family="system-ui, -apple-system, sans-serif">14:30:45</text>
  </g>
  <text x="400.00" y="30.00" text-anchor="middle" fill="#333333" font-size="16" font-weight="bold" font-family="system-ui, -apple-system, sans-serif">Live Sensor Data</text>
  <g class="series-0">
  <path d="M60.00,220.48 C64.14,215.63 76.55,211.36 84.83,191.41 C93.10,171.45 101.38,117.07 109.66,100.75 C117.93,84.44 126.21,96.47 134.48,93.52 C142.76,90.57 151.03,90.30 159.31,83.04 C167.59,75.79 175.86,51.16 184.14,50.00 C192.41,48.84 200.69,71.43 208.97,76.10 C217.24,80.77 225.52,76.18 233.79,78.02 C242.07,79.87 250.34,81.41 258.62,87.18 C266.90,92.95 275.17,99.29 283.45,112.64 C291.72,125.98 300.00,154.26 308.28,167.24 C316.55,180.22 324.83,177.90 333.10,190.52 C341.38,203.15 349.66,229.34 357.93,242.97 C366.21,256.61 374.48,263.44 382.76,272.33 C391.03,281.22 399.31,283.38 407.59,296.32 C415.86,309.27 424.14,344.72 432.41,350.00 C440.69,355.28 448.97,336.93 457.24,327.99 C465.52,319.05 473.79,305.83 482.07,296.38 C490.34,286.93 498.62,274.42 506.90,271.28 C515.17,268.15 523.45,286.94 531.72,277.58 C540.00,268.22 548.28,230.45 556.55,215.12 C564.83,199.80 573.10,195.74 581.38,185.62 C589.66,175.50 597.93,168.22 606.21,154.38 C614.48,140.54 622.76,110.14 631.03,102.58 C639.31,95.03 647.59,113.51 655.86,109.05 C664.14,104.58 672.41,79.42 680.69,75.79 C688.97,72.17 697.24,85.08 705.52,87.31 C713.79,89.54 722.07,89.46 730.34,89.16 C738.62,88.86 746.90,76.49 755.17,85.50 C763.45,94.51 775.86,133.59 780.00,143.21" fill="none" stroke="#4e79a7" stroke-width="2" class="line"/>
  <g class="data-point" aria-label="46.6">
  <circle cx="60.00" cy="220.48" r="3.0" fill="#4e79a7" class="point"/>
  <g class="tooltip">
  <rect x="68.00" y="200.48" width="60.00" height="18.00" fill="white" stroke="#ccc" rx="3"/>
  <text x="72.00" y="213.48" fill="#333333" font-size="10" font-family="system-ui, -apple-system, sans-serif">46.6</text>
  </g>
  </g>
  <g class="data-point" aria-label="51.1">
  <circle cx="84.83" cy="191.41" r="3.0" fill="#4e79a7" class="point"/>
  <g class="tooltip">
  <rect x="92.83" y="171.41" width="60.00" height="18.00" fill="white" stroke="#ccc" rx="3"/>
  <text x="96.83" y="184.41" fill="#333333" font-size="10" font-family="system-ui, -apple-system, sans-serif">51.1</text>
  </g>
  </g>
  <g class="data-point" aria-label="65.0">
  <circle cx="109.66" cy="100.75" r="3.0" fill="#4e79a7" class="point"/>
  <g class="tooltip">
  <rect x="117.66" y="80.75" width="60.00" height="18.00" fill="white" stroke="#ccc" rx="3"/>
  <text x="121.66" y="93.75" fill="#333333" font-size="10" font-family="system-ui, -apple-system, sans-serif">65.0</text>
  </g>
  </g>
  <g class="data-point" aria-label="66.2">
  <circle cx="134.48" cy="93.52" r="3.0" fill="#4e79a7" class="point"/>
  <g class="tooltip">
  <rect x="142.48" y="73.52" width="60.00" height="18.00" fill="white" stroke="#ccc" rx="3"/>
  <text x="146.48" y="86.52" fill="#333333" font-size="10" font-family="system-ui, -apple-system, sans-serif">66.2</text>
  </g>
  </g>
  <g class="data-point" aria-label="67.8">
  <circle cx="159.31" cy="83.04" r="3.0" fill="#4e79a7" class="point"/>
  <g class="tooltip">
  <rect x="167.31" y="63.04" width="60.00" height="18.00" fill="white" stroke="#ccc" rx="3"/>
  <text x="171.31" y="76.04" fill="#333333" font-size="10" font-family="system-ui, -apple-system, sans-serif">67.8</text>
  </g>
  </g>
  <g class="data-point" aria-label="72.8">
  <circle cx="184.14" cy="50.00" r="3.0" fill="#4e79a7" class="point"/>
  <g class="tooltip">
  <rect x="192.14" y="30.00" width="60.00" height="18.00" fill="white" stroke="#ccc" rx="3"/>
  <text x="196.14" y="43.00" fill="#333333" font-size="10" font-family="system-ui, -apple-system, sans-serif">72.8</text>
  </g>
  </g>
  <g class="data-point" aria-label="68.8">
  <circle cx="208.97" cy="76.10" r="3.0" fill="#4e79a7" class="point"/>
  <g class="tooltip">
  <rect x="216.97" y="56.10" width="60.00" height="18.00" fill="white" stroke="#ccc" rx="3"/>
  <text x="220.97" y="69.10" fill="#333333" font-size="10" font-family="system-ui, -apple-system, sans-serif">68.8</text>
  </g>
  </g>
  <g class="data-point" aria-label="68.5">
  <circle cx="233.79" cy="78.02" r="3.0" fill="#4e79a7" class="point"/>
  <g class="tooltip">
  <rect x="241.79" y="58.02" width="60.00" height="18.00" fill="white" stroke="#ccc" rx="3"/>
  <text x="245.79" y="71.02" fill="#333333" font-size="10" font-family="system-ui, -apple-system, sans-serif">68.5</text>
  </g>
  </g>
  <g class="data-point" aria-label="67.1">
  <circle cx="258.62" cy="87.18" r="3.0" fill="#4e79a7" class="point"/>
  <g class="tooltip">
  <rect x="266.62" y="67.18" width="60.00" height="18.00" fill="white" stroke="#ccc" rx="3"/>
  <text x="270.62" y="80.18" fill="#333333" font-size="10" font-family="system-ui, -apple-system, sans-serif">67.1</text>
  </g>
  </g>
  <g class="data-point" aria-label="63.2">
  <circle cx="283.45" cy="112.64" r="3.0" fill="#4e79a7" class="point"/>
  <g class="tooltip">
  <rect x="291.45" y="92.64" width="60.00" height="18.00" fill="white" stroke="#ccc" rx="3"/>
  <text x="295.45" y="105.64" fill="#333333" font-size="10" font-family="system-ui, -apple-system, sans-serif">63.2</text>
  </g>
  </g>
  <g class="data-point" aria-label="54.8">
  <circle cx="308.28" cy="167.24" r="3.0" fill="#4e79a7" class="point"/>
  <g class="tooltip">
  <rect x="316.28" y="147.24" width="60.00" height="18.00" fill="white" stroke="#ccc" rx="3"/>
  <text x="320.28" y="160.24" fill="#333333" font-size="10" font-family="system-ui, -apple-system, sans-serif">54.8</text>
  </g>
  </g>
  <g class="data-point" aria-label="51.2">
  <circle cx="333.10" cy="190.52" r="3.0" fill="#4e79a7" class="point"/>
  <g class="tooltip">
  <rect x="341.10" y="170.52" width="60.00" height="18.00" fill="white" stroke="#ccc" rx="3"/>
  <text x="345.10" y="183.52" fill="#333333" font-size="10" font-family="system-ui, -apple-system, sans-serif">51.2</text>
  </g>
  </g>
  <g class="data-point" aria-label="43.2">
  <circle cx="357.93" cy="242.97" r="3.0" fill="#4e79a7" class="point"/>
  <g class="tooltip">
  <rect x="365.93" y="222.97" width="60.00" height="18.00" fill="white" stroke="#ccc" rx="3"/>
  <text x="369.93" y="235.97" fill="#333333" font-size="10" font-family="system-ui, -apple-system, sans-serif">43.2</text>
  </g>
  </g>
  <g class="data-point" aria-label="38.7">
  <circle cx="382.76" cy="272.33" r="3.0" fill="#4e79a7" class="point"/>
  <g class="tooltip">
  <rect x="390.76" y="252.33" width="60.00" height="18.00" fill="white" stroke="#ccc" rx="3"/>
  <text x="394.76" y="265.33" fill="#333333" font-size="10" font-family="system-ui, -apple-system, sans-serif">38.7</text>
  </g>
  </g>
  <g class="data-point" aria-label="35.0">
  <circle cx="407.59" cy="296.32" r="3.0" fill="#4e79a7" class="point"/>
  <g class="tooltip">
  <rect x="415.59" y="276.32" width="60.00" height="18.00" fill="white" stroke="#ccc" rx="3"/>
  <text x="419.59" y="289.32" fill="#333333" font-size="10" font-family="system-ui, -apple-system, sans-serif">35.0</text>
  </g>
  </g>
  <g class="data-point" aria-label="26.7">
  <circle cx="432.41" cy="350.00" r="3.0" fill="#4e79a7" class="point"/>
  <g class="tooltip">
  <rect x="440.41" y="330.00" width="60.00" height="18.00" fill="white" stroke="#ccc" rx="3"/>
  <text x="444.41" y="343.00" fill="#333333" font-size="10" font-family="system-ui, -apple-system, sans-serif">26.7</text>
  </g>
  </g>
  <g class="data-point" aria-label="30.1">
  <circle cx="457.24" cy="327.99" r="3.0" fill="#4e79a7" class="point"/>
  <g class="tooltip">
  <rect x="465.24" y="307.99" width="60.00" height="18.00" fill="white" stroke="#ccc" rx="3"/>
  <text x="469.24" y="320.99" fill="#333333" font-size="10" font-family="system-ui, -apple-system, sans-serif">30.1</text>
  </g>
  </g>
  <g class="data-point" aria-label="35.0">
  <circle cx="482.07" cy="296.38" r="3.0" fill="#4e79a7" class="point"/>
  <g class="tooltip">
  <rect x="490.07" y="276.38" width="60.00" height="18.00" fill="white" stroke="#ccc" rx="3"/>
  <text x="494.07" y="289.38" fill="#333333" font-size="10" font-family="system-ui, -apple-system, sans-serif">35.0</text>
  </g>
  </g>
  <g class="data-point" aria-label="38.8">
  <circle cx="506.90" cy="271.28" r="3.0" fill="#4e79a7" class="point"/>
  <g class="tooltip">
  <rect x="514.90" y="251.28" width="60.00" height="18.00" fill="white" stroke="#ccc" rx="3"/>
  <text x="518.90" y="264.28" fill="#333333" font-size="10" font-family="system-ui, -apple-system, sans-serif">38.8</text>
  </g>
  </g>
  <g class="data-point" aria-label="37.8">
  <circle cx="531.72" cy="277.58" r="3.0" fill="#4e79a7" class="point"/>
  <g class="tooltip">
  <rect x="539.72" y="257.58" width="60.00" height="18.00" fill="white" stroke="#ccc" rx="3"/>
  <text x="543.72" y="270.58" fill="#333333" font-size="10" font-family="system-ui, -apple-system, sans-serif">37.8</text>
  </g>
  </g>
  <g class="data-point" aria-label="47.5">
  <circle cx="556.55" cy="215.12" r="3.0" fill="#4e79a7" class="point"/>
  <g class="tooltip">
  <rect x="564.55" y="195.12" width="60.00" height="18.00" fill="white" stroke="#ccc" rx="3"/>
  <text x="568.55" y="208.12" fill="#333333" font-size="10" font-family="system-ui, -apple-system, sans-serif">47.5</text>
  </g>
  </g>
  <g class="data-point" aria-label="52.0">
  <circle cx="581.38" cy="185.62" r="3.0" fill="#4e79a7" class="point"/>
  <g class="tooltip">
  <rect x="589.38" y="165.62" width="60.00" height="18.00" fill="white" stroke="#ccc" rx="3"/>
  <text x="593.38" y="178.62" fill="#333333" font-size="10" font-family="system-ui, -apple-system, sans-serif">52.0</text>
  </g>
  </g>
  <g class="data-point" aria-label="56.8">
  <circle cx="606.21" cy="154.38" r="3.0" fill="#4e79a7" class="point"/>
  <g class="tooltip">
  <rect x="614.21" y="134.38" width="60.00" height="18.00" fill="white" stroke="#ccc" rx="3"/>
  <text x="618.21" y="147.38" fill="#333333" font-size="10" font-family="system-ui, -apple-system, sans-serif">56.8</text>
  </g>
  </g>
  <g class="data-point" aria-label="64.8">
  <circle cx="631.03" cy="102.58" r="3.0" fill="#4e79a7" class="point"/>
  <g class="tooltip">
  <rect x="639.03" y="82.58" width="60.00" height="18.00" fill="white" stroke="#ccc" rx="3"/>
  <text x="643.03" y="95.58" fill="#333333" font-size="10" font-family="system-ui, -apple-system, sans-serif">64.8</text>
  </g>
  </g>
  <g class="data-point" aria-label="63.8">
  <circle cx="655.86" cy="109.05" r="3.0" fill="#4e79a7" class="point"/>
  <g class="tooltip">
  <rect x="663.86" y="89.05" width="60.00" height="18.00" fill="white" stroke="#ccc" rx="3"/>
  <text x="667.86" y="102.05" fill="#333333" font-size="10" font-family="system-ui, -apple-system, sans-serif">63.8</text>
  </g>
  </g>
  <g class="data-point" aria-label="68.9">
  <circle cx="680.69" cy="75.79" r="3.0" fill="#4e79a7" class="point"/>
  <g class="tooltip">
  <rect x="688.69" y="55.79" width="60.00" height="18.00" fill="white" stroke="#ccc" rx="3"/>
  <text x="692.69" y="68.79" fill="#333333" font-size="10" font-family="system-ui, -apple-system, sans-serif">68.9</text>
  </g>
  </g>
  <g class="data-point" aria-label="67.1">
  <circle cx="705.52" cy="87.31" r="3.0" fill="#4e79a7" class="point"/>
  <g class="tooltip">
  <rect x="713.52" y="67.31" width="60.00" height="18.00" fill="white" stroke="#ccc" rx="3"/>
  <text x="717.52" y="80.31" fill="#333333" font-size="10" font-family="system-ui, -apple-system, sans-serif">67.1</text>
  </g>
  </g>
  <g class="data-point" aria-label="66.8">
  <circle cx="730.34" cy="89.16" r="3.0" fill="#4e79a7" class="point"/>
  <g class="tooltip">
  <rect x="738.34" y="69.16" width="60.00" height="18.00" fill="white" stroke="#ccc" rx="3"/>
  <text x="742.34" y="82.16" fill="#333333" font-size="10" font-family="system-ui, -apple-system, sans-serif">66.8</text>
  </g>
  </g>
  <g class="data-point" aria-label="67.4">
  <circle cx="755.17" cy="85.50" r="3.0" fill="#4e79a7" class="point"/>
  <g class="tooltip">
  <rect x="763.17" y="65.50" width="60.00" height="18.00" fill="white" stroke="#ccc" rx="3"/>
  <text x="767.17" y="78.50" fill="#333333" font-size="10" font-family="system-ui, -apple-system, sans-serif">67.4</text>
  </g>
  </g>
  <g class="data-point" aria-label="58.5">
  <circle cx="780.00" cy="143.21" r="3.0" fill="#4e79a7" class="point"/>
  <g class="tooltip">
  <rect x="788.00" y="123.21" width="60.00" height="18.00" fill="white" stroke="#ccc" rx="3"/>
  <text x="792.00" y="136.21" fill="#333333" font-size="10" font-family="system-ui, -apple-system, sans-serif">58.5</text>
  </g>
  </g>
  </g>
</svg>
