<svg xmlns="http://www.w3.org/2000/svg" viewBox="0 0 800 400" role="img" aria-labelledby="chart-title">
  <title id="chart-title">Live Sensor Data</title>
  <desc>Chart: Live Sensor Data</desc>
  <style>
    .tooltip { display: none; pointer-events: none; }
    .data-point:hover .tooltip { display: block; }
    .point { transition: r 0.15s; }
    .data-point:hover .point { r: 5; }
    .line { transition: stroke-width 0.2s; }
  </style>
  <rect x="0.00" y="0.00" width="800.00" height="400.00" fill="#ffffff"/>
  <g class="grid">
  <line x1="60.00" y1="348.17" x2="780.00" y2="348.17" stroke="#e0e0e0" stroke-width="0.5"/>
  <line x1="60.00" y1="277.30" x2="780.00" y2="277.30" stroke="#e0e0e0" stroke-width="0.5"/>
  <line x1="60.00" y1="206.42" x2="780.00" y2="206.42" stroke="#e0e0e0" stroke-width="0.5"/>
  <line x1="60.00" y1="135.54" x2="780.00" y2="135.54" stroke="#e0e0e0" stroke-width="0.5"/>
  <line x1="60.00" y1="64.66" x2="780.00" y2="64.66" stroke="#e0e0e0" stroke-width="0.5"/>
  </g>
  <g class="y-axis">
  <line x1="60.00" y1="50.00" x2="60.00" y2="350.00" stroke="#666666" stroke-width="1"/>
  <line x1="56.00" y1="348.17" x2="60.00" y2="348.17" stroke="#666666" stroke-width="1"/>
  <text x="52.00" y="352.17" text-anchor="end" fill="#333333" font-size="12" font-family="system-ui, -apple-system, sans-serif">30</text>
  <line x1="56.00" y1="277.30" x2="60.00" y2="277.30" stroke="#666666" stroke-width="1"/>
  <text x="52.00" y="281.30" text-anchor="end" fill="#333333" font-size="12" font-family="system-ui, -apple-system, sans-serif">40</text>
  <line x1="56.00" y1="206.42" x2="60.00" y2="206.42" stroke="#666666" stroke-width="1"/>
  <text x="52.00" y="210.42" text-anchor="end" fill="#333333" font-size="12" font-family="system-ui, -apple-system, sans-serif">50</text>
  <line x1="56.00" y1="135.54" x2="60.00" y2="135.54" stroke="#666666" stroke-width="1"/>
  <text x="52.00" y="139.54" text-anchor="end" fill="#333333" font-size="12" font-family="system-ui, -apple-system, sans-serif">60</text>
  <line x1="56.00" y1="64.66" x2="60.00" y2="64.66" stroke="#666666" stroke-width="1"/>
  <text x="52.00" y="68.66" text-anchor="end" fill="#333333" font-size="12" font-family="system-ui, -apple-system, sans-serif">70</text>
  </g>
  <g class="x-axis">
  <line x1="60.00" y1="350.00" x2="780.00" y2="350.00" stroke="#666666" stroke-width="1"/>
  <line x1="60.00" y1="350.00" x2="60.00" y2="354.00" stroke="#666666" stroke-width="1"/>
  <text x="60.00" y="366.00" text-anchor="middle" fill="#333333" font-size="12" font-family="system-ui, -apple-system, sans-serif">1.718e+09</text>
  <line x1="184.14" y1="350.00" x2="184.14" y2="354.00" stroke="#666666" stroke-width="1"/>
  <text x="184.14" y="366.00" text-anchor="middle" fill="#333333" font-size="12" font-family="system-ui, -apple-system, sans-serif">1.718e+09</text>
  <line x1="308.28" y1="350.00" x2="308.28" y2="354.00" stroke="#666666" stroke-width="1"/>
  <text x="308.28" y="366.00" text-anchor="middle" fill="#333333" font-size="12" font-family="system-ui, -apple-system, sans-serif">1.718e+09</text>
  <line x1="432.41" y1="350.00" x2="432.41" y2="354.00" stroke="#666666" stroke-width="1"/>
  <text x="432.41" y="366.00" text-anchor="middle" fill="#333333" font-size="12" font-family="system-ui, -apple-system, sans-serif">1.718e+09</text>
  <line x1="556.55" y1="350.00" x2="556.55" y2="354.00" stroke="#666666" stroke-width="1"/>
  <text x="556.55" y="366.00" text-anchor="middle" fill="#333333" font-size="12" font-family="system-ui, -apple-system, sans-serif">1.718e+09</text>
  <line x1="680.69" y1="350.00" x2="680.69" y2="354.00" stroke="#666666" stroke-width="1"/>
  <text x="680.69" y="366.00" text-anchor="middle" fill="#333333" font-size="12" font-family="system-ui, -apple-system, sans-serif">1.718e+09</text>
  </g>
  <text x="400.00" y="30.00" text-anchor="middle" fill="#333333" font-size="16" font-weight="bold" font-family="system-ui, -apple-system, sans-serif">Live Sensor Data</text>
  <g class="series-0">
  <path d="M60.00,218.13 C64.14,204.80 76.55,152.56 84.83,138.16 C93.10,123.77 101.38,140.09 109.66,131.78 C117.93,123.46 126.21,101.91 134.48,88.28 C142.76,74.65 151.03,52.67 159.31,50.00 C167.59,47.33 175.86,64.69 184.14,72.24 C192.41,79.78 200.69,97.64 208.97,95.28 C217.24,92.92 225.52,59.14 233.79,58.07 C242.07,56.99 250.34,79.95 258.62,88.85 C266.90,97.75 275.17,90.75 283.45,111.46 C291.72,132.17 300.00,187.69 308.28,213.13 C316.55,238.57 324.83,253.06 333.10,264.10 C341.38,275.13 349.66,272.73 357.93,279.32 C366.21,285.90 374.48,297.72 382.76,303.62 C391.03,309.51 399.31,306.95 407.59,314.68 C415.86,322.41 424.14,349.54 432.41,350.00 C440.69,350.46 448.97,319.36 457.24,317.46 C465.52,315.56 473.79,342.86 482.07,338.59 C490.34,334.33 498.62,304.65 506.90,291.88 C515.17,279.10 523.45,270.52 531.72,261.94 C540.00,253.36 548.28,247.58 556.55,240.39 C564.83,233.20 573.10,231.57 581.38,218.80 C589.66,206.03 597.93,175.22 606.21,163.75 C614.48,152.28 622.76,156.81 631.03,149.99 C639.31,143.16 647.59,132.30 655.86,122.79 C664.14,113.29 672.41,96.89 680.69,92.97 C688.97,89.05 697.24,99.26 705.52,99.28 C713.79,99.31 722.07,89.74 730.34,93.13 C738.62,96.52 746.90,110.58 755.17,119.63 C763.45,128.68 775.86,142.80 780.00,147.44" fill="none" stroke="#4e79a7" stroke-width="2" class="line"/>
  <g class="data-point" aria-label="48.3">
  <circle cx="60.00" cy="218.13" r="3.0" fill="#4e79a7" class="point"/>
  <g class="tooltip">
  <rect x="68.00" y="198.13" width="60.00" height="18.00" fill="white" stroke="#ccc" rx="3"/>
  <text x="72.00" y="211.13" fill="#333333" font-size="10" font-family="system-ui, -apple-system, sans-serif">48.3</text>
  </g>
  </g>
  <g class="data-point" aria-label="59.6">
  <circle cx="84.83" cy="138.16" r="3.0" fill="#4e79a7" class="point"/>
  <g class="tooltip">
  <rect x="92.83" y="118.16" width="60.00" height="18.00" fill="white" stroke="#ccc" rx="3"/>
  <text x="96.83" y="131.16" fill="#333333" font-size="10" font-family="system-ui, -apple-system, sans-serif">59.6</text>
  </g>
  </g>
  <g class="data-point" aria-label="60.5">
  <circle cx="109.66" cy="131.78" r="3.0" fill="#4e79a7" class="point"/>
  <g class="tooltip">
  <rect x="117.66" y="111.78" width="60.00" height="18.00" fill="white" stroke="#ccc" rx="3"/>
  <text x="121.66" y="124.78" fill="#333333" font-size="10" font-family="system-ui, -apple-system, sans-serif">60.5</text>
  </g>
  </g>
  <g class="data-point" aria-label="66.7">
  <circle cx="134.48" cy="88.28" r="3.0" fill="#4e79a7" class="point"/>
  <g class="tooltip">
  <rect x="142.48" y="68.28" width="60.00" height="18.00" fill="white" stroke="#ccc" rx="3"/>
  <text x="146.48" y="81.28" fill="#333333" font-size="10" font-family="system-ui, -apple-system, sans-serif">66.7</text>
  </g>
  </g>
  <g class="data-point" aria-label="72.1">
  <circle cx="159.31" cy="50.00" r="3.0" fill="#4e79a7" class="point"/>
  <g class="tooltip">
  <rect x="167.31" y="30.00" width="60.00" height="18.00" fill="white" stroke="#ccc" rx="3"/>
  <text x="171.31" y="43.00" fill="#333333" font-size="10" font-family="system-ui, -apple-system, sans-serif">72.1</text>
  </g>
  </g>
  <g class="data-point" aria-label="68.9">
  <circle cx="184.14" cy="72.24" r="3.0" fill="#4e79a7" class="point"/>
  <g class="tooltip">
  <rect x="192.14" y="52.24" width="60.00" height="18.00" fill="white" stroke="#ccc" rx="3"/>
  <text x="196.14" y="65.24" fill="#333333" font-size="10" font-family="system-ui, -apple-system, sans-serif">68.9</text>
  </g>
  </g>
  <g class="data-point" aria-label="65.7">
  <circle cx="208.97" cy="95.28" r="3.0" fill="#4e79a7" class="point"/>
  <g class="tooltip">
  <rect x="216.97" y="75.28" width="60.00" height="18.00" fill="white" stroke="#ccc" rx="3"/>
  <text x="220.97" y="88.28" fill="#333333" font-size="10" font-family="system-ui, -apple-system, sans-serif">65.7</text>
  </g>
  </g>
  <g class="data-point" aria-label="70.9">
  <circle cx="233.79" cy="58.07" r="3.0" fill="#4e79a7" class="point"/>
  <g class="tooltip">
  <rect x="241.79" y="38.07" width="60.00" height="18.00" fill="white" stroke="#ccc" rx="3"/>
  <text x="245.79" y="51.07" fill="#333333" font-size="10" font-family="system-ui, -apple-system, sans-serif">70.9</text>
  </g>
  </g>
  <g class="data-point" aria-label="66.6">
  <circle cx="258.62" cy="88.85" r="3.0" fill="#4e79a7" class="point"/>
  <g class="tooltip">
  <rect x="266.62" y="68.85" width="60.00" height="18.00" fill="white" stroke="#ccc" rx="3"/>
  <text x="270.62" y="81.85" fill="#333333" font-size="10" font-family="system-ui, -apple-system, sans-serif">66.6</text>
  </g>
  </g>
  <g class="data-point" aria-label="63.4">
  <circle cx="283.45" cy="111.46" r="3.0" fill="#4e79a7" class="point"/>
  <g class="tooltip">
  <rect x="291.45" y="91.46" width="60.00" height="18.00" fill="white" stroke="#ccc" rx="3"/>
  <text x="295.45" y="104.46" fill="#333333" font-size="10" font-family="system-ui, -apple-system, sans-serif">63.4</text>
  </g>
  </g>
  <g class="data-point" aria-label="49.1">
  <circle cx="308.28" cy="213.13" r="3.0" fill="#4e79a7" class="point"/>
  <g class="tooltip">
  <rect x="316.28" y="193.13" width="60.00" height="18.00" fill="white" stroke="#ccc" rx="3"/>
  <text x="320.28" y="206.13" fill="#333333" font-size="10" font-family="system-ui, -apple-system, sans-serif">49.1</text>
  </g>
  </g>
  <g class="data-point" aria-label="41.9">
  <circle cx="333.10" cy="264.10" r="3.0" fill="#4e79a7" class="point"/>
  <g class="tooltip">
  <rect x="341.10" y="244.10" width="60.00" height="18.00" fill="white" stroke="#ccc" rx="3"/>
  <text x="345.10" y="257.10" fill="#333333" font-size="10" font-family="system-ui, -apple-system, sans-serif">41.9</text>
  </g>
  </g>
  <g class="data-point" aria-label="39.7">
  <circle cx="357.93" cy="279.32" r="3.0" fill="#4e79a7" class="point"/>
  <g class="tooltip">
  <rect x="365.93" y="259.32" width="60.00" height="18.00" fill="white" stroke="#ccc" rx="3"/>
  <text x="369.93" y="272.32" fill="#333333" font-size="10" font-family="system-ui, -apple-system, sans-serif">39.7</text>
  </g>
  </g>
  <g class="data-point" aria-label="36.3">
  <circle cx="382.76" cy="303.62" r="3.0" fill="#4e79a7" class="point"/>
  <g class="tooltip">
  <rect x="390.76" y="283.62" width="60.00" height="18.00" fill="white" stroke="#ccc" rx="3"/>
  <text x="394.76" y="296.62" fill="#333333" font-size="10" font-family="system-ui, -apple-system, sans-serif">36.3</text>
  </g>
  </g>
  <g class="data-point" aria-label="34.7">
  <circle cx="407.59" cy="314.68" r="3.0" fill="#4e79a7" class="point"/>
  <g class="tooltip">
  <rect x="415.59" y="294.68" width="60.00" height="18.00" fill="white" stroke="#ccc" rx="3"/>
  <text x="419.59" y="307.68" fill="#333333" font-size="10" font-family="system-ui, -apple-system, sans-serif">34.7</text>
  </g>
  </g>
  <g class="data-point" aria-label="29.7">
  <circle cx="432.41" cy="350.00" r="3.0" fill="#4e79a7" class="point"/>
  <g class="tooltip">
  <rect x="440.41" y="330.00" width="60.00" height="18.00" fill="white" stroke="#ccc" rx="3"/>
  <text x="444.41" y="343.00" fill="#333333" font-size="10" font-family="system-ui, -apple-system, sans-serif">29.7</text>
  </g>
  </g>
  <g class="data-point" aria-label="34.3">
  <circle cx="457.24" cy="317.46" r="3.0" fill="#4e79a7" class="point"/>
  <g class="tooltip">
  <rect x="465.24" y="297.46" width="60.00" height="18.00" fill="white" stroke="#ccc" rx="3"/>
  <text x="469.24" y="310.46" fill="#333333" font-size="10" font-family="system-ui, -apple-system, sans-serif">34.3</text>
  </g>
  </g>
  <g class="data-point" aria-label="31.4">
  <circle cx="482.07" cy="338.59" r="3.0" fill="#4e79a7" class="point"/>
  <g class="tooltip">
  <rect x="490.07" y="318.59" width="60.00" height="18.00" fill="white" stroke="#ccc" rx="3"/>
  <text x="494.07" y="331.59" fill="#333333" font-size="10" font-family="system-ui, -apple-system, sans-serif">31.4</text>
  </g>
  </g>
  <g class="data-point" aria-label="37.9">
  <circle cx="506.90" cy="291.88" r="3.0" fill="#4e79a7" class="point"/>
  <g class="tooltip">
  <rect x="514.90" y="271.88" width="60.00" height="18.00" fill="white" stroke="#ccc" rx="3"/>
  <text x="518.90" y="284.88" fill="#333333" font-size="10" font-family="system-ui, -apple-system, sans-serif">37.9</text>
  </g>
  </g>
  <g class="data-point" aria-label="42.2">
  <circle cx="531.72" cy="261.94" r="3.0" fill="#4e79a7" class="point"/>
  <g class="tooltip">
  <rect x="539.72" y="241.94" width="60.00" height="18.00" fill="white" stroke="#ccc" rx="3"/>
  <text x="543.72" y="254.94" fill="#333333" font-size="10" font-family="system-ui, -apple-system, sans-serif">42.2</text>
  </g>
  </g>
  <g class="data-point" aria-label="45.2">
  <circle cx="556.55" cy="240.39" r="3.0" fill="#4e79a7" class="point"/>
  <g class="tooltip">
  <rect x="564.55" y="220.39" width="60.00" height="18.00" fill="white" stroke="#ccc" rx="3"/>
  <text x="568.55" y="233.39" fill="#333333" font-size="10" font-family="system-ui, -apple-system, sans-serif">45.2</text>
  </g>
  </g>
  <g class="data-point" aria-label="48.3">
  <circle cx="581.38" cy="218.80" r="3.0" fill="#4e79a7" class="point"/>
  <g class="tooltip">
  <rect x="589.38" y="198.80" width="60.00" height="18.00" fill="white" stroke="#ccc" rx="3"/>
  <text x="593.38" y="211.80" fill="#333333" font-size="10" font-family="system-ui, -apple-system, sans-serif">48.3</text>
  </g>
  </g>
  <g class="data-point" aria-label="56.0">
  <circle cx="606.21" cy="163.75" r="3.0" fill="#4e79a7" class="point"/>
  <g class="tooltip">
  <rect x="614.21" y="143.75" width="60.00" height="18.00" fill="white" stroke="#ccc" rx="3"/>
  <text x="618.21" y="156.75" fill="#333333" font-size="10" font-family="system-ui, -apple-system, sans-serif">56.0</text>
  </g>
  </g>
  <g class="data-point" aria-label="58.0">
  <circle cx="631.03" cy="149.99" r="3.0" fill="#4e79a7" class="point"/>
  <g class="tooltip">
  <rect x="639.03" y="129.99" width="60.00" height="18.00" fill="white" stroke="#ccc" rx="3"/>
  <text x="643.03" y="142.99" fill="#333333" font-size="10" font-family="system-ui, -apple-system, sans-serif">58.0</text>
  </g>
  </g>
  <g class="data-point" aria-label="61.8">
  <circle cx="655.86" cy="122.79" r="3.0" fill="#4e79a7" class="point"/>
  <g class="tooltip">
  <rect x="663.86" y="102.79" width="60.00" height="18.00" fill="white" stroke="#ccc" rx="3"/>
  <text x="667.86" y="115.79" fill="#333333" font-size="10" font-family="system-ui, -apple-system, sans-serif">61.8</text>
  </g>
  </g>
  <g class="data-point" aria-label="66.0">
  <circle cx="680.69" cy="92.97" r="3.0" fill="#4e79a7" class="point"/>
  <g class="tooltip">
  <rect x="688.69" y="72.97" width="60.00" height="18.00" fill="white" stroke="#ccc" rx="3"/>
  <text x="692.69" y="85.97" fill="#333333" font-size="10" font-family="system-ui, -apple-system, sans-serif">66.0</text>
  </g>
  </g>
  <g class="data-point" aria-label="65.1">
  <circle cx="705.52" cy="99.28" r="3.0" fill="#4e79a7" class="point"/>
  <g class="tooltip">
  <rect x="713.52" y="79.28" width="60.00" height="18.00" fill="white" stroke="#ccc" rx="3"/>
  <text x="717.52" y="92.28" fill="#333333" font-size="10" font-family="system-ui, -apple-system, sans-serif">65.1</text>
  </g>
  </g>
  <g class="data-point" aria-label="66.0">
  <circle cx="730.34" cy="93.13" r="3.0" fill="#4e79a7" class="point"/>
  <g class="tooltip">
  <rect x="738.34" y="73.13" width="60.00" height="18.00" fill="white" stroke="#ccc" rx="3"/>
  <text x="742.34" y="86.13" fill="#333333" font-size="10" font-family="system-ui, -apple-system, sans-serif">66.0</text>
  </g>
  </g>
  <g class="data-point" aria-label="62.2">
  <circle cx="755.17" cy="119.63" r="3.0" fill="#4e79a7" class="point"/>
  <g class="tooltip">
  <rect x="763.17" y="99.63" width="60.00" height="18.00" fill="white" stroke="#ccc" rx="3"/>
  <text x="767.17" y="112.63" fill="#333333" font-size="10" font-family="system-ui, -apple-system, sans-serif">62.2</text>
  </g>
  </g>
  <g class="data-point" aria-label="58.3">
  <circle cx="780.00" cy="147.44" r="3.0" fill="#4e79a7" class="point"/>
  <g class="tooltip">
  <rect x="788.00" y="127.44" width="60.00" height="18.00" fill="white" stroke="#ccc" rx="3"/>
  <text x="792.00" y="140.44" fill="#333333" font-size="10" font-family="system-ui, -apple-system, sans-serif">58.3</text>
  </g>
  </g>
  </g>
</svg>
