<svg xmlns="http://www.w3.org/2000/svg" viewBox="0 0 800 400" role="img" aria-labelledby="chart-title">
  <title id="chart-title">Live Sensor Data</title>
  <desc>Chart: Live Sensor Data</desc>
  <style>
    .tooltip { display: none; pointer-events: none; }
    .data-point:hover .tooltip { display: block; }
    .point { transition: r 0.15s; }
    .data-point:hover .point { r: 5; }
    .line { transition: stroke-width 0.2s; }
  </style>
  <rect x="0.00" y="0.00" width="800.00" height="400.00" fill="#ffffff"/>
  <g class="grid">
  <line x1="60.00" y1="325.15" x2="780.00" y2="325.15" stroke="#e0e0e0" stroke-width="0.5"/>
  <line x1="60.00" y1="262.86" x2="780.00" y2="262.86" stroke="#e0e0e0" stroke-width="0.5"/>
  <line x1="60.00" y1="200.58" x2="780.00" y2="200.58" stroke="#e0e0e0" stroke-width="0.5"/>
  <line x1="60.00" y1="138.30" x2="780.00" y2="138.30" stroke="#e0e0e0" stroke-width="0.5"/>
  <line x1="60.00" y1="76.01" x2="780.00" y2="76.01" stroke="#e0e0e0" stroke-width="0.5"/>
  </g>
  <g class="y-axis">
  <line x1="60.00" y1="50.00" x2="60.00" y2="350.00" stroke="#666666" stroke-width="1"/>
  <line x1="56.00" y1="325.15" x2="60.00" y2="325.15" stroke="#666666" stroke-width="1"/>
  <text x="52.00" y="329.15" text-anchor="end" fill="#333333" font-size="12" font-family="system-ui, -apple-system, sans-serif">30</text>
  <line x1="56.00" y1="262.86" x2="60.00" y2="262.86" stroke="#666666" stroke-width="1"/>
  <text x="52.00" y="266.86" text-anchor="end" fill="#333333" font-size="12" font-family="system-ui, -apple-system, sans-serif">40</text>
  <line x1="56.00" y1="200.58" x2="60.00" y2="200.58" stroke="#666666" stroke-width="1"/>
  <text x="52.00" y="204.58" text-anchor="end" fill="#333333" font-size="12" font-family="system-ui, -apple-system, sans-serif">50</text>
  <line x1="56.00" y1="138.30" x2="60.00" y2="138.30" stroke="#666666" stroke-width="1"/>
  <text x="52.00" y="142.30" text-anchor="end" fill="#333333" font-size="12" font-family="system-ui, -apple-system, sans-serif">60</text>
  <line x1="56.00" y1="76.01" x2="60.00" y2="76.01" stroke="#666666" stroke-width="1"/>
  <text x="52.00" y="80.01" text-anchor="end" fill="#333333" font-size="12" font-family="system-ui, -apple-system, sans-serif">70</text>
  </g>
  <g class="x-axis">
  <line x1="60.00" y1="350.00" x2="780.00" y2="350.00" stroke="#666666" stroke-width="1"/>
  <line x1="60.00" y1="350.00" x2="60.00" y2="354.00" stroke="#666666" stroke-width="1"/>
  <text x="60.00" y="366.00" text-anchor="middle" fill="#333333" font-size="12" font-family="system-ui, -apple-system, sans-serif">14:30:00</text>
  <line x1="184.14" y1="350.00" x2="184.14" y2="354.00" stroke="#666666" stroke-width="1"/>
  <text x="184.14" y="366.00" text-anchor="middle" fill="#333333" font-size="12" font-family="system-ui, -apple-system, sans-serif">14:30:10</text>
  <line x1="308.28" y1="350.00" x2="308.28" y2="354.00" stroke="#666666" stroke-width="1"/>
  <text x="308.28" y="366.00" text-anchor="middle" fill="#333333" font-size="12" font-family="system-ui, -apple-system, sans-serif">14:30:20</text>
  <line x1="432.41" y1="350.00" x2="432.41" y2="354.00" stroke="#666666" stroke-width="1"/>
  <text x="432.41" y="366.00" text-anchor="middle" fill="#333333" font-size="12" font-family="system-ui, -apple-system, sans-serif">14:30:30</text>
  <line x1="556.55" y1="350.00" x2="556.55" y2="354.00" stroke="#666666" stroke-width="1"/>
  <text x="556.55" y="366.00" text-anchor="middle" fill="#333333" font-size="12" font-family="system-ui, -apple-system, sans-serif">14:30:40</text>
  <line x1="680.69" y1="350.00" x2="680.69" y2="354.00" stroke="#666666" stroke-width="1"/>
  <text x="680.69" y="366.00" text-anchor="middle" fill="#333333" font-size="12" font-family="system-ui, -apple-system, sans-serif">14:30:50</text>
  </g>
  <text x="400.00" y="30.00" text-anchor="middle" fill="#333333" font-size="16" font-weight="bold" font-family="system-ui, -apple-system, sans-serif">Live Sensor Data</text>
  <g class="series-0">
  <path d="M60.00,178.70 C64.14,172.04 76.55,151.27 84.83,138.76 C93.10,126.24 101.38,107.00 109.66,103.64 C117.93,100.28 126.21,126.35 134.48,118.58 C142.76,110.81 151.03,67.48 159.31,57.04 C167.59,46.61 175.86,57.15 184.14,55.98 C192.41,54.81 200.69,40.14 208.97,50.00 C217.24,59.86 225.52,99.95 233.79,115.14 C242.07,130.32 250.34,140.03 258.62,141.11 C266.90,142.19 275.17,110.18 283.45,121.62 C291.72,133.07 300.00,193.64 308.28,209.77 C316.55,225.91 324.83,210.99 333.10,218.41 C341.38,225.84 349.66,238.52 357.93,254.34 C366.21,270.15 374.48,300.55 382.76,313.28 C391.03,326.02 399.31,326.08 407.59,330.74 C415.86,335.41 424.14,338.07 432.41,341.28 C440.69,344.49 448.97,357.65 457.24,350.00 C465.52,342.35 473.79,307.02 482.07,295.40 C490.34,283.78 498.62,279.88 506.90,280.27 C515.17,280.67 523.45,300.10 531.72,297.77 C540.00,295.44 548.28,285.62 556.55,266.32 C564.83,247.01 573.10,198.81 581.38,181.95 C589.66,165.09 597.93,171.70 606.21,165.15 C614.48,158.59 622.76,150.00 631.03,142.63 C639.31,135.26 647.59,130.08 655.86,120.93 C664.14,111.78 672.41,93.20 680.69,87.74 C688.97,82.28 697.24,93.00 705.52,88.19 C713.79,83.38 722.07,55.91 730.34,58.88 C738.62,61.86 746.90,96.69 755.17,106.03 C763.45,115.37 775.86,113.45 780.00,114.94" fill="none" stroke="#4e79a7" stroke-width="2" class="line"/>
  <g class="data-point" aria-label="53.5">
  <circle cx="60.00" cy="178.70" r="3.0" fill="#4e79a7" class="point"/>
  <g class="tooltip">
  <rect x="68.00" y="158.70" width="60.00" height="18.00" fill="white" stroke="#ccc" rx="3"/>
  <text x="72.00" y="171.70" fill="#333333" font-size="10" font-family="system-ui, -apple-system, sans-serif">53.5</text>
  </g>
  </g>
  <g class="data-point" aria-label="59.9">
  <circle cx="84.83" cy="138.76" r="3.0" fill="#4e79a7" class="point"/>
  <g class="tooltip">
  <rect x="92.83" y="118.76" width="60.00" height="18.00" fill="white" stroke="#ccc" rx="3"/>
  <text x="96.83" y="131.76" fill="#333333" font-size="10" font-family="system-ui, -apple-system, sans-serif">59.9</text>
  </g>
  </g>
  <g class="data-point" aria-label="65.6">
  <circle cx="109.66" cy="103.64" r="3.0" fill="#4e79a7" class="point"/>
  <g class="tooltip">
  <rect x="117.66" y="83.64" width="60.00" height="18.00" fill="white" stroke="#ccc" rx="3"/>
  <text x="121.66" y="96.64" fill="#333333" font-size="10" font-family="system-ui, -apple-system, sans-serif">65.6</text>
  </g>
  </g>
  <g class="data-point" aria-label="63.2">
  <circle cx="134.48" cy="118.58" r="3.0" fill="#4e79a7" class="point"/>
  <g class="tooltip">
  <rect x="142.48" y="98.58" width="60.00" height="18.00" fill="white" stroke="#ccc" rx="3"/>
  <text x="146.48" y="111.58" fill="#333333" font-size="10" font-family="system-ui, -apple-system, sans-serif">63.2</text>
  </g>
  </g>
  <g class="data-point" aria-label="73.0">
  <circle cx="159.31" cy="57.04" r="3.0" fill="#4e79a7" class="point"/>
  <g class="tooltip">
  <rect x="167.31" y="37.04" width="60.00" height="18.00" fill="white" stroke="#ccc" rx="3"/>
  <text x="171.31" y="50.04" fill="#333333" font-size="10" font-family="system-ui, -apple-system, sans-serif">73.0</text>
  </g>
  </g>
  <g class="data-point" aria-label="73.2">
  <circle cx="184.14" cy="55.98" r="3.0" fill="#4e79a7" class="point"/>
  <g class="tooltip">
  <rect x="192.14" y="35.98" width="60.00" height="18.00" fill="white" stroke="#ccc" rx="3"/>
  <text x="196.14" y="48.98" fill="#333333" font-size="10" font-family="system-ui, -apple-system, sans-serif">73.2</text>
  </g>
  </g>
  <g class="data-point" aria-label="74.2">
  <circle cx="208.97" cy="50.00" r="3.0" fill="#4e79a7" class="point"/>
  <g class="tooltip">
  <rect x="216.97" y="30.00" width="60.00" height="18.00" fill="white" stroke="#ccc" rx="3"/>
  <text x="220.97" y="43.00" fill="#333333" font-size="10" font-family="system-ui, -apple-system, sans-serif">74.2</text>
  </g>
  </g>
  <g class="data-point" aria-label="63.7">
  <circle cx="233.79" cy="115.14" r="3.0" fill="#4e79a7" class="point"/>
  <g class="tooltip">
  <rect x="241.79" y="95.14" width="60.00" height="18.00" fill="white" stroke="#ccc" rx="3"/>
  <text x="245.79" y="108.14" fill="#333333" font-size="10" font-family="system-ui, -apple-system, sans-serif">63.7</text>
  </g>
  </g>
  <g class="data-point" aria-label="59.5">
  <circle cx="258.62" cy="141.11" r="3.0" fill="#4e79a7" class="point"/>
  <g class="tooltip">
  <rect x="266.62" y="121.11" width="60.00" height="18.00" fill="white" stroke="#ccc" rx="3"/>
  <text x="270.62" y="134.11" fill="#333333" font-size="10" font-family="system-ui, -apple-system, sans-serif">59.5</text>
  </g>
  </g>
  <g class="data-point" aria-label="62.7">
  <circle cx="283.45" cy="121.62" r="3.0" fill="#4e79a7" class="point"/>
  <g class="tooltip">
  <rect x="291.45" y="101.62" width="60.00" height="18.00" fill="white" stroke="#ccc" rx="3"/>
  <text x="295.45" y="114.62" fill="#333333" font-size="10" font-family="system-ui, -apple-system, sans-serif">62.7</text>
  </g>
  </g>
  <g class="data-point" aria-label="48.5">
  <circle cx="308.28" cy="209.77" r="3.0" fill="#4e79a7" class="point"/>
  <g class="tooltip">
  <rect x="316.28" y="189.77" width="60.00" height="18.00" fill="white" stroke="#ccc" rx="3"/>
  <text x="320.28" y="202.77" fill="#333333" font-size="10" font-family="system-ui, -apple-system, sans-serif">48.5</text>
  </g>
  </g>
  <g class="data-point" aria-label="47.1">
  <circle cx="333.10" cy="218.41" r="3.0" fill="#4e79a7" class="point"/>
  <g class="tooltip">
  <rect x="341.10" y="198.41" width="60.00" height="18.00" fill="white" stroke="#ccc" rx="3"/>
  <text x="345.10" y="211.41" fill="#333333" font-size="10" font-family="system-ui, -apple-system, sans-serif">47.1</text>
  </g>
  </g>
  <g class="data-point" aria-label="41.4">
  <circle cx="357.93" cy="254.34" r="3.0" fill="#4e79a7" class="point"/>
  <g class="tooltip">
  <rect x="365.93" y="234.34" width="60.00" height="18.00" fill="white" stroke="#ccc" rx="3"/>
  <text x="369.93" y="247.34" fill="#333333" font-size="10" font-family="system-ui, -apple-system, sans-serif">41.4</text>
  </g>
  </g>
  <g class="data-point" aria-label="31.9">
  <circle cx="382.76" cy="313.28" r="3.0" fill="#4e79a7" class="point"/>
  <g class="tooltip">
  <rect x="390.76" y="293.28" width="60.00" height="18.00" fill="white" stroke="#ccc" rx="3"/>
  <text x="394.76" y="306.28" fill="#333333" font-size="10" font-family="system-ui, -apple-system, sans-serif">31.9</text>
  </g>
  </g>
  <g class="data-point" aria-label="29.1">
  <circle cx="407.59" cy="330.74" r="3.0" fill="#4e79a7" class="point"/>
  <g class="tooltip">
  <rect x="415.59" y="310.74" width="60.00" height="18.00" fill="white" stroke="#ccc" rx="3"/>
  <text x="419.59" y="323.74" fill="#333333" font-size="10" font-family="system-ui, -apple-system, sans-serif">29.1</text>
  </g>
  </g>
  <g class="data-point" aria-label="27.4">
  <circle cx="432.41" cy="341.28" r="3.0" fill="#4e79a7" class="point"/>
  <g class="tooltip">
  <rect x="440.41" y="321.28" width="60.00" height="18.00" fill="white" stroke="#ccc" rx="3"/>
  <text x="444.41" y="334.28" fill="#333333" font-size="10" font-family="system-ui, -apple-system, sans-serif">27.4</text>
  </g>
  </g>
  <g class="data-point" aria-label="26.0">
  <circle cx="457.24" cy="350.00" r="3.0" fill="#4e79a7" class="point"/>
  <g class="tooltip">
  <rect x="465.24" y="330.00" width="60.00" height="18.00" fill="white" stroke="#ccc" rx="3"/>
  <text x="469.24" y="343.00" fill="#333333" font-size="10" font-family="system-ui, -apple-system, sans-serif">26.0</text>
  </g>
  </g>
  <g class="data-point" aria-label="34.8">
  <circle cx="482.07" cy="295.40" r="3.0" fill="#4e79a7" class="point"/>
  <g class="tooltip">
  <rect x="490.07" y="275.40" width="60.00" height="18.00" fill="white" stroke="#ccc" rx="3"/>
  <text x="494.07" y="288.40" fill="#333333" font-size="10" font-family="system-ui, -apple-system, sans-serif">34.8</text>
  </g>
  </g>
  <g class="data-point" aria-label="37.2">
  <circle cx="506.90" cy="280.27" r="3.0" fill="#4e79a7" class="point"/>
  <g class="tooltip">
  <rect x="514.90" y="260.27" width="60.00" height="18.00" fill="white" stroke="#ccc" rx="3"/>
  <text x="518.90" y="273.27" fill="#333333" font-size="10" font-family="system-ui, -apple-system, sans-serif">37.2</text>
  </g>
  </g>
  <g class="data-point" aria-label="34.4">
  <circle cx="531.72" cy="297.77" r="3.0" fill="#4e79a7" class="point"/>
  <g class="tooltip">
  <rect x="539.72" y="277.77" width="60.00" height="18.00" fill="white" stroke="#ccc" rx="3"/>
  <text x="543.72" y="290.77" fill="#333333" font-size="10" font-family="system-ui, -apple-system, sans-serif">34.4</text>
  </g>
  </g>
  <g class="data-point" aria-label="39.4">
  <circle cx="556.55" cy="266.32" r="3.0" fill="#4e79a7" class="point"/>
  <g class="tooltip">
  <rect x="564.55" y="246.32" width="60.00" height="18.00" fill="white" stroke="#ccc" rx="3"/>
  <text x="568.55" y="259.32" fill="#333333" font-size="10" font-family="system-ui, -apple-system, sans-serif">39.4</text>
  </g>
  </g>
  <g class="data-point" aria-label="53.0">
  <circle cx="581.38" cy="181.95" r="3.0" fill="#4e79a7" class="point"/>
  <g class="tooltip">
  <rect x="589.38" y="161.95" width="60.00" height="18.00" fill="white" stroke="#ccc" rx="3"/>
  <text x="593.38" y="174.95" fill="#333333" font-size="10" font-family="system-ui, -apple-system, sans-serif">53.0</text>
  </g>
  </g>
  <g class="data-point" aria-label="55.7">
  <circle cx="606.21" cy="165.15" r="3.0" fill="#4e79a7" class="point"/>
  <g class="tooltip">
  <rect x="614.21" y="145.15" width="60.00" height="18.00" fill="white" stroke="#ccc" rx="3"/>
  <text x="618.21" y="158.15" fill="#333333" font-size="10" font-family="system-ui, -apple-system, sans-serif">55.7</text>
  </g>
  </g>
  <g class="data-point" aria-label="59.3">
  <circle cx="631.03" cy="142.63" r="3.0" fill="#4e79a7" class="point"/>
  <g class="tooltip">
  <rect x="639.03" y="122.63" width="60.00" height="18.00" fill="white" stroke="#ccc" rx="3"/>
  <text x="643.03" y="135.63" fill="#333333" font-size="10" font-family="system-ui, -apple-system, sans-serif">59.3</text>
  </g>
  </g>
  <g class="data-point" aria-label="62.8">
  <circle cx="655.86" cy="120.93" r="3.0" fill="#4e79a7" class="point"/>
  <g class="tooltip">
  <rect x="663.86" y="100.93" width="60.00" height="18.00" fill="white" stroke="#ccc" rx="3"/>
  <text x="667.86" y="113.93" fill="#333333" font-size="10" font-family="system-ui, -apple-system, sans-serif">62.8</text>
  </g>
  </g>
  <g class="data-point" aria-label="68.1">
  <circle cx="680.69" cy="87.74" r="3.0" fill="#4e79a7" class="point"/>
  <g class="tooltip">
  <rect x="688.69" y="67.74" width="60.00" height="18.00" fill="white" stroke="#ccc" rx="3"/>
  <text x="692.69" y="80.74" fill="#333333" font-size="10" font-family="system-ui, -apple-system, sans-serif">68.1</text>
  </g>
  </g>
  <g class="data-point" aria-label="68.0">
  <circle cx="705.52" cy="88.19" r="3.0" fill="#4e79a7" class="point"/>
  <g class="tooltip">
  <rect x="713.52" y="68.19" width="60.00" height="18.00" fill="white" stroke="#ccc" rx="3"/>
  <text x="717.52" y="81.19" fill="#333333" font-size="10" font-family="system-ui, -apple-system, sans-serif">68.0</text>
  </g>
  </g>
  <g class="data-point" aria-label="72.8">
  <circle cx="730.34" cy="58.88" r="3.0" fill="#4e79a7" class="point"/>
  <g class="tooltip">
  <rect x="738.34" y="38.88" width="60.00" height="18.00" fill="white" stroke="#ccc" rx="3"/>
  <text x="742.34" y="51.88" fill="#333333" font-size="10" font-family="system-ui, -apple-system, sans-serif">72.8</text>
  </g>
  </g>
  <g class="data-point" aria-label="65.2">
  <circle cx="755.17" cy="106.03" r="3.0" fill="#4e79a7" class="point"/>
  <g class="tooltip">
  <rect x="763.17" y="86.03" width="60.00" height="18.00" fill="white" stroke="#ccc" rx="3"/>
  <text x="767.17" y="99.03" fill="#333333" font-size="10" font-family="system-ui, -apple-system, sans-serif">65.2</text>
  </g>
  </g>
  <g class="data-point" aria-label="63.8">
  <circle cx="780.00" cy="114.94" r="3.0" fill="#4e79a7" class="point"/>
  <g class="tooltip">
  <rect x="788.00" y="94.94" width="60.00" height="18.00" fill="white" stroke="#ccc" rx="3"/>
  <text x="792.00" y="107.94" fill="#333333" font-size="10" font-family="system-ui, -apple-system, sans-serif">63.8</text>
  </g>
  </g>
  </g>
</svg>
