<svg xmlns="http://www.w3.org/2000/svg" viewBox="0 0 800 400" role="img" aria-labelledby="chart-title">
  <title id="chart-title">Live Sensor Data</title>
  <desc>Chart: Live Sensor Data</desc>
  <style>
    .tooltip { display: none; pointer-events: none; }
    .data-point:hover .tooltip { display: block; }
    .point { transition: r 0.15s; }
    .data-point:hover .point { r: 5; }
    .line { transition: stroke-width 0.2s; }
  </style>
  <rect x="0.00" y="0.00" width="800.00" height="400.00" fill="#ffffff"/>
  <g class="grid">
  <line x1="60.00" y1="324.39" x2="780.00" y2="324.39" stroke="#e0e0e0" stroke-width="0.5"/>
  <line x1="60.00" y1="263.05" x2="780.00" y2="263.05" stroke="#e0e0e0" stroke-width="0.5"/>
  <line x1="60.00" y1="201.71" x2="780.00" y2="201.71" stroke="#e0e0e0" stroke-width="0.5"/>
  <line x1="60.00" y1="140.36" x2="780.00" y2="140.36" stroke="#e0e0e0" stroke-width="0.5"/>
  <line x1="60.00" y1="79.02" x2="780.00" y2="79.02" stroke="#e0e0e0" stroke-width="0.5"/>
  </g>
  <g class="y-axis">
  <line x1="60.00" y1="50.00" x2="60.00" y2="350.00" stroke="#666666" stroke-width="1"/>
  <line x1="56.00" y1="324.39" x2="60.00" y2="324.39" stroke="#666666" stroke-width="1"/>
  <text x="52.00" y="328.39" text-anchor="end" fill="#333333" font-size="12" font-family="system-ui, -apple-system, sans-serif">30</text>
  <line x1="56.00" y1="263.05" x2="60.00" y2="263.05" stroke="#666666" stroke-width="1"/>
  <text x="52.00" y="267.05" text-anchor="end" fill="#333333" font-size="12" font-family="system-ui, -apple-system, sans-serif">40</text>
  <line x1="56.00" y1="201.71" x2="60.00" y2="201.71" stroke="#666666" stroke-width="1"/>
  <text x="52.00" y="205.71" text-anchor="end" fill="#333333" font-size="12" font-family="system-ui, -apple-system, sans-serif">50</text>
  <line x1="56.00" y1="140.36" x2="60.00" y2="140.36" stroke="#666666" stroke-width="1"/>
  <text x="52.00" y="144.36" text-anchor="end" fill="#333333" font-size="12" font-family="system-ui, -apple-system, sans-serif">60</text>
  <line x1="56.00" y1="79.02" x2="60.00" y2="79.02" stroke="#666666" stroke-width="1"/>
  <text x="52.00" y="83.02" text-anchor="end" fill="#333333" font-size="12" font-family="system-ui, -apple-system, sans-serif">70</text>
  </g>
  <g class="x-axis">
  <line x1="60.00" y1="350.00" x2="780.00" y2="350.00" stroke="#666666" stroke-width="1"/>
  <line x1="60.00" y1="350.00" x2="60.00" y2="354.00" stroke="#666666" stroke-width="1"/>
  <text x="60.00" y="366.00" text-anchor="middle" fill="#333333" font-size="12" font-family="system-ui, -apple-system, sans-serif">1.718e+09</text>
  <line x1="184.14" y1="350.00" x2="184.14" y2="354.00" stroke="#666666" stroke-width="1"/>
  <text x="184.14" y="366.00" text-anchor="middle" fill="#333333" font-size="12" font-family="system-ui, -apple-system, sans-serif">1.718e+09</text>
  <line x1="308.28" y1="350.00" x2="308.28" y2="354.00" stroke="#666666" stroke-width="1"/>
  <text x="308.28" y="366.00" text-anchor="middle" fill="#333333" font-size="12" font-family="system-ui, -apple-system, sans-serif">1.718e+09</text>
  <line x1="432.41" y1="350.00" x2="432.41" y2="354.00" stroke="#666666" stroke-width="1"/>
  <text x="432.41" y="366.00" text-anchor="middle" fill="#333333" font-size="12" font-family="system-ui, -apple-system, sans-serif">1.718e+09</text>
  <line x1="556.55" y1="350.00" x2="556.55" y2="354.00" stroke="#666666" stroke-width="1"/>
  <text x="556.55" y="366.00" text-anchor="middle" fill="#333333" font-size="12" font-family="system-ui, -apple-system, sans-serif">1.718e+09</text>
  <line x1="680.69" y1="350.00" x2="680.69" y2="354.00" stroke="#666666" stroke-width="1"/>
  <text x="680.69" y="366.00" text-anchor="middle" fill="#333333" font-size="12" font-family="system-ui, -apple-system, sans-serif">1.718e+09</text>
  </g>
  <text x="400.00" y="30.00" text-anchor="middle" fill="#333333" font-size="16" font-weight="bold" font-family="system-ui, -apple-system, sans-serif">Live Sensor Data</text>
  <g class="series-0">
  <path d="M60.00,199.14 C64.14,196.61 76.55,199.35 84.83,183.95 C93.10,168.54 101.38,117.36 109.66,106.72 C117.93,96.09 126.21,118.78 134.48,120.11 C142.76,121.45 151.03,126.41 159.31,114.72 C167.59,103.04 175.86,55.54 184.14,50.00 C192.41,44.46 200.69,72.98 208.97,81.47 C217.24,89.96 225.52,98.84 233.79,100.94 C242.07,103.04 250.34,81.27 258.62,94.05 C266.90,106.84 275.17,164.49 283.45,177.66 C291.72,190.83 300.00,169.21 308.28,173.08 C316.55,176.95 324.83,183.18 333.10,200.89 C341.38,218.60 349.66,260.70 357.93,279.34 C366.21,297.99 374.48,305.59 382.76,312.75 C391.03,319.91 399.31,317.69 407.59,322.31 C415.86,326.92 424.14,335.81 432.41,340.43 C440.69,345.04 448.97,355.16 457.24,350.00 C465.52,344.84 473.79,315.89 482.07,309.47 C490.34,303.06 498.62,318.93 506.90,311.49 C515.17,304.05 523.45,273.87 531.72,264.85 C540.00,255.83 548.28,272.03 556.55,257.36 C564.83,242.69 573.10,192.80 581.38,176.83 C589.66,160.86 597.93,171.38 606.21,161.54 C614.48,151.71 622.76,122.24 631.03,117.81 C639.31,113.39 647.59,143.31 655.86,135.00 C664.14,126.69 672.41,79.61 680.69,67.95 C688.97,56.30 697.24,67.67 705.52,65.08 C713.79,62.48 722.07,51.87 730.34,52.39 C738.62,52.91 746.90,55.95 755.17,68.20 C763.45,80.44 775.86,116.25 780.00,125.85" fill="none" stroke="#4e79a7" stroke-width="2" class="line"/>
  <g class="data-point" aria-label="50.4">
  <circle cx="60.00" cy="199.14" r="3.0" fill="#4e79a7" class="point"/>
  <g class="tooltip">
  <rect x="68.00" y="179.14" width="60.00" height="18.00" fill="white" stroke="#ccc" rx="3"/>
  <text x="72.00" y="192.14" fill="#333333" font-size="10" font-family="system-ui, -apple-system, sans-serif">50.4</text>
  </g>
  </g>
  <g class="data-point" aria-label="52.9">
  <circle cx="84.83" cy="183.95" r="3.0" fill="#4e79a7" class="point"/>
  <g class="tooltip">
  <rect x="92.83" y="163.95" width="60.00" height="18.00" fill="white" stroke="#ccc" rx="3"/>
  <text x="96.83" y="176.95" fill="#333333" font-size="10" font-family="system-ui, -apple-system, sans-serif">52.9</text>
  </g>
  </g>
  <g class="data-point" aria-label="65.5">
  <circle cx="109.66" cy="106.72" r="3.0" fill="#4e79a7" class="point"/>
  <g class="tooltip">
  <rect x="117.66" y="86.72" width="60.00" height="18.00" fill="white" stroke="#ccc" rx="3"/>
  <text x="121.66" y="99.72" fill="#333333" font-size="10" font-family="system-ui, -apple-system, sans-serif">65.5</text>
  </g>
  </g>
  <g class="data-point" aria-label="63.3">
  <circle cx="134.48" cy="120.11" r="3.0" fill="#4e79a7" class="point"/>
  <g class="tooltip">
  <rect x="142.48" y="100.11" width="60.00" height="18.00" fill="white" stroke="#ccc" rx="3"/>
  <text x="146.48" y="113.11" fill="#333333" font-size="10" font-family="system-ui, -apple-system, sans-serif">63.3</text>
  </g>
  </g>
  <g class="data-point" aria-label="64.2">
  <circle cx="159.31" cy="114.72" r="3.0" fill="#4e79a7" class="point"/>
  <g class="tooltip">
  <rect x="167.31" y="94.72" width="60.00" height="18.00" fill="white" stroke="#ccc" rx="3"/>
  <text x="171.31" y="107.72" fill="#333333" font-size="10" font-family="system-ui, -apple-system, sans-serif">64.2</text>
  </g>
  </g>
  <g class="data-point" aria-label="74.7">
  <circle cx="184.14" cy="50.00" r="3.0" fill="#4e79a7" class="point"/>
  <g class="tooltip">
  <rect x="192.14" y="30.00" width="60.00" height="18.00" fill="white" stroke="#ccc" rx="3"/>
  <text x="196.14" y="43.00" fill="#333333" font-size="10" font-family="system-ui, -apple-system, sans-serif">74.7</text>
  </g>
  </g>
  <g class="data-point" aria-label="69.6">
  <circle cx="208.97" cy="81.47" r="3.0" fill="#4e79a7" class="point"/>
  <g class="tooltip">
  <rect x="216.97" y="61.47" width="60.00" height="18.00" fill="white" stroke="#ccc" rx="3"/>
  <text x="220.97" y="74.47" fill="#333333" font-size="10" font-family="system-ui, -apple-system, sans-serif">69.6</text>
  </g>
  </g>
  <g class="data-point" aria-label="66.4">
  <circle cx="233.79" cy="100.94" r="3.0" fill="#4e79a7" class="point"/>
  <g class="tooltip">
  <rect x="241.79" y="80.94" width="60.00" height="18.00" fill="white" stroke="#ccc" rx="3"/>
  <text x="245.79" y="93.94" fill="#333333" font-size="10" font-family="system-ui, -apple-system, sans-serif">66.4</text>
  </g>
  </g>
  <g class="data-point" aria-label="67.5">
  <circle cx="258.62" cy="94.05" r="3.0" fill="#4e79a7" class="point"/>
  <g class="tooltip">
  <rect x="266.62" y="74.05" width="60.00" height="18.00" fill="white" stroke="#ccc" rx="3"/>
  <text x="270.62" y="87.05" fill="#333333" font-size="10" font-family="system-ui, -apple-system, sans-serif">67.5</text>
  </g>
  </g>
  <g class="data-point" aria-label="53.9">
  <circle cx="283.45" cy="177.66" r="3.0" fill="#4e79a7" class="point"/>
  <g class="tooltip">
  <rect x="291.45" y="157.66" width="60.00" height="18.00" fill="white" stroke="#ccc" rx="3"/>
  <text x="295.45" y="170.66" fill="#333333" font-size="10" font-family="system-ui, -apple-system, sans-serif">53.9</text>
  </g>
  </g>
  <g class="data-point" aria-label="54.7">
  <circle cx="308.28" cy="173.08" r="3.0" fill="#4e79a7" class="point"/>
  <g class="tooltip">
  <rect x="316.28" y="153.08" width="60.00" height="18.00" fill="white" stroke="#ccc" rx="3"/>
  <text x="320.28" y="166.08" fill="#333333" font-size="10" font-family="system-ui, -apple-system, sans-serif">54.7</text>
  </g>
  </g>
  <g class="data-point" aria-label="50.1">
  <circle cx="333.10" cy="200.89" r="3.0" fill="#4e79a7" class="point"/>
  <g class="tooltip">
  <rect x="341.10" y="180.89" width="60.00" height="18.00" fill="white" stroke="#ccc" rx="3"/>
  <text x="345.10" y="193.89" fill="#333333" font-size="10" font-family="system-ui, -apple-system, sans-serif">50.1</text>
  </g>
  </g>
  <g class="data-point" aria-label="37.3">
  <circle cx="357.93" cy="279.34" r="3.0" fill="#4e79a7" class="point"/>
  <g class="tooltip">
  <rect x="365.93" y="259.34" width="60.00" height="18.00" fill="white" stroke="#ccc" rx="3"/>
  <text x="369.93" y="272.34" fill="#333333" font-size="10" font-family="system-ui, -apple-system, sans-serif">37.3</text>
  </g>
  </g>
  <g class="data-point" aria-label="31.9">
  <circle cx="382.76" cy="312.75" r="3.0" fill="#4e79a7" class="point"/>
  <g class="tooltip">
  <rect x="390.76" y="292.75" width="60.00" height="18.00" fill="white" stroke="#ccc" rx="3"/>
  <text x="394.76" y="305.75" fill="#333333" font-size="10" font-family="system-ui, -apple-system, sans-serif">31.9</text>
  </g>
  </g>
  <g class="data-point" aria-label="30.3">
  <circle cx="407.59" cy="322.31" r="3.0" fill="#4e79a7" class="point"/>
  <g class="tooltip">
  <rect x="415.59" y="302.31" width="60.00" height="18.00" fill="white" stroke="#ccc" rx="3"/>
  <text x="419.59" y="315.31" fill="#333333" font-size="10" font-family="system-ui, -apple-system, sans-serif">30.3</text>
  </g>
  </g>
  <g class="data-point" aria-label="27.4">
  <circle cx="432.41" cy="340.43" r="3.0" fill="#4e79a7" class="point"/>
  <g class="tooltip">
  <rect x="440.41" y="320.43" width="60.00" height="18.00" fill="white" stroke="#ccc" rx="3"/>
  <text x="444.41" y="333.43" fill="#333333" font-size="10" font-family="system-ui, -apple-system, sans-serif">27.4</text>
  </g>
  </g>
  <g class="data-point" aria-label="25.8">
  <circle cx="457.24" cy="350.00" r="3.0" fill="#4e79a7" class="point"/>
  <g class="tooltip">
  <rect x="465.24" y="330.00" width="60.00" height="18.00" fill="white" stroke="#ccc" rx="3"/>
  <text x="469.24" y="343.00" fill="#333333" font-size="10" font-family="system-ui, -apple-system, sans-serif">25.8</text>
  </g>
  </g>
  <g class="data-point" aria-label="32.4">
  <circle cx="482.07" cy="309.47" r="3.0" fill="#4e79a7" class="point"/>
  <g class="tooltip">
  <rect x="490.07" y="289.47" width="60.00" height="18.00" fill="white" stroke="#ccc" rx="3"/>
  <text x="494.07" y="302.47" fill="#333333" font-size="10" font-family="system-ui, -apple-system, sans-serif">32.4</text>
  </g>
  </g>
  <g class="data-point" aria-label="32.1">
  <circle cx="506.90" cy="311.49" r="3.0" fill="#4e79a7" class="point"/>
  <g class="tooltip">
  <rect x="514.90" y="291.49" width="60.00" height="18.00" fill="white" stroke="#ccc" rx="3"/>
  <text x="518.90" y="304.49" fill="#333333" font-size="10" font-family="system-ui, -apple-system, sans-serif">32.1</text>
  </g>
  </g>
  <g class="data-point" aria-label="39.7">
  <circle cx="531.72" cy="264.85" r="3.0" fill="#4e79a7" class="point"/>
  <g class="tooltip">
  <rect x="539.72" y="244.85" width="60.00" height="18.00" fill="white" stroke="#ccc" rx="3"/>
  <text x="543.72" y="257.85" fill="#333333" font-size="10" font-family="system-ui, -apple-system, sans-serif">39.7</text>
  </g>
  </g>
  <g class="data-point" aria-label="40.9">
  <circle cx="556.55" cy="257.36" r="3.0" fill="#4e79a7" class="point"/>
  <g class="tooltip">
  <rect x="564.55" y="237.36" width="60.00" height="18.00" fill="white" stroke="#ccc" rx="3"/>
  <text x="568.55" y="250.36" fill="#333333" font-size="10" font-family="system-ui, -apple-system, sans-serif">40.9</text>
  </g>
  </g>
  <g class="data-point" aria-label="54.1">
  <circle cx="581.38" cy="176.83" r="3.0" fill="#4e79a7" class="point"/>
  <g class="tooltip">
  <rect x="589.38" y="156.83" width="60.00" height="18.00" fill="white" stroke="#ccc" rx="3"/>
  <text x="593.38" y="169.83" fill="#333333" font-size="10" font-family="system-ui, -apple-system, sans-serif">54.1</text>
  </g>
  </g>
  <g class="data-point" aria-label="56.5">
  <circle cx="606.21" cy="161.54" r="3.0" fill="#4e79a7" class="point"/>
  <g class="tooltip">
  <rect x="614.21" y="141.54" width="60.00" height="18.00" fill="white" stroke="#ccc" rx="3"/>
  <text x="618.21" y="154.54" fill="#333333" font-size="10" font-family="system-ui, -apple-system, sans-serif">56.5</text>
  </g>
  </g>
  <g class="data-point" aria-label="63.7">
  <circle cx="631.03" cy="117.81" r="3.0" fill="#4e79a7" class="point"/>
  <g class="tooltip">
  <rect x="639.03" y="97.81" width="60.00" height="18.00" fill="white" stroke="#ccc" rx="3"/>
  <text x="643.03" y="110.81" fill="#333333" font-size="10" font-family="system-ui, -apple-system, sans-serif">63.7</text>
  </g>
  </g>
  <g class="data-point" aria-label="60.9">
  <circle cx="655.86" cy="135.00" r="3.0" fill="#4e79a7" class="point"/>
  <g class="tooltip">
  <rect x="663.86" y="115.00" width="60.00" height="18.00" fill="white" stroke="#ccc" rx="3"/>
  <text x="667.86" y="128.00" fill="#333333" font-size="10" font-family="system-ui, -apple-system, sans-serif">60.9</text>
  </g>
  </g>
  <g class="data-point" aria-label="71.8">
  <circle cx="680.69" cy="67.95" r="3.0" fill="#4e79a7" class="point"/>
  <g class="tooltip">
  <rect x="688.69" y="47.95" width="60.00" height="18.00" fill="white" stroke="#ccc" rx="3"/>
  <text x="692.69" y="60.95" fill="#333333" font-size="10" font-family="system-ui, -apple-system, sans-serif">71.8</text>
  </g>
  </g>
  <g class="data-point" aria-label="72.3">
  <circle cx="705.52" cy="65.08" r="3.0" fill="#4e79a7" class="point"/>
  <g class="tooltip">
  <rect x="713.52" y="45.08" width="60.00" height="18.00" fill="white" stroke="#ccc" rx="3"/>
  <text x="717.52" y="58.08" fill="#333333" font-size="10" font-family="system-ui, -apple-system, sans-serif">72.3</text>
  </g>
  </g>
  <g class="data-point" aria-label="74.3">
  <circle cx="730.34" cy="52.39" r="3.0" fill="#4e79a7" class="point"/>
  <g class="tooltip">
  <rect x="738.34" y="32.39" width="60.00" height="18.00" fill="white" stroke="#ccc" rx="3"/>
  <text x="742.34" y="45.39" fill="#333333" font-size="10" font-family="system-ui, -apple-system, sans-serif">74.3</text>
  </g>
  </g>
  <g class="data-point" aria-label="71.8">
  <circle cx="755.17" cy="68.20" r="3.0" fill="#4e79a7" class="point"/>
  <g class="tooltip">
  <rect x="763.17" y="48.20" width="60.00" height="18.00" fill="white" stroke="#ccc" rx="3"/>
  <text x="767.17" y="61.20" fill="#333333" font-size="10" font-family="system-ui, -apple-system, sans-serif">71.8</text>
  </g>
  </g>
  <g class="data-point" aria-label="62.4">
  <circle cx="780.00" cy="125.85" r="3.0" fill="#4e79a7" class="point"/>
  <g class="tooltip">
  <rect x="788.00" y="105.85" width="60.00" height="18.00" fill="white" stroke="#ccc" rx="3"/>
  <text x="792.00" y="118.85" fill="#333333" font-size="10" font-family="system-ui, -apple-system, sans-serif">62.4</text>
  </g>
  </g>
  </g>
</svg>
