<svg xmlns="http://www.w3.org/2000/svg" viewBox="0 0 500 300" role="img">
  <style>
    .tooltip { display: none; pointer-events: none; }
    .data-point:hover .tooltip { display: block; }
    .point { transition: r 0.15s; }
    .data-point:hover .point { r: 5; }
    .line { transition: stroke-width 0.2s; }
  </style>
  <rect x="0.00" y="0.00" width="500.00" height="300.00" fill="#1e1e1e"/>
  <g class="grid">
  <line x1="60.00" y1="225.58" x2="480.00" y2="225.58" stroke="#404040" stroke-width="0.5"/>
  <line x1="60.00" y1="176.74" x2="480.00" y2="176.74" stroke="#404040" stroke-width="0.5"/>
  <line x1="60.00" y1="127.91" x2="480.00" y2="127.91" stroke="#404040" stroke-width="0.5"/>
  <line x1="60.00" y1="79.07" x2="480.00" y2="79.07" stroke="#404040" stroke-width="0.5"/>
  </g>
  <g class="y-axis">
  <line x1="60.00" y1="40.00" x2="60.00" y2="250.00" stroke="#888888" stroke-width="1"/>
  <line x1="56.00" y1="225.58" x2="60.00" y2="225.58" stroke="#888888" stroke-width="1"/>
  <text x="52.00" y="229.58" text-anchor="end" fill="#cccccc" font-size="12" font-family="system-ui, -apple-system, sans-serif">50%</text>
  <line x1="56.00" y1="176.74" x2="60.00" y2="176.74" stroke="#888888" stroke-width="1"/>
  <text x="52.00" y="180.74" text-anchor="end" fill="#cccccc" font-size="12" font-family="system-ui, -apple-system, sans-serif">60%</text>
  <line x1="56.00" y1="127.91" x2="60.00" y2="127.91" stroke="#888888" stroke-width="1"/>
  <text x="52.00" y="131.91" text-anchor="end" fill="#cccccc" font-size="12" font-family="system-ui, -apple-system, sans-serif">70%</text>
  <line x1="56.00" y1="79.07" x2="60.00" y2="79.07" stroke="#888888" stroke-width="1"/>
  <text x="52.00" y="83.07" text-anchor="end" fill="#cccccc" font-size="12" font-family="system-ui, -apple-system, sans-serif">80%</text>
  </g>
  <g class="x-axis">
  <line x1="60.00" y1="250.00" x2="480.00" y2="250.00" stroke="#888888" stroke-width="1"/>
  <line x1="112.75" y1="250.00" x2="112.75" y2="254.00" stroke="#888888" stroke-width="1"/>
  <text x="112.75" y="266.00" text-anchor="middle" fill="#cccccc" font-size="12" font-family="system-ui, -apple-system, sans-serif">02:53</text>
  <line x1="214.20" y1="250.00" x2="214.20" y2="254.00" stroke="#888888" stroke-width="1"/>
  <text x="214.20" y="266.00" text-anchor="middle" fill="#cccccc" font-size="12" font-family="system-ui, -apple-system, sans-serif">08:26</text>
  <line x1="315.65" y1="250.00" x2="315.65" y2="254.00" stroke="#888888" stroke-width="1"/>
  <text x="315.65" y="266.00" text-anchor="middle" fill="#cccccc" font-size="12" font-family="system-ui, -apple-system, sans-serif">14:00</text>
  <line x1="417.10" y1="250.00" x2="417.10" y2="254.00" stroke="#888888" stroke-width="1"/>
  <text x="417.10" y="266.00" text-anchor="middle" fill="#cccccc" font-size="12" font-family="system-ui, -apple-system, sans-serif">19:33</text>
  </g>
  <g class="series-0">
  <path d="M60.00,69.30 C67.61,66.86 91.20,59.53 105.65,54.65 C120.11,49.77 134.57,39.19 146.74,40.00 C158.91,40.81 168.04,46.51 178.70,59.53 C189.35,72.56 200.00,96.98 210.65,118.14 C221.30,139.30 232.72,168.60 242.61,186.51 C252.50,204.42 260.87,215.00 270.00,225.58 C279.13,236.16 286.74,248.37 297.39,250.00 C308.04,251.63 321.74,243.49 333.91,235.35 C346.09,227.21 358.26,215.00 370.43,201.16 C382.61,187.33 393.26,169.42 406.96,152.33 C420.65,135.23 440.43,110.81 452.61,98.60 C464.78,86.40 475.43,82.33 480.00,79.07" fill="none" stroke="#4e79a7" stroke-width="2" class="line"/>
  <g class="data-point" aria-label="82%">
  <circle cx="60.00" cy="69.30" r="3.0" fill="#4e79a7" class="point"/>
  <g class="tooltip">
  <rect x="68.00" y="49.30" width="60.00" height="18.00" fill="white" stroke="#ccc" rx="3"/>
  <text x="72.00" y="62.30" fill="#cccccc" font-size="10" font-family="system-ui, -apple-system, sans-serif">82%</text>
  </g>
  </g>
  <g class="data-point" aria-label="85%">
  <circle cx="105.65" cy="54.65" r="3.0" fill="#4e79a7" class="point"/>
  <g class="tooltip">
  <rect x="113.65" y="34.65" width="60.00" height="18.00" fill="white" stroke="#ccc" rx="3"/>
  <text x="117.65" y="47.65" fill="#cccccc" font-size="10" font-family="system-ui, -apple-system, sans-serif">85%</text>
  </g>
  </g>
  <g class="data-point" aria-label="88%">
  <circle cx="146.74" cy="40.00" r="3.0" fill="#4e79a7" class="point"/>
  <g class="tooltip">
  <rect x="154.74" y="20.00" width="60.00" height="18.00" fill="white" stroke="#ccc" rx="3"/>
  <text x="158.74" y="33.00" fill="#cccccc" font-size="10" font-family="system-ui, -apple-system, sans-serif">88%</text>
  </g>
  </g>
  <g class="data-point" aria-label="84%">
  <circle cx="178.70" cy="59.53" r="3.0" fill="#4e79a7" class="point"/>
  <g class="tooltip">
  <rect x="186.70" y="39.53" width="60.00" height="18.00" fill="white" stroke="#ccc" rx="3"/>
  <text x="190.70" y="52.53" fill="#cccccc" font-size="10" font-family="system-ui, -apple-system, sans-serif">84%</text>
  </g>
  </g>
  <g class="data-point" aria-label="72%">
  <circle cx="210.65" cy="118.14" r="3.0" fill="#4e79a7" class="point"/>
  <g class="tooltip">
  <rect x="218.65" y="98.14" width="60.00" height="18.00" fill="white" stroke="#ccc" rx="3"/>
  <text x="222.65" y="111.14" fill="#cccccc" font-size="10" font-family="system-ui, -apple-system, sans-serif">72%</text>
  </g>
  </g>
  <g class="data-point" aria-label="58%">
  <circle cx="242.61" cy="186.51" r="3.0" fill="#4e79a7" class="point"/>
  <g class="tooltip">
  <rect x="250.61" y="166.51" width="60.00" height="18.00" fill="white" stroke="#ccc" rx="3"/>
  <text x="254.61" y="179.51" fill="#cccccc" font-size="10" font-family="system-ui, -apple-system, sans-serif">58%</text>
  </g>
  </g>
  <g class="data-point" aria-label="50%">
  <circle cx="270.00" cy="225.58" r="3.0" fill="#4e79a7" class="point"/>
  <g class="tooltip">
  <rect x="278.00" y="205.58" width="60.00" height="18.00" fill="white" stroke="#ccc" rx="3"/>
  <text x="282.00" y="218.58" fill="#cccccc" font-size="10" font-family="system-ui, -apple-system, sans-serif">50%</text>
  </g>
  </g>
  <g class="data-point" aria-label="45%">
  <circle cx="297.39" cy="250.00" r="3.0" fill="#4e79a7" class="point"/>
  <g class="tooltip">
  <rect x="305.39" y="230.00" width="60.00" height="18.00" fill="white" stroke="#ccc" rx="3"/>
  <text x="309.39" y="243.00" fill="#cccccc" font-size="10" font-family="system-ui, -apple-system, sans-serif">45%</text>
  </g>
  </g>
  <g class="data-point" aria-label="48%">
  <circle cx="333.91" cy="235.35" r="3.0" fill="#4e79a7" class="point"/>
  <g class="tooltip">
  <rect x="341.91" y="215.35" width="60.00" height="18.00" fill="white" stroke="#ccc" rx="3"/>
  <text x="345.91" y="228.35" fill="#cccccc" font-size="10" font-family="system-ui, -apple-system, sans-serif">48%</text>
  </g>
  </g>
  <g class="data-point" aria-label="55%">
  <circle cx="370.43" cy="201.16" r="3.0" fill="#4e79a7" class="point"/>
  <g class="tooltip">
  <rect x="378.43" y="181.16" width="60.00" height="18.00" fill="white" stroke="#ccc" rx="3"/>
  <text x="382.43" y="194.16" fill="#cccccc" font-size="10" font-family="system-ui, -apple-system, sans-serif">55%</text>
  </g>
  </g>
  <g class="data-point" aria-label="65%">
  <circle cx="406.96" cy="152.33" r="3.0" fill="#4e79a7" class="point"/>
  <g class="tooltip">
  <rect x="414.96" y="132.33" width="60.00" height="18.00" fill="white" stroke="#ccc" rx="3"/>
  <text x="418.96" y="145.33" fill="#cccccc" font-size="10" font-family="system-ui, -apple-system, sans-serif">65%</text>
  </g>
  </g>
  <g class="data-point" aria-label="76%">
  <circle cx="452.61" cy="98.60" r="3.0" fill="#4e79a7" class="point"/>
  <g class="tooltip">
  <rect x="460.61" y="78.60" width="60.00" height="18.00" fill="white" stroke="#ccc" rx="3"/>
  <text x="464.61" y="91.60" fill="#cccccc" font-size="10" font-family="system-ui, -apple-system, sans-serif">76%</text>
  </g>
  </g>
  <g class="data-point" aria-label="80%">
  <circle cx="480.00" cy="79.07" r="3.0" fill="#4e79a7" class="point"/>
  <g class="tooltip">
  <rect x="488.00" y="59.07" width="60.00" height="18.00" fill="white" stroke="#ccc" rx="3"/>
  <text x="492.00" y="72.07" fill="#cccccc" font-size="10" font-family="system-ui, -apple-system, sans-serif">80%</text>
  </g>
  </g>
  </g>
</svg>
