<svg xmlns="http://www.w3.org/2000/svg" viewBox="0 0 800 400" role="img" aria-labelledby="chart-title">
  <title id="chart-title">Weather Station</title>
  <desc>Chart: Weather Station</desc>
  <style>
    .tooltip { display: none; pointer-events: none; }
    .data-point:hover .tooltip { display: block; }
    .point { transition: r 0.15s; }
    .data-point:hover .point { r: 5; }
    .line { transition: stroke-width 0.2s; }
  </style>
  <rect x="0.00" y="0.00" width="800.00" height="400.00" fill="#ffffff"/>
  <g class="grid">
  <line x1="60.00" y1="270.67" x2="780.00" y2="270.67" stroke="#e0e0e0" stroke-width="0.5"/>
  <line x1="60.00" y1="205.77" x2="780.00" y2="205.77" stroke="#e0e0e0" stroke-width="0.5"/>
  <line x1="60.00" y1="140.87" x2="780.00" y2="140.87" stroke="#e0e0e0" stroke-width="0.5"/>
  <line x1="60.00" y1="75.96" x2="780.00" y2="75.96" stroke="#e0e0e0" stroke-width="0.5"/>
  </g>
  <g class="y-axis">
  <line x1="60.00" y1="50.00" x2="60.00" y2="320.00" stroke="#666666" stroke-width="1"/>
  <line x1="56.00" y1="270.67" x2="60.00" y2="270.67" stroke="#666666" stroke-width="1"/>
  <text x="52.00" y="274.67" text-anchor="end" fill="#333333" font-size="12" font-family="system-ui, -apple-system, sans-serif">20</text>
  <line x1="56.00" y1="205.77" x2="60.00" y2="205.77" stroke="#666666" stroke-width="1"/>
  <text x="52.00" y="209.77" text-anchor="end" fill="#333333" font-size="12" font-family="system-ui, -apple-system, sans-serif">40</text>
  <line x1="56.00" y1="140.87" x2="60.00" y2="140.87" stroke="#666666" stroke-width="1"/>
  <text x="52.00" y="144.87" text-anchor="end" fill="#333333" font-size="12" font-family="system-ui, -apple-system, sans-serif">60</text>
  <line x1="56.00" y1="75.96" x2="60.00" y2="75.96" stroke="#666666" stroke-width="1"/>
  <text x="52.00" y="79.96" text-anchor="end" fill="#333333" font-size="12" font-family="system-ui, -apple-system, sans-serif">80</text>
  </g>
  <g class="x-axis">
  <line x1="60.00" y1="320.00" x2="780.00" y2="320.00" stroke="#666666" stroke-width="1"/>
  <line x1="148.51" y1="320.00" x2="148.51" y2="324.00" stroke="#666666" stroke-width="1"/>
  <text x="148.51" y="336.00" text-anchor="middle" fill="#333333" font-size="12" font-family="system-ui, -apple-system, sans-serif">1.718e+09</text>
  <line x1="318.72" y1="320.00" x2="318.72" y2="324.00" stroke="#666666" stroke-width="1"/>
  <text x="318.72" y="336.00" text-anchor="middle" fill="#333333" font-size="12" font-family="system-ui, -apple-system, sans-serif">1.718e+09</text>
  <line x1="488.94" y1="320.00" x2="488.94" y2="324.00" stroke="#666666" stroke-width="1"/>
  <text x="488.94" y="336.00" text-anchor="middle" fill="#333333" font-size="12" font-family="system-ui, -apple-system, sans-serif">1.718e+09</text>
  <line x1="659.15" y1="320.00" x2="659.15" y2="324.00" stroke="#666666" stroke-width="1"/>
  <text x="659.15" y="336.00" text-anchor="middle" fill="#333333" font-size="12" font-family="system-ui, -apple-system, sans-serif">1.718e+09</text>
  </g>
  <text x="400.00" y="30.00" text-anchor="middle" fill="#333333" font-size="16" font-weight="bold" font-family="system-ui, -apple-system, sans-serif">Weather Station</text>
  <g class="series-0">
  <path d="M60.00,299.23 C66.81,299.66 86.38,301.02 100.85,301.83 C115.32,302.64 132.34,303.29 146.81,304.10 C161.28,304.91 174.04,306.37 187.66,306.69 C201.28,307.02 215.32,307.07 228.51,306.05 C241.70,305.02 257.87,302.37 266.81,300.53 C275.74,298.69 272.34,297.18 282.13,295.01 C291.91,292.85 312.34,290.09 325.53,287.55 C338.72,285.01 351.91,282.03 361.28,279.76 C370.64,277.49 374.89,275.76 381.70,273.92 C388.51,272.08 392.34,270.40 402.13,268.73 C411.91,267.05 427.66,265.16 440.43,263.86 C453.19,262.56 469.36,261.15 478.72,260.94 C488.09,260.72 487.23,261.64 496.60,262.56 C505.96,263.48 521.70,264.94 534.89,266.45 C548.09,267.97 562.98,269.54 575.74,271.65 C588.51,273.76 598.72,276.89 611.49,279.11 C624.26,281.33 638.72,283.11 652.34,284.95 C665.96,286.79 679.57,288.36 693.19,290.14 C706.81,291.93 719.57,294.31 734.04,295.66 C748.51,297.01 772.34,297.82 780.00,298.26" fill="none" stroke="#4e79a7" stroke-width="2" class="line"/>
  <g class="data-point" aria-label="11.2°C">
  <circle cx="60.00" cy="299.23" r="3.0" fill="#4e79a7" class="point"/>
  <g class="tooltip">
  <rect x="68.00" y="279.23" width="60.00" height="18.00" fill="white" stroke="#ccc" rx="3"/>
  <text x="72.00" y="292.23" fill="#333333" font-size="10" font-family="system-ui, -apple-system, sans-serif">11.2°C</text>
  </g>
  </g>
  <g class="data-point" aria-label="10.4°C">
  <circle cx="100.85" cy="301.83" r="3.0" fill="#4e79a7" class="point"/>
  <g class="tooltip">
  <rect x="108.85" y="281.83" width="60.00" height="18.00" fill="white" stroke="#ccc" rx="3"/>
  <text x="112.85" y="294.83" fill="#333333" font-size="10" font-family="system-ui, -apple-system, sans-serif">10.4°C</text>
  </g>
  </g>
  <g class="data-point" aria-label="9.7°C">
  <circle cx="146.81" cy="304.10" r="3.0" fill="#4e79a7" class="point"/>
  <g class="tooltip">
  <rect x="154.81" y="284.10" width="60.00" height="18.00" fill="white" stroke="#ccc" rx="3"/>
  <text x="158.81" y="297.10" fill="#333333" font-size="10" font-family="system-ui, -apple-system, sans-serif">9.7°C</text>
  </g>
  </g>
  <g class="data-point" aria-label="8.9°C">
  <circle cx="187.66" cy="306.69" r="3.0" fill="#4e79a7" class="point"/>
  <g class="tooltip">
  <rect x="195.66" y="286.69" width="60.00" height="18.00" fill="white" stroke="#ccc" rx="3"/>
  <text x="199.66" y="299.69" fill="#333333" font-size="10" font-family="system-ui, -apple-system, sans-serif">8.9°C</text>
  </g>
  </g>
  <g class="data-point" aria-label="9.1°C">
  <circle cx="228.51" cy="306.05" r="3.0" fill="#4e79a7" class="point"/>
  <g class="tooltip">
  <rect x="236.51" y="286.05" width="60.00" height="18.00" fill="white" stroke="#ccc" rx="3"/>
  <text x="240.51" y="299.05" fill="#333333" font-size="10" font-family="system-ui, -apple-system, sans-serif">9.1°C</text>
  </g>
  </g>
  <g class="data-point" aria-label="10.8°C">
  <circle cx="266.81" cy="300.53" r="3.0" fill="#4e79a7" class="point"/>
  <g class="tooltip">
  <rect x="274.81" y="280.53" width="60.00" height="18.00" fill="white" stroke="#ccc" rx="3"/>
  <text x="278.81" y="293.53" fill="#333333" font-size="10" font-family="system-ui, -apple-system, sans-serif">10.8°C</text>
  </g>
  </g>
  <g class="data-point" aria-label="12.5°C">
  <circle cx="282.13" cy="295.01" r="3.0" fill="#4e79a7" class="point"/>
  <g class="tooltip">
  <rect x="290.13" y="275.01" width="60.00" height="18.00" fill="white" stroke="#ccc" rx="3"/>
  <text x="294.13" y="288.01" fill="#333333" font-size="10" font-family="system-ui, -apple-system, sans-serif">12.5°C</text>
  </g>
  </g>
  <g class="data-point" aria-label="14.8°C">
  <circle cx="325.53" cy="287.55" r="3.0" fill="#4e79a7" class="point"/>
  <g class="tooltip">
  <rect x="333.53" y="267.55" width="60.00" height="18.00" fill="white" stroke="#ccc" rx="3"/>
  <text x="337.53" y="280.55" fill="#333333" font-size="10" font-family="system-ui, -apple-system, sans-serif">14.8°C</text>
  </g>
  </g>
  <g class="data-point" aria-label="17.2°C">
  <circle cx="361.28" cy="279.76" r="3.0" fill="#4e79a7" class="point"/>
  <g class="tooltip">
  <rect x="369.28" y="259.76" width="60.00" height="18.00" fill="white" stroke="#ccc" rx="3"/>
  <text x="373.28" y="272.76" fill="#333333" font-size="10" font-family="system-ui, -apple-system, sans-serif">17.2°C</text>
  </g>
  </g>
  <g class="data-point" aria-label="19.0°C">
  <circle cx="381.70" cy="273.92" r="3.0" fill="#4e79a7" class="point"/>
  <g class="tooltip">
  <rect x="389.70" y="253.92" width="60.00" height="18.00" fill="white" stroke="#ccc" rx="3"/>
  <text x="393.70" y="266.92" fill="#333333" font-size="10" font-family="system-ui, -apple-system, sans-serif">19.0°C</text>
  </g>
  </g>
  <g class="data-point" aria-label="20.6°C">
  <circle cx="402.13" cy="268.73" r="3.0" fill="#4e79a7" class="point"/>
  <g class="tooltip">
  <rect x="410.13" y="248.73" width="60.00" height="18.00" fill="white" stroke="#ccc" rx="3"/>
  <text x="414.13" y="261.73" fill="#333333" font-size="10" font-family="system-ui, -apple-system, sans-serif">20.6°C</text>
  </g>
  </g>
  <g class="data-point" aria-label="22.1°C">
  <circle cx="440.43" cy="263.86" r="3.0" fill="#4e79a7" class="point"/>
  <g class="tooltip">
  <rect x="448.43" y="243.86" width="60.00" height="18.00" fill="white" stroke="#ccc" rx="3"/>
  <text x="452.43" y="256.86" fill="#333333" font-size="10" font-family="system-ui, -apple-system, sans-serif">22.1°C</text>
  </g>
  </g>
  <g class="data-point" aria-label="23.0°C">
  <circle cx="478.72" cy="260.94" r="3.0" fill="#4e79a7" class="point"/>
  <g class="tooltip">
  <rect x="486.72" y="240.94" width="60.00" height="18.00" fill="white" stroke="#ccc" rx="3"/>
  <text x="490.72" y="253.94" fill="#333333" font-size="10" font-family="system-ui, -apple-system, sans-serif">23.0°C</text>
  </g>
  </g>
  <g class="data-point" aria-label="22.5°C">
  <circle cx="496.60" cy="262.56" r="3.0" fill="#4e79a7" class="point"/>
  <g class="tooltip">
  <rect x="504.60" y="242.56" width="60.00" height="18.00" fill="white" stroke="#ccc" rx="3"/>
  <text x="508.60" y="255.56" fill="#333333" font-size="10" font-family="system-ui, -apple-system, sans-serif">22.5°C</text>
  </g>
  </g>
  <g class="data-point" aria-label="21.3°C">
  <circle cx="534.89" cy="266.45" r="3.0" fill="#4e79a7" class="point"/>
  <g class="tooltip">
  <rect x="542.89" y="246.45" width="60.00" height="18.00" fill="white" stroke="#ccc" rx="3"/>
  <text x="546.89" y="259.45" fill="#333333" font-size="10" font-family="system-ui, -apple-system, sans-serif">21.3°C</text>
  </g>
  </g>
  <g class="data-point" aria-label="19.7°C">
  <circle cx="575.74" cy="271.65" r="3.0" fill="#4e79a7" class="point"/>
  <g class="tooltip">
  <rect x="583.74" y="251.65" width="60.00" height="18.00" fill="white" stroke="#ccc" rx="3"/>
  <text x="587.74" y="264.65" fill="#333333" font-size="10" font-family="system-ui, -apple-system, sans-serif">19.7°C</text>
  </g>
  </g>
  <g class="data-point" aria-label="17.4°C">
  <circle cx="611.49" cy="279.11" r="3.0" fill="#4e79a7" class="point"/>
  <g class="tooltip">
  <rect x="619.49" y="259.11" width="60.00" height="18.00" fill="white" stroke="#ccc" rx="3"/>
  <text x="623.49" y="272.11" fill="#333333" font-size="10" font-family="system-ui, -apple-system, sans-serif">17.4°C</text>
  </g>
  </g>
  <g class="data-point" aria-label="15.6°C">
  <circle cx="652.34" cy="284.95" r="3.0" fill="#4e79a7" class="point"/>
  <g class="tooltip">
  <rect x="660.34" y="264.95" width="60.00" height="18.00" fill="white" stroke="#ccc" rx="3"/>
  <text x="664.34" y="277.95" fill="#333333" font-size="10" font-family="system-ui, -apple-system, sans-serif">15.6°C</text>
  </g>
  </g>
  <g class="data-point" aria-label="14.0°C">
  <circle cx="693.19" cy="290.14" r="3.0" fill="#4e79a7" class="point"/>
  <g class="tooltip">
  <rect x="701.19" y="270.14" width="60.00" height="18.00" fill="white" stroke="#ccc" rx="3"/>
  <text x="705.19" y="283.14" fill="#333333" font-size="10" font-family="system-ui, -apple-system, sans-serif">14.0°C</text>
  </g>
  </g>
  <g class="data-point" aria-label="12.3°C">
  <circle cx="734.04" cy="295.66" r="3.0" fill="#4e79a7" class="point"/>
  <g class="tooltip">
  <rect x="742.04" y="275.66" width="60.00" height="18.00" fill="white" stroke="#ccc" rx="3"/>
  <text x="746.04" y="288.66" fill="#333333" font-size="10" font-family="system-ui, -apple-system, sans-serif">12.3°C</text>
  </g>
  </g>
  <g class="data-point" aria-label="11.5°C">
  <circle cx="780.00" cy="298.26" r="3.0" fill="#4e79a7" class="point"/>
  <g class="tooltip">
  <rect x="788.00" y="278.26" width="60.00" height="18.00" fill="white" stroke="#ccc" rx="3"/>
  <text x="792.00" y="291.26" fill="#333333" font-size="10" font-family="system-ui, -apple-system, sans-serif">11.5°C</text>
  </g>
  </g>
  </g>
  <g class="series-1">
  <path d="M60.00,69.47 C72.77,67.85 112.34,62.98 136.60,59.74 C160.85,56.49 185.11,49.46 205.53,50.00 C225.96,50.54 241.28,54.33 259.15,62.98 C277.02,71.63 294.89,87.86 312.77,101.92 C330.64,115.99 349.79,135.46 366.38,147.36 C382.98,159.25 397.02,166.29 412.34,173.32 C427.66,180.35 440.43,188.46 458.30,189.54 C476.17,190.62 499.15,185.22 519.57,179.81 C540.00,174.40 560.43,166.29 580.85,157.09 C601.28,147.90 619.15,136.00 642.13,124.64 C665.11,113.28 698.30,97.06 718.72,88.94 C739.15,80.83 757.02,78.12 764.68,75.96" fill="none" stroke="#f28e2b" stroke-width="2" class="line"/>
  <g class="data-point" aria-label="82%">
  <circle cx="60.00" cy="69.47" r="3.0" fill="#f28e2b" class="point"/>
  <g class="tooltip">
  <rect x="68.00" y="49.47" width="60.00" height="18.00" fill="white" stroke="#ccc" rx="3"/>
  <text x="72.00" y="62.47" fill="#333333" font-size="10" font-family="system-ui, -apple-system, sans-serif">82%</text>
  </g>
  </g>
  <g class="data-point" aria-label="85%">
  <circle cx="136.60" cy="59.74" r="3.0" fill="#f28e2b" class="point"/>
  <g class="tooltip">
  <rect x="144.60" y="39.74" width="60.00" height="18.00" fill="white" stroke="#ccc" rx="3"/>
  <text x="148.60" y="52.74" fill="#333333" font-size="10" font-family="system-ui, -apple-system, sans-serif">85%</text>
  </g>
  </g>
  <g class="data-point" aria-label="88%">
  <circle cx="205.53" cy="50.00" r="3.0" fill="#f28e2b" class="point"/>
  <g class="tooltip">
  <rect x="213.53" y="30.00" width="60.00" height="18.00" fill="white" stroke="#ccc" rx="3"/>
  <text x="217.53" y="43.00" fill="#333333" font-size="10" font-family="system-ui, -apple-system, sans-serif">88%</text>
  </g>
  </g>
  <g class="data-point" aria-label="84%">
  <circle cx="259.15" cy="62.98" r="3.0" fill="#f28e2b" class="point"/>
  <g class="tooltip">
  <rect x="267.15" y="42.98" width="60.00" height="18.00" fill="white" stroke="#ccc" rx="3"/>
  <text x="271.15" y="55.98" fill="#333333" font-size="10" font-family="system-ui, -apple-system, sans-serif">84%</text>
  </g>
  </g>
  <g class="data-point" aria-label="72%">
  <circle cx="312.77" cy="101.92" r="3.0" fill="#f28e2b" class="point"/>
  <g class="tooltip">
  <rect x="320.77" y="81.92" width="60.00" height="18.00" fill="white" stroke="#ccc" rx="3"/>
  <text x="324.77" y="94.92" fill="#333333" font-size="10" font-family="system-ui, -apple-system, sans-serif">72%</text>
  </g>
  </g>
  <g class="data-point" aria-label="58%">
  <circle cx="366.38" cy="147.36" r="3.0" fill="#f28e2b" class="point"/>
  <g class="tooltip">
  <rect x="374.38" y="127.36" width="60.00" height="18.00" fill="white" stroke="#ccc" rx="3"/>
  <text x="378.38" y="140.36" fill="#333333" font-size="10" font-family="system-ui, -apple-system, sans-serif">58%</text>
  </g>
  </g>
  <g class="data-point" aria-label="50%">
  <circle cx="412.34" cy="173.32" r="3.0" fill="#f28e2b" class="point"/>
  <g class="tooltip">
  <rect x="420.34" y="153.32" width="60.00" height="18.00" fill="white" stroke="#ccc" rx="3"/>
  <text x="424.34" y="166.32" fill="#333333" font-size="10" font-family="system-ui, -apple-system, sans-serif">50%</text>
  </g>
  </g>
  <g class="data-point" aria-label="45%">
  <circle cx="458.30" cy="189.54" r="3.0" fill="#f28e2b" class="point"/>
  <g class="tooltip">
  <rect x="466.30" y="169.54" width="60.00" height="18.00" fill="white" stroke="#ccc" rx="3"/>
  <text x="470.30" y="182.54" fill="#333333" font-size="10" font-family="system-ui, -apple-system, sans-serif">45%</text>
  </g>
  </g>
  <g class="data-point" aria-label="48%">
  <circle cx="519.57" cy="179.81" r="3.0" fill="#f28e2b" class="point"/>
  <g class="tooltip">
  <rect x="527.57" y="159.81" width="60.00" height="18.00" fill="white" stroke="#ccc" rx="3"/>
  <text x="531.57" y="172.81" fill="#333333" font-size="10" font-family="system-ui, -apple-system, sans-serif">48%</text>
  </g>
  </g>
  <g class="data-point" aria-label="55%">
  <circle cx="580.85" cy="157.09" r="3.0" fill="#f28e2b" class="point"/>
  <g class="tooltip">
  <rect x="588.85" y="137.09" width="60.00" height="18.00" fill="white" stroke="#ccc" rx="3"/>
  <text x="592.85" y="150.09" fill="#333333" font-size="10" font-family="system-ui, -apple-system, sans-serif">55%</text>
  </g>
  </g>
  <g class="data-point" aria-label="65%">
  <circle cx="642.13" cy="124.64" r="3.0" fill="#f28e2b" class="point"/>
  <g class="tooltip">
  <rect x="650.13" y="104.64" width="60.00" height="18.00" fill="white" stroke="#ccc" rx="3"/>
  <text x="654.13" y="117.64" fill="#333333" font-size="10" font-family="system-ui, -apple-system, sans-serif">65%</text>
  </g>
  </g>
  <g class="data-point" aria-label="76%">
  <circle cx="718.72" cy="88.94" r="3.0" fill="#f28e2b" class="point"/>
  <g class="tooltip">
  <rect x="726.72" y="68.94" width="60.00" height="18.00" fill="white" stroke="#ccc" rx="3"/>
  <text x="730.72" y="81.94" fill="#333333" font-size="10" font-family="system-ui, -apple-system, sans-serif">76%</text>
  </g>
  </g>
  <g class="data-point" aria-label="80%">
  <circle cx="764.68" cy="75.96" r="3.0" fill="#f28e2b" class="point"/>
  <g class="tooltip">
  <rect x="772.68" y="55.96" width="60.00" height="18.00" fill="white" stroke="#ccc" rx="3"/>
  <text x="776.68" y="68.96" fill="#333333" font-size="10" font-family="system-ui, -apple-system, sans-serif">80%</text>
  </g>
  </g>
  </g>
  <g class="series-2">
  <path d="M75.32,315.46 C88.09,316.21 127.66,319.62 151.91,320.00 C176.17,320.38 200.43,319.62 220.85,317.73 C241.28,315.84 252.77,312.21 274.47,308.64 C296.17,305.07 330.64,300.15 351.06,296.31 C371.49,292.47 380.43,288.90 397.02,285.60 C413.62,282.30 432.77,277.22 450.64,276.51 C468.51,275.81 487.66,279.06 504.26,281.38 C520.85,283.71 529.79,287.12 550.21,290.47 C570.64,293.82 606.38,298.20 626.81,301.50 C647.23,304.80 652.34,307.78 672.77,310.26 C693.19,312.75 736.60,315.40 749.36,316.43" fill="none" stroke="#e15759" stroke-width="2" class="line"/>
  <g class="data-point" aria-label="6.2 km/h">
  <circle cx="75.32" cy="315.46" r="3.0" fill="#e15759" class="point"/>
  <g class="tooltip">
  <rect x="83.32" y="295.46" width="60.00" height="18.00" fill="white" stroke="#ccc" rx="3"/>
  <text x="87.32" y="308.46" fill="#333333" font-size="10" font-family="system-ui, -apple-system, sans-serif">6.2 km/h</text>
  </g>
  </g>
  <g class="data-point" aria-label="4.8 km/h">
  <circle cx="151.91" cy="320.00" r="3.0" fill="#e15759" class="point"/>
  <g class="tooltip">
  <rect x="159.91" y="300.00" width="60.00" height="18.00" fill="white" stroke="#ccc" rx="3"/>
  <text x="163.91" y="313.00" fill="#333333" font-size="10" font-family="system-ui, -apple-system, sans-serif">4.8 km/h</text>
  </g>
  </g>
  <g class="data-point" aria-label="5.5 km/h">
  <circle cx="220.85" cy="317.73" r="3.0" fill="#e15759" class="point"/>
  <g class="tooltip">
  <rect x="228.85" y="297.73" width="60.00" height="18.00" fill="white" stroke="#ccc" rx="3"/>
  <text x="232.85" y="310.73" fill="#333333" font-size="10" font-family="system-ui, -apple-system, sans-serif">5.5 km/h</text>
  </g>
  </g>
  <g class="data-point" aria-label="8.3 km/h">
  <circle cx="274.47" cy="308.64" r="3.0" fill="#e15759" class="point"/>
  <g class="tooltip">
  <rect x="282.47" y="288.64" width="60.00" height="18.00" fill="white" stroke="#ccc" rx="3"/>
  <text x="286.47" y="301.64" fill="#333333" font-size="10" font-family="system-ui, -apple-system, sans-serif">8.3 km/h</text>
  </g>
  </g>
  <g class="data-point" aria-label="12.1 km/h">
  <circle cx="351.06" cy="296.31" r="3.0" fill="#e15759" class="point"/>
  <g class="tooltip">
  <rect x="359.06" y="276.31" width="60.00" height="18.00" fill="white" stroke="#ccc" rx="3"/>
  <text x="363.06" y="289.31" fill="#333333" font-size="10" font-family="system-ui, -apple-system, sans-serif">12.1 km/h</text>
  </g>
  </g>
  <g class="data-point" aria-label="15.4 km/h">
  <circle cx="397.02" cy="285.60" r="3.0" fill="#e15759" class="point"/>
  <g class="tooltip">
  <rect x="405.02" y="265.60" width="60.00" height="18.00" fill="white" stroke="#ccc" rx="3"/>
  <text x="409.02" y="278.60" fill="#333333" font-size="10" font-family="system-ui, -apple-system, sans-serif">15.4 km/h</text>
  </g>
  </g>
  <g class="data-point" aria-label="18.2 km/h">
  <circle cx="450.64" cy="276.51" r="3.0" fill="#e15759" class="point"/>
  <g class="tooltip">
  <rect x="458.64" y="256.51" width="60.00" height="18.00" fill="white" stroke="#ccc" rx="3"/>
  <text x="462.64" y="269.51" fill="#333333" font-size="10" font-family="system-ui, -apple-system, sans-serif">18.2 km/h</text>
  </g>
  </g>
  <g class="data-point" aria-label="16.7 km/h">
  <circle cx="504.26" cy="281.38" r="3.0" fill="#e15759" class="point"/>
  <g class="tooltip">
  <rect x="512.26" y="261.38" width="60.00" height="18.00" fill="white" stroke="#ccc" rx="3"/>
  <text x="516.26" y="274.38" fill="#333333" font-size="10" font-family="system-ui, -apple-system, sans-serif">16.7 km/h</text>
  </g>
  </g>
  <g class="data-point" aria-label="13.9 km/h">
  <circle cx="550.21" cy="290.47" r="3.0" fill="#e15759" class="point"/>
  <g class="tooltip">
  <rect x="558.21" y="270.47" width="60.00" height="18.00" fill="white" stroke="#ccc" rx="3"/>
  <text x="562.21" y="283.47" fill="#333333" font-size="10" font-family="system-ui, -apple-system, sans-serif">13.9 km/h</text>
  </g>
  </g>
  <g class="data-point" aria-label="10.5 km/h">
  <circle cx="626.81" cy="301.50" r="3.0" fill="#e15759" class="point"/>
  <g class="tooltip">
  <rect x="634.81" y="281.50" width="60.00" height="18.00" fill="white" stroke="#ccc" rx="3"/>
  <text x="638.81" y="294.50" fill="#333333" font-size="10" font-family="system-ui, -apple-system, sans-serif">10.5 km/h</text>
  </g>
  </g>
  <g class="data-point" aria-label="7.8 km/h">
  <circle cx="672.77" cy="310.26" r="3.0" fill="#e15759" class="point"/>
  <g class="tooltip">
  <rect x="680.77" y="290.26" width="60.00" height="18.00" fill="white" stroke="#ccc" rx="3"/>
  <text x="684.77" y="303.26" fill="#333333" font-size="10" font-family="system-ui, -apple-system, sans-serif">7.8 km/h</text>
  </g>
  </g>
  <g class="data-point" aria-label="5.9 km/h">
  <circle cx="749.36" cy="316.43" r="3.0" fill="#e15759" class="point"/>
  <g class="tooltip">
  <rect x="757.36" y="296.43" width="60.00" height="18.00" fill="white" stroke="#ccc" rx="3"/>
  <text x="761.36" y="309.43" fill="#333333" font-size="10" font-family="system-ui, -apple-system, sans-serif">5.9 km/h</text>
  </g>
  </g>
  </g>
  <g class="legend">
  <rect x="60.00" y="375.00" width="12.00" height="12.00" fill="#4e79a7"/>
  <text x="76.00" y="386.00" fill="#333333" font-size="12" font-family="system-ui, -apple-system, sans-serif">Temperature</text>
  <rect x="178.00" y="375.00" width="12.00" height="12.00" fill="#f28e2b"/>
  <text x="194.00" y="386.00" fill="#333333" font-size="12" font-family="system-ui, -apple-system, sans-serif">Humidity</text>
  <rect x="272.00" y="375.00" width="12.00" height="12.00" fill="#e15759"/>
  <text x="288.00" y="386.00" fill="#333333" font-size="12" font-family="system-ui, -apple-system, sans-serif">Wind Speed</text>
  </g>
</svg>
