<svg xmlns="http://www.w3.org/2000/svg" viewBox="0 0 200 30">
  <g class="series-0">
  <path d="M0.00,15.09 L4.08,8.97 L8.16,6.32 L12.24,7.09 L16.33,8.06 L20.41,6.55 L24.49,3.49 L28.57,2.49 L32.65,5.84 L36.73,11.93 L40.82,16.81 L44.90,18.26 L48.98,17.96 L53.06,19.34 L57.14,23.57 L61.22,28.02 L65.31,29.00 L69.39,25.63 L73.47,20.83 L77.55,18.18 L81.63,18.15 L85.71,17.82 L89.80,14.32 L93.88,8.26 L97.96,3.35 L102.04,2.62 L106.12,5.28 L110.20,7.77 L114.29,7.68 L118.37,6.37 L122.45,7.35 L126.53,12.29 L130.61,18.93 L134.69,23.27 L138.78,23.65 L142.86,22.30 L146.94,22.66 L151.02,25.43 L155.10,27.74 L159.18,26.24 L163.27,20.86 L167.35,15.01 L171.43,12.12 L175.51,12.10 L179.59,11.77 L183.67,8.61 L187.76,3.76 L191.84,1.00 L195.92,2.74 L200.00,7.44" fill="none" stroke="#4e79a7" stroke-width="2" class="line"/>
  </g>
</svg>
