<svg xmlns="http://www.w3.org/2000/svg" viewBox="0 0 200 30">
  <g class="series-0">
  <path d="M0.00,15.09 C0.68,14.07 2.72,10.43 4.08,8.97 C5.44,7.51 6.80,6.63 8.16,6.32 C9.52,6.00 10.88,6.80 12.24,7.09 C13.61,7.38 14.97,8.15 16.33,8.06 C17.69,7.97 19.05,7.31 20.41,6.55 C21.77,5.79 23.13,4.17 24.49,3.49 C25.85,2.81 27.21,2.10 28.57,2.49 C29.93,2.88 31.29,4.27 32.65,5.84 C34.01,7.42 35.37,10.11 36.73,11.93 C38.10,13.76 39.46,15.76 40.82,16.81 C42.18,17.87 43.54,18.07 44.90,18.26 C46.26,18.46 47.62,17.78 48.98,17.96 C50.34,18.14 51.70,18.41 53.06,19.34 C54.42,20.27 55.78,22.12 57.14,23.57 C58.50,25.01 59.86,27.12 61.22,28.02 C62.59,28.93 63.95,29.40 65.31,29.00 C66.67,28.60 68.03,26.99 69.39,25.63 C70.75,24.27 72.11,22.07 73.47,20.83 C74.83,19.59 76.19,18.62 77.55,18.18 C78.91,17.73 80.27,18.21 81.63,18.15 C82.99,18.09 84.35,18.46 85.71,17.82 C87.07,17.18 88.44,15.91 89.80,14.32 C91.16,12.73 92.52,10.09 93.88,8.26 C95.24,6.43 96.60,4.29 97.96,3.35 C99.32,2.41 100.68,2.29 102.04,2.62 C103.40,2.94 104.76,4.42 106.12,5.28 C107.48,6.14 108.84,7.37 110.20,7.77 C111.56,8.17 112.93,7.92 114.29,7.68 C115.65,7.45 117.01,6.42 118.37,6.37 C119.73,6.31 121.09,6.36 122.45,7.35 C123.81,8.34 125.17,10.36 126.53,12.29 C127.89,14.22 129.25,17.10 130.61,18.93 C131.97,20.76 133.33,22.48 134.69,23.27 C136.05,24.05 137.41,23.81 138.78,23.65 C140.14,23.49 141.50,22.47 142.86,22.30 C144.22,22.14 145.58,22.14 146.94,22.66 C148.30,23.18 149.66,24.59 151.02,25.43 C152.38,26.28 153.74,27.61 155.10,27.74 C156.46,27.88 157.82,27.39 159.18,26.24 C160.54,25.09 161.90,22.73 163.27,20.86 C164.63,18.99 165.99,16.47 167.35,15.01 C168.71,13.56 170.07,12.61 171.43,12.12 C172.79,11.63 174.15,12.16 175.51,12.10 C176.87,12.04 178.23,12.35 179.59,11.77 C180.95,11.19 182.31,9.95 183.67,8.61 C185.03,7.28 186.39,5.03 187.76,3.76 C189.12,2.49 190.48,1.17 191.84,1.00 C193.20,0.83 194.56,1.66 195.92,2.74 C197.28,3.81 199.32,6.66 200.00,7.44" fill="none" stroke="#4e79a7" stroke-width="2" class="line"/>
  </g>
</svg>
