<svg xmlns="http://www.w3.org/2000/svg" viewBox="0 0 400 40">
  <g class="series-0">
  <path d="M0.00,20.12 L8.16,11.82 L16.33,8.21 L24.49,9.26 L32.65,10.58 L40.82,8.53 L48.98,4.38 L57.14,3.02 L65.31,7.57 L73.47,15.84 L81.63,22.46 L89.80,24.43 L97.96,24.02 L106.12,25.89 L114.29,31.63 L122.45,37.68 L130.61,39.00 L138.78,34.42 L146.94,27.91 L155.10,24.31 L163.27,24.27 L171.43,23.83 L179.59,19.08 L187.76,10.85 L195.92,4.19 L204.08,3.19 L212.24,6.81 L220.41,10.19 L228.57,10.07 L236.73,8.28 L244.90,9.62 L253.06,16.33 L261.22,25.34 L269.39,31.22 L277.55,31.74 L285.71,29.91 L293.88,30.39 L302.04,34.16 L310.20,37.29 L318.37,35.26 L326.53,27.95 L334.69,20.02 L342.86,16.09 L351.02,16.06 L359.18,15.62 L367.35,11.33 L375.51,4.75 L383.67,1.00 L391.84,3.36 L400.00,9.74" fill="none" stroke="#4e79a7" stroke-width="2" class="line"/>
  </g>
</svg>
